%TF.GenerationSoftware,KiCad,Pcbnew,9.0.7*%
%TF.CreationDate,2026-08-05T18:31:54+05:30*%
%TF.ProjectId,custom_fc_rat,63757374-6f6d-45f6-9663-5f7261742e6b,rev?*%
%TF.SameCoordinates,Original*%
%TF.FileFunction,Copper,L6,Bot*%
%TF.FilePolarity,Positive*%
%FSLAX46Y46*%
G04 Gerber Fmt 4.6, Leading zero omitted, Abs format (unit mm)*
G04 Created by KiCad (PCBNEW 9.0.7) date 2026-08-05 18:31:54*
%MOMM*%
%LPD*%
G01*
G04 APERTURE LIST*
G04 Aperture macros list*
%AMRoundRect*
0 Rectangle with rounded corners*
0 $1 Rounding radius*
0 $2 $3 $4 $5 $6 $7 $8 $9 X,Y pos of 4 corners*
0 Add a 4 corners polygon primitive as box body*
4,1,4,$2,$3,$4,$5,$6,$7,$8,$9,$2,$3,0*
0 Add four circle primitives for the rounded corners*
1,1,$1+$1,$2,$3*
1,1,$1+$1,$4,$5*
1,1,$1+$1,$6,$7*
1,1,$1+$1,$8,$9*
0 Add four rect primitives between the rounded corners*
20,1,$1+$1,$2,$3,$4,$5,0*
20,1,$1+$1,$4,$5,$6,$7,0*
20,1,$1+$1,$6,$7,$8,$9,0*
20,1,$1+$1,$8,$9,$2,$3,0*%
G04 Aperture macros list end*
%TA.AperFunction,SMDPad,CuDef*%
%ADD10RoundRect,0.237500X-0.250000X-0.237500X0.250000X-0.237500X0.250000X0.237500X-0.250000X0.237500X0*%
%TD*%
%TA.AperFunction,SMDPad,CuDef*%
%ADD11RoundRect,0.237500X0.250000X0.237500X-0.250000X0.237500X-0.250000X-0.237500X0.250000X-0.237500X0*%
%TD*%
%TA.AperFunction,SMDPad,CuDef*%
%ADD12RoundRect,0.237500X0.300000X0.237500X-0.300000X0.237500X-0.300000X-0.237500X0.300000X-0.237500X0*%
%TD*%
%TA.AperFunction,SMDPad,CuDef*%
%ADD13RoundRect,0.237500X-0.237500X0.250000X-0.237500X-0.250000X0.237500X-0.250000X0.237500X0.250000X0*%
%TD*%
%TA.AperFunction,SMDPad,CuDef*%
%ADD14RoundRect,0.250000X0.337500X0.475000X-0.337500X0.475000X-0.337500X-0.475000X0.337500X-0.475000X0*%
%TD*%
%TA.AperFunction,SMDPad,CuDef*%
%ADD15RoundRect,0.237500X0.237500X-0.300000X0.237500X0.300000X-0.237500X0.300000X-0.237500X-0.300000X0*%
%TD*%
%TA.AperFunction,SMDPad,CuDef*%
%ADD16RoundRect,0.250000X-0.475000X0.337500X-0.475000X-0.337500X0.475000X-0.337500X0.475000X0.337500X0*%
%TD*%
%TA.AperFunction,SMDPad,CuDef*%
%ADD17RoundRect,0.250000X0.850000X0.350000X-0.850000X0.350000X-0.850000X-0.350000X0.850000X-0.350000X0*%
%TD*%
%TA.AperFunction,SMDPad,CuDef*%
%ADD18RoundRect,0.249997X2.950003X2.650003X-2.950003X2.650003X-2.950003X-2.650003X2.950003X-2.650003X0*%
%TD*%
%TA.AperFunction,ComponentPad*%
%ADD19R,1.050000X1.500000*%
%TD*%
%TA.AperFunction,ComponentPad*%
%ADD20O,1.050000X1.500000*%
%TD*%
%TA.AperFunction,SMDPad,CuDef*%
%ADD21RoundRect,0.237500X0.237500X-0.250000X0.237500X0.250000X-0.237500X0.250000X-0.237500X-0.250000X0*%
%TD*%
%TA.AperFunction,SMDPad,CuDef*%
%ADD22RoundRect,0.250000X0.475000X-0.337500X0.475000X0.337500X-0.475000X0.337500X-0.475000X-0.337500X0*%
%TD*%
%TA.AperFunction,SMDPad,CuDef*%
%ADD23RoundRect,0.147500X0.457500X0.147500X-0.457500X0.147500X-0.457500X-0.147500X0.457500X-0.147500X0*%
%TD*%
%TA.AperFunction,SMDPad,CuDef*%
%ADD24R,1.240000X0.590000*%
%TD*%
%TA.AperFunction,SMDPad,CuDef*%
%ADD25RoundRect,0.250000X1.000000X0.650000X-1.000000X0.650000X-1.000000X-0.650000X1.000000X-0.650000X0*%
%TD*%
%TA.AperFunction,SMDPad,CuDef*%
%ADD26RoundRect,0.237500X-0.300000X-0.237500X0.300000X-0.237500X0.300000X0.237500X-0.300000X0.237500X0*%
%TD*%
%TA.AperFunction,ViaPad*%
%ADD27C,0.500000*%
%TD*%
%TA.AperFunction,ViaPad*%
%ADD28C,0.600000*%
%TD*%
%TA.AperFunction,ViaPad*%
%ADD29C,0.400000*%
%TD*%
%TA.AperFunction,Conductor*%
%ADD30C,0.300000*%
%TD*%
%TA.AperFunction,Conductor*%
%ADD31C,0.400000*%
%TD*%
%TA.AperFunction,Conductor*%
%ADD32C,0.200000*%
%TD*%
%TA.AperFunction,Conductor*%
%ADD33C,0.500000*%
%TD*%
%TA.AperFunction,Conductor*%
%ADD34C,0.250000*%
%TD*%
G04 APERTURE END LIST*
D10*
%TO.P,R21,1*%
%TO.N,/fmu_mcu_power/SCALED_V3V3*%
X177087500Y-71000000D03*
%TO.P,R21,2*%
%TO.N,+3.3V*%
X178912500Y-71000000D03*
%TD*%
D11*
%TO.P,R17,1*%
%TO.N,+3.3V*%
X192500000Y-73500000D03*
%TO.P,R17,2*%
%TO.N,Net-(U10-~{WP}{slash}IO_{2})*%
X190675000Y-73500000D03*
%TD*%
D12*
%TO.P,C16,1*%
%TO.N,+3.3V*%
X167862500Y-80000000D03*
%TO.P,C16,2*%
%TO.N,GND*%
X166137500Y-80000000D03*
%TD*%
D11*
%TO.P,R1,1*%
%TO.N,Net-(C8-Pad1)*%
X197475000Y-88500000D03*
%TO.P,R1,2*%
%TO.N,Net-(J7-Pin_3)*%
X195650000Y-88500000D03*
%TD*%
D13*
%TO.P,R27,1*%
%TO.N,/IO_FMU/D_BOOBT0_R*%
X159000000Y-78675000D03*
%TO.P,R27,2*%
%TO.N,GND*%
X159000000Y-80500000D03*
%TD*%
D14*
%TO.P,C35,1*%
%TO.N,+3.3V*%
X168037500Y-75000000D03*
%TO.P,C35,2*%
%TO.N,GND*%
X165962500Y-75000000D03*
%TD*%
D11*
%TO.P,R5,1*%
%TO.N,Net-(J7-Pin_2)*%
X197475000Y-90000000D03*
%TO.P,R5,2*%
%TO.N,Net-(C8-Pad1)*%
X195650000Y-90000000D03*
%TD*%
D10*
%TO.P,R22,1*%
%TO.N,/fmu_mcu_power/SCALED_V3V3*%
X177087500Y-72500000D03*
%TO.P,R22,2*%
%TO.N,GND*%
X178912500Y-72500000D03*
%TD*%
D11*
%TO.P,R2,1*%
%TO.N,+3.3V*%
X184660000Y-61520000D03*
%TO.P,R2,2*%
%TO.N,/fmu_mcu_power/I2C4_SDA*%
X182835000Y-61520000D03*
%TD*%
D12*
%TO.P,C12,1*%
%TO.N,+3.3V*%
X164362500Y-78000000D03*
%TO.P,C12,2*%
%TO.N,GND*%
X162637500Y-78000000D03*
%TD*%
D15*
%TO.P,C32,1*%
%TO.N,/fmu_mcu_power/VDDA*%
X176000000Y-63000000D03*
%TO.P,C32,2*%
%TO.N,GND*%
X176000000Y-61275000D03*
%TD*%
D11*
%TO.P,R36,1*%
%TO.N,/fmu_mcu_power/GPIO_LED_BLUE*%
X181925000Y-86500000D03*
%TO.P,R36,2*%
%TO.N,Net-(D8-A)*%
X180100000Y-86500000D03*
%TD*%
%TO.P,R35,1*%
%TO.N,/fmu_mcu_power/GPIO_LED_GREEN*%
X181900000Y-89500000D03*
%TO.P,R35,2*%
%TO.N,Net-(D7-A)*%
X180075000Y-89500000D03*
%TD*%
D14*
%TO.P,C41,1*%
%TO.N,+3.3V*%
X186500000Y-91000000D03*
%TO.P,C41,2*%
%TO.N,GND*%
X184425000Y-91000000D03*
%TD*%
D13*
%TO.P,R33,1*%
%TO.N,/IO_FMU/AMBER_LED*%
X161500000Y-83087500D03*
%TO.P,R33,2*%
%TO.N,Net-(D5-A)*%
X161500000Y-84912500D03*
%TD*%
D11*
%TO.P,R7,1*%
%TO.N,+3.3V*%
X183855000Y-70460000D03*
%TO.P,R7,2*%
%TO.N,/fmu_mcu_power/I2C2_SCL*%
X182030000Y-70460000D03*
%TD*%
D16*
%TO.P,C10,1*%
%TO.N,Net-(D1-K)*%
X182862500Y-49500000D03*
%TO.P,C10,2*%
%TO.N,GND*%
X182862500Y-51575000D03*
%TD*%
D10*
%TO.P,R20,1*%
%TO.N,/fmu_mcu_power/VDD_5V_SENS*%
X173587500Y-72500000D03*
%TO.P,R20,2*%
%TO.N,GND*%
X175412500Y-72500000D03*
%TD*%
%TO.P,R39,1*%
%TO.N,+3.3V*%
X190562500Y-91000000D03*
%TO.P,R39,2*%
%TO.N,Net-(U9-Vref)*%
X192387500Y-91000000D03*
%TD*%
D15*
%TO.P,C23,1*%
%TO.N,+3.3V*%
X179412500Y-68500000D03*
%TO.P,C23,2*%
%TO.N,GND*%
X179412500Y-66775000D03*
%TD*%
D12*
%TO.P,C8,1*%
%TO.N,Net-(C8-Pad1)*%
X197475000Y-91500000D03*
%TO.P,C8,2*%
%TO.N,GND*%
X195750000Y-91500000D03*
%TD*%
D11*
%TO.P,R14,1*%
%TO.N,+3.3V*%
X166412500Y-55500000D03*
%TO.P,R14,2*%
%TO.N,/fmu_mcu_power/D_NRST*%
X164587500Y-55500000D03*
%TD*%
D14*
%TO.P,C46,1*%
%TO.N,/fmu_mcu_power/3V3_EXTERNAL*%
X162500000Y-64000000D03*
%TO.P,C46,2*%
%TO.N,GND*%
X160425000Y-64000000D03*
%TD*%
D11*
%TO.P,R37,1*%
%TO.N,/fmu_mcu_power/GPIO_LED_RED*%
X182025000Y-84000000D03*
%TO.P,R37,2*%
%TO.N,Net-(D9-A)*%
X180200000Y-84000000D03*
%TD*%
D17*
%TO.P,U6,1,GND*%
%TO.N,GND*%
X168000000Y-66245000D03*
%TO.P,U6,2,VO*%
%TO.N,/fmu_mcu_power/3V3_EXTERNAL*%
X168000000Y-68525000D03*
D18*
X161700000Y-68525000D03*
D17*
%TO.P,U6,3,VI*%
%TO.N,+5V*%
X168000000Y-70805000D03*
%TD*%
D19*
%TO.P,Q1,1,C*%
%TO.N,/IO_FMU/USART3_RX*%
X172000000Y-85000000D03*
D20*
%TO.P,Q1,2,B*%
%TO.N,Net-(Q1-B)*%
X170730000Y-85000000D03*
%TO.P,Q1,3,E*%
%TO.N,GND*%
X169460000Y-85000000D03*
%TD*%
D10*
%TO.P,R31,1*%
%TO.N,/IO_FMU/USART3_TX*%
X172675000Y-90000000D03*
%TO.P,R31,2*%
%TO.N,Net-(Q1-B)*%
X174500000Y-90000000D03*
%TD*%
D21*
%TO.P,R32,1*%
%TO.N,/IO_FMU/RING_LED*%
X161500000Y-90800000D03*
%TO.P,R32,2*%
%TO.N,Net-(D2-A)*%
X161500000Y-88975000D03*
%TD*%
D15*
%TO.P,C24,1*%
%TO.N,+3.3V*%
X180912500Y-68500000D03*
%TO.P,C24,2*%
%TO.N,GND*%
X180912500Y-66775000D03*
%TD*%
D13*
%TO.P,R6,1*%
%TO.N,Net-(D4-K)*%
X193000000Y-49675000D03*
%TO.P,R6,2*%
%TO.N,GND*%
X193000000Y-51500000D03*
%TD*%
D22*
%TO.P,C34,1*%
%TO.N,+3.3V*%
X177275000Y-68500000D03*
%TO.P,C34,2*%
%TO.N,GND*%
X177275000Y-66425000D03*
%TD*%
D12*
%TO.P,C36,1*%
%TO.N,GND*%
X168000000Y-73000000D03*
%TO.P,C36,2*%
%TO.N,+5V*%
X166275000Y-73000000D03*
%TD*%
D22*
%TO.P,C22,1*%
%TO.N,+3.3V*%
X173275000Y-68518750D03*
%TO.P,C22,2*%
%TO.N,GND*%
X173275000Y-66443750D03*
%TD*%
D11*
%TO.P,R9,1*%
%TO.N,+5V*%
X166000000Y-89000000D03*
%TO.P,R9,2*%
%TO.N,/IO_FMU/USART3_RX*%
X164175000Y-89000000D03*
%TD*%
D22*
%TO.P,C33,1*%
%TO.N,/fmu_mcu_power/VDDA*%
X175275000Y-68481250D03*
%TO.P,C33,2*%
%TO.N,GND*%
X175275000Y-66406250D03*
%TD*%
D14*
%TO.P,C13,1*%
%TO.N,+3.3V*%
X164262500Y-76000000D03*
%TO.P,C13,2*%
%TO.N,GND*%
X162187500Y-76000000D03*
%TD*%
D11*
%TO.P,R4,1*%
%TO.N,+3.3V*%
X183905000Y-71970000D03*
%TO.P,R4,2*%
%TO.N,/fmu_mcu_power/I2C2_SDA*%
X182080000Y-71970000D03*
%TD*%
D16*
%TO.P,C11,1*%
%TO.N,+3.3V*%
X190862500Y-49500000D03*
%TO.P,C11,2*%
%TO.N,GND*%
X190862500Y-51575000D03*
%TD*%
D12*
%TO.P,C18,1*%
%TO.N,+3.3V*%
X167862500Y-78500000D03*
%TO.P,C18,2*%
%TO.N,GND*%
X166137500Y-78500000D03*
%TD*%
D15*
%TO.P,C27,1*%
%TO.N,+3.3V*%
X182412500Y-68500000D03*
%TO.P,C27,2*%
%TO.N,GND*%
X182412500Y-66775000D03*
%TD*%
D13*
%TO.P,R25,1*%
%TO.N,+3.3V*%
X157500000Y-78675000D03*
%TO.P,R25,2*%
%TO.N,Net-(U4-NRST)*%
X157500000Y-80500000D03*
%TD*%
D11*
%TO.P,R11,1*%
%TO.N,/fmu_mcu_power/D_BOOBT0_R*%
X167912500Y-61000000D03*
%TO.P,R11,2*%
%TO.N,GND*%
X166087500Y-61000000D03*
%TD*%
D12*
%TO.P,C15,1*%
%TO.N,+3.3V*%
X164362500Y-79500000D03*
%TO.P,C15,2*%
%TO.N,GND*%
X162637500Y-79500000D03*
%TD*%
D23*
%TO.P,U8,1,IN*%
%TO.N,Net-(D1-K)*%
X188500000Y-49600000D03*
%TO.P,U8,2,GND*%
%TO.N,GND*%
X188500000Y-50550000D03*
%TO.P,U8,3,EN*%
%TO.N,Net-(D1-K)*%
X188500000Y-51500000D03*
%TO.P,U8,4*%
%TO.N,N/C*%
X185990000Y-51500000D03*
%TO.P,U8,5,OUT*%
%TO.N,+3.3V*%
X185990000Y-49600000D03*
%TD*%
D19*
%TO.P,Q2,1,C*%
%TO.N,/IO_FMU/USART3_RX*%
X166500000Y-84860000D03*
D20*
%TO.P,Q2,2,B*%
%TO.N,Net-(J16-Pin_2)*%
X165230000Y-84860000D03*
%TO.P,Q2,3,E*%
%TO.N,GND*%
X163960000Y-84860000D03*
%TD*%
D24*
%TO.P,D11,1*%
%TO.N,Net-(J7-Pin_3)*%
X197475000Y-85100000D03*
%TO.P,D11,2*%
%TO.N,Net-(J7-Pin_2)*%
X197475000Y-87000000D03*
%TO.P,D11,3*%
%TO.N,GND*%
X195365000Y-86050000D03*
%TD*%
D11*
%TO.P,R16,1*%
%TO.N,+3.3V*%
X180810000Y-63330000D03*
%TO.P,R16,2*%
%TO.N,/fmu_mcu_power/I2C1_SCL*%
X178985000Y-63330000D03*
%TD*%
D22*
%TO.P,C25,1*%
%TO.N,Net-(U2-VCAP_1)*%
X186500000Y-76575000D03*
%TO.P,C25,2*%
%TO.N,GND*%
X186500000Y-74500000D03*
%TD*%
D25*
%TO.P,D3,1,K*%
%TO.N,Net-(D1-K)*%
X193500000Y-54500000D03*
%TO.P,D3,2,A*%
%TO.N,+5V*%
X189500000Y-54500000D03*
%TD*%
D26*
%TO.P,C47,1*%
%TO.N,+3.3V*%
X188775000Y-76000000D03*
%TO.P,C47,2*%
%TO.N,GND*%
X190500000Y-76000000D03*
%TD*%
D10*
%TO.P,R19,1*%
%TO.N,/fmu_mcu_power/VDD_5V_SENS*%
X173587500Y-71000000D03*
%TO.P,R19,2*%
%TO.N,+5V*%
X175412500Y-71000000D03*
%TD*%
D11*
%TO.P,R8,1*%
%TO.N,+3.3V*%
X180770000Y-61800000D03*
%TO.P,R8,2*%
%TO.N,/fmu_mcu_power/I2C1_SDA*%
X178945000Y-61800000D03*
%TD*%
D15*
%TO.P,C29,1*%
%TO.N,+3.3V*%
X183912500Y-68500000D03*
%TO.P,C29,2*%
%TO.N,GND*%
X183912500Y-66775000D03*
%TD*%
D10*
%TO.P,R40,1*%
%TO.N,+3.3V*%
X190587500Y-89500000D03*
%TO.P,R40,2*%
%TO.N,Net-(U9-Vref)*%
X192412500Y-89500000D03*
%TD*%
D15*
%TO.P,C30,1*%
%TO.N,+3.3V*%
X172892500Y-63000000D03*
%TO.P,C30,2*%
%TO.N,GND*%
X172892500Y-61275000D03*
%TD*%
D12*
%TO.P,C43,1*%
%TO.N,/fmu_mcu_power/3V3_EXTERNAL*%
X167862500Y-64000000D03*
%TO.P,C43,2*%
%TO.N,GND*%
X166137500Y-64000000D03*
%TD*%
D25*
%TO.P,D1,1,K*%
%TO.N,Net-(D1-K)*%
X186500000Y-54500000D03*
%TO.P,D1,2,A*%
%TO.N,/fmu_mcu_power/5V_USB*%
X182500000Y-54500000D03*
%TD*%
D11*
%TO.P,R12,1*%
%TO.N,Net-(R12-Pad1)*%
X167912500Y-62500000D03*
%TO.P,R12,2*%
%TO.N,/fmu_mcu_power/D_BOOBT0_R*%
X166087500Y-62500000D03*
%TD*%
D15*
%TO.P,C31,1*%
%TO.N,+3.3V*%
X174412500Y-63000000D03*
%TO.P,C31,2*%
%TO.N,GND*%
X174412500Y-61275000D03*
%TD*%
D12*
%TO.P,C17,1*%
%TO.N,+3.3V*%
X167862500Y-77000000D03*
%TO.P,C17,2*%
%TO.N,GND*%
X166137500Y-77000000D03*
%TD*%
D10*
%TO.P,R30,1*%
%TO.N,+5V*%
X172762500Y-88000000D03*
%TO.P,R30,2*%
%TO.N,/IO_FMU/USART3_RX*%
X174587500Y-88000000D03*
%TD*%
D14*
%TO.P,C45,1*%
%TO.N,+5V*%
X162575000Y-73000000D03*
%TO.P,C45,2*%
%TO.N,GND*%
X160500000Y-73000000D03*
%TD*%
D11*
%TO.P,R3,1*%
%TO.N,+3.3V*%
X184325000Y-63000000D03*
%TO.P,R3,2*%
%TO.N,/fmu_mcu_power/I2C4_SCL*%
X182500000Y-63000000D03*
%TD*%
D27*
%TO.N,+3.3V*%
X192480717Y-50611576D03*
D28*
X169470000Y-74064495D03*
X154970000Y-73920000D03*
D27*
X188303356Y-74037245D03*
D28*
X177967500Y-83250000D03*
X169403885Y-81751379D03*
X184310000Y-89000000D03*
D27*
X175573705Y-65120763D03*
X169000000Y-55500000D03*
D28*
X163849876Y-74579363D03*
D27*
X174211390Y-67675006D03*
D28*
X169460000Y-58890000D03*
D27*
X178103999Y-73224987D03*
D28*
X181513563Y-64800403D03*
X183727184Y-63947689D03*
D27*
X185221300Y-62330121D03*
%TO.N,GND*%
X161500000Y-73000000D03*
X184330000Y-78760000D03*
X174425256Y-71870000D03*
X186000000Y-75500000D03*
X173000000Y-81000000D03*
X179882498Y-71870000D03*
X163000000Y-77000000D03*
X194230000Y-86860000D03*
X157500000Y-76000000D03*
X169430645Y-72066733D03*
X184500000Y-54000000D03*
D28*
X173610000Y-60510000D03*
D27*
X158000000Y-67000000D03*
X191450000Y-77320000D03*
X185633061Y-85576629D03*
X170130000Y-73660000D03*
X190000000Y-50500000D03*
X160050000Y-81000000D03*
X167019962Y-79243585D03*
X178250000Y-65470000D03*
X181500000Y-52000000D03*
X175400000Y-60180000D03*
X159213848Y-73386154D03*
%TO.N,Net-(U4-NRST)*%
X156650000Y-79520000D03*
D28*
%TO.N,/fmu_mcu_power/D_NRST*%
X163605165Y-58292243D03*
X166680000Y-57970000D03*
D27*
%TO.N,/fmu_mcu_power/D_BOOBT0_R*%
X169220285Y-62392613D03*
D28*
X164230000Y-60250000D03*
D27*
X175840558Y-57900000D03*
%TO.N,Net-(U2-VCAP_1)*%
X186980000Y-77490000D03*
%TO.N,/fmu_mcu_power/VDDA*%
X171984804Y-57985935D03*
X172375502Y-70670000D03*
X176200000Y-63920000D03*
D28*
%TO.N,+5V*%
X170498668Y-91851000D03*
D27*
X193750000Y-65555343D03*
D28*
X165920000Y-68730000D03*
D27*
X165047069Y-71837567D03*
D28*
X174500000Y-70000000D03*
D27*
X188300000Y-53048729D03*
%TO.N,Net-(C37-Pad1)*%
X159312561Y-74333397D03*
X157100000Y-68760000D03*
%TO.N,/fmu_mcu_power/5V_USB*%
X184500000Y-55500000D03*
%TO.N,/fmu_mcu_power/EXTERNAL_CS1*%
X175692148Y-76250000D03*
X172043940Y-93842472D03*
%TO.N,Net-(D2-A)*%
X160290000Y-92890000D03*
%TO.N,Net-(D4-K)*%
X190780187Y-52662500D03*
%TO.N,Net-(D5-A)*%
X158060000Y-82730000D03*
%TO.N,Net-(D7-A)*%
X181120000Y-91680000D03*
%TO.N,Net-(D8-A)*%
X181575479Y-87469171D03*
%TO.N,Net-(D9-A)*%
X181384585Y-85634557D03*
%TO.N,Net-(J7-Pin_3)*%
X198460000Y-86140000D03*
%TO.N,Net-(J7-Pin_2)*%
X196290000Y-87560000D03*
X198650000Y-87660000D03*
%TO.N,/fmu_mcu_power/USART2_CTS*%
X180750440Y-57839417D03*
X189703297Y-60026176D03*
%TO.N,/fmu_mcu_power/USART2_TX*%
X181750000Y-63970000D03*
X180670000Y-60860834D03*
X189399513Y-71499018D03*
X185214661Y-63830000D03*
%TO.N,/fmu_mcu_power/USART2_RX*%
X189215126Y-67592573D03*
X180004164Y-61085125D03*
%TO.N,/fmu_mcu_power/USART2_RTS*%
X187850000Y-57680000D03*
X180190000Y-57420000D03*
%TO.N,/fmu_mcu_power/SPI3_MOSI*%
X179930274Y-65500000D03*
X168340000Y-96720000D03*
%TO.N,/fmu_mcu_power/SPI3_SCK*%
X178811500Y-57545309D03*
X188350000Y-83780000D03*
%TO.N,/fmu_mcu_power/EXTERNAL_CS2*%
X170840000Y-96530000D03*
X177143980Y-85463587D03*
%TO.N,/fmu_mcu_power/TIM1_CH4*%
X193912318Y-73097419D03*
X187702554Y-80388200D03*
%TO.N,/fmu_mcu_power/TIM4_CH3*%
X188201000Y-70932411D03*
X192820000Y-71062167D03*
%TO.N,/fmu_mcu_power/TIM1_CH3*%
X195036325Y-73173000D03*
%TO.N,/fmu_mcu_power/TIM4_CH2*%
X192524622Y-71709723D03*
X187942833Y-72085479D03*
%TO.N,/fmu_mcu_power/TIM2_CH1*%
X194351782Y-71906126D03*
X186891345Y-73099530D03*
%TO.N,/fmu_mcu_power/TIM2_CH2*%
X181135298Y-83209750D03*
X193710000Y-72390000D03*
X187750000Y-82530000D03*
X178651726Y-81300000D03*
D28*
%TO.N,/fmu_mcu_power/UART7_RX*%
X178230000Y-69920000D03*
D27*
X154260000Y-59650000D03*
%TO.N,/fmu_mcu_power/SWDIO*%
X189280000Y-61370000D03*
X154500000Y-58500000D03*
%TO.N,/fmu_mcu_power/SWDCLK*%
X186107042Y-58274524D03*
X155000000Y-57500000D03*
%TO.N,/fmu_mcu_power/UART7_TX*%
X154000000Y-61000000D03*
X179430733Y-75799454D03*
%TO.N,/fmu_mcu_power/UART5_RX*%
X181629080Y-53100000D03*
X168124999Y-50624999D03*
%TO.N,/fmu_mcu_power/TIM2_CH3*%
X172367699Y-72197355D03*
X160730000Y-52000000D03*
%TO.N,/fmu_mcu_power/UART5_TX*%
X169375001Y-50614999D03*
X180665000Y-53565000D03*
%TO.N,/fmu_mcu_power/3V3_EXTERNAL*%
X162299997Y-51949997D03*
%TO.N,/fmu_mcu_power/I2C1_SDA*%
X166230000Y-51820000D03*
X176003542Y-57167921D03*
X178676003Y-60770000D03*
%TO.N,/fmu_mcu_power/I2C1_SCL*%
X167450000Y-51650000D03*
X176979000Y-57386743D03*
X179818864Y-82967784D03*
X179930274Y-64615207D03*
%TO.N,/fmu_mcu_power/BATT_VOLTAGE_SENS*%
X178000000Y-52000000D03*
X176201366Y-65529357D03*
%TO.N,/fmu_mcu_power/BATT_CURRENT_SENS*%
X179000000Y-52000000D03*
X177480000Y-65132713D03*
%TO.N,/fmu_mcu_power/I2C4_SDA*%
X192340000Y-87060000D03*
X177962689Y-63287519D03*
%TO.N,/fmu_mcu_power/I2C4_SCL*%
X191511885Y-88030000D03*
X178225999Y-62546117D03*
D29*
%TO.N,/fmu_mcu_power/I2C2_SDA*%
X173220000Y-76810000D03*
D27*
X182550000Y-93580000D03*
X183529189Y-73266498D03*
%TO.N,/fmu_mcu_power/UART4_RX*%
X187859100Y-59136160D03*
X179600000Y-95180000D03*
%TO.N,/fmu_mcu_power/UART4_TX*%
X178820000Y-94780000D03*
X187134309Y-59510000D03*
%TO.N,/fmu_mcu_power/I2C2_SCL*%
X172526318Y-75883672D03*
X183025236Y-69426290D03*
X182899225Y-72787786D03*
X181749867Y-93549000D03*
%TO.N,/IO_FMU/TIM4_CH3*%
X154000000Y-83500000D03*
X155500000Y-69500000D03*
%TO.N,/IO_FMU/TIM4_CH4*%
X156500000Y-77500000D03*
X157269938Y-81530000D03*
%TO.N,/IO_FMU/TIM3_CH4*%
X155720000Y-90400000D03*
X160926340Y-86488737D03*
%TO.N,/IO_FMU/USART3_RX*%
X165900000Y-87510000D03*
X173500000Y-89170000D03*
%TO.N,/IO_FMU/SWDCLK*%
X163232222Y-58999998D03*
X169630000Y-72758417D03*
%TO.N,/IO_FMU/USART1_RX*%
X153850000Y-72000000D03*
%TO.N,/IO_FMU/USART1_TX*%
X169960000Y-83390000D03*
X153300000Y-73500000D03*
%TO.N,/IO_FMU/SWDIO*%
X155150000Y-71400000D03*
X160861570Y-80829612D03*
%TO.N,/IO_FMU/RCIN*%
X167001295Y-77778353D03*
%TO.N,Net-(Q1-B)*%
X174430000Y-88960000D03*
%TO.N,Net-(R12-Pad1)*%
X162710000Y-62670000D03*
X166997745Y-62939466D03*
%TO.N,Net-(U10-~{WP}{slash}IO_{2})*%
X191550000Y-74424000D03*
%TO.N,/fmu_mcu_power/VDD_5V_SENS*%
X173886615Y-73324856D03*
%TO.N,/fmu_mcu_power/SCALED_V3V3*%
X176353506Y-71879755D03*
%TO.N,/IO_FMU/D_BOOBT0_R*%
X158227180Y-79736080D03*
%TO.N,/IO_FMU/USART3_TX*%
X165880000Y-83620000D03*
%TO.N,/IO_FMU/RING_LED*%
X163090000Y-86500000D03*
X165150001Y-80228840D03*
D28*
%TO.N,/IO_FMU/AMBER_LED*%
X161662500Y-81995916D03*
X168690000Y-81290000D03*
D27*
%TO.N,/fmu_mcu_power/GPIO_LED_GREEN*%
X173925503Y-64725969D03*
X182301653Y-73235036D03*
%TO.N,/fmu_mcu_power/GPIO_LED_BLUE*%
X172375502Y-65066672D03*
X178070000Y-84230000D03*
%TO.N,/fmu_mcu_power/GPIO_LED_RED*%
X182000000Y-83207000D03*
%TO.N,Net-(U9-Vref)*%
X192630000Y-92948578D03*
%TO.N,/IMU/SPI1_MOSI*%
X177418254Y-77603216D03*
%TO.N,/IMU/DRDY1_ICM42688*%
X176350000Y-81300000D03*
X181649349Y-72923515D03*
%TO.N,/IMU/SPI1_SCK*%
X174633647Y-73258163D03*
%TO.N,/fmu_mcu_power/CAN1_RX*%
X182603549Y-60382832D03*
X191200000Y-83620000D03*
%TO.N,/fmu_mcu_power/SPI2_MISO*%
X190055450Y-77400000D03*
%TO.N,/fmu_mcu_power/BMI270_CS*%
X176313873Y-73200000D03*
X186257312Y-77753262D03*
%TO.N,/fmu_mcu_power/CAN1_TX*%
X190607435Y-82975284D03*
X183759790Y-61037280D03*
%TO.N,/IO_FMU/USART2_TX*%
X167008215Y-74414778D03*
%TO.N,/IO_FMU/USART2_RX*%
X161455927Y-81259975D03*
%TO.N,/IO_FMU/SAFETY_LED*%
X163250000Y-52250000D03*
X170830418Y-80409582D03*
%TD*%
D30*
%TO.N,+3.3V*%
X164262500Y-76000000D02*
X164262500Y-77900000D01*
D31*
X184325000Y-63000000D02*
X184812500Y-63000000D01*
X185220195Y-62331226D02*
X185221300Y-62330121D01*
X192500000Y-74529950D02*
X191905950Y-75124000D01*
X183855000Y-70460000D02*
X184094296Y-70220704D01*
D32*
X168037500Y-75000000D02*
X168037500Y-74275000D01*
D30*
X167862500Y-75175000D02*
X168037500Y-75000000D01*
D31*
X185147500Y-61520000D02*
X185220195Y-61592695D01*
D30*
X167862500Y-80000000D02*
X167862500Y-78500000D01*
D31*
X181239339Y-64790000D02*
X181030274Y-64580935D01*
X183912500Y-68500000D02*
X182412500Y-68500000D01*
X190562500Y-89525000D02*
X190587500Y-89500000D01*
D30*
X177275000Y-68500000D02*
X176317750Y-67542750D01*
D31*
X183905000Y-71970000D02*
X183905000Y-70510000D01*
X180810000Y-63330000D02*
X180810000Y-61840000D01*
X179412500Y-70500000D02*
X178912500Y-71000000D01*
X188810000Y-74220000D02*
X188775000Y-74185000D01*
X173275000Y-68518750D02*
X173367646Y-68518750D01*
X157500000Y-78675000D02*
X157500000Y-77190000D01*
X183855000Y-70460000D02*
X183750000Y-70355000D01*
X188775000Y-74185000D02*
X188557451Y-73967451D01*
X190862500Y-49500000D02*
X190266500Y-48904000D01*
X190862500Y-49500000D02*
X191974076Y-50611576D01*
X188775000Y-76000000D02*
X188810000Y-75965000D01*
D30*
X168651758Y-80000000D02*
X169403885Y-80752127D01*
D32*
X168248005Y-74064495D02*
X169470000Y-74064495D01*
X168037500Y-74275000D02*
X168248005Y-74064495D01*
D31*
X169000000Y-55500000D02*
X166412500Y-55500000D01*
D30*
X164262500Y-77900000D02*
X164362500Y-78000000D01*
D31*
X192500000Y-73500000D02*
X192500000Y-74529950D01*
D30*
X167862500Y-80000000D02*
X168651758Y-80000000D01*
D31*
X188810000Y-75965000D02*
X188810000Y-74220000D01*
D33*
X174412500Y-63000000D02*
X172892500Y-63000000D01*
D31*
X181030274Y-63550274D02*
X180810000Y-63330000D01*
X178912500Y-71000000D02*
X178425000Y-71000000D01*
X190266500Y-48904000D02*
X186686000Y-48904000D01*
X188557451Y-73967451D02*
X188373150Y-73967451D01*
D30*
X174343646Y-67542750D02*
X174211390Y-67675006D01*
D31*
X184812500Y-63000000D02*
X185220195Y-62592305D01*
X185220195Y-62592305D02*
X185220195Y-62331226D01*
D33*
X184325000Y-63349873D02*
X183727184Y-63947689D01*
D30*
X164262500Y-76000000D02*
X164262500Y-74991987D01*
D31*
X179412500Y-68500000D02*
X177275000Y-68500000D01*
X191905950Y-75124000D02*
X189714000Y-75124000D01*
X183905000Y-70510000D02*
X183855000Y-70460000D01*
X178425000Y-71000000D02*
X177994564Y-71430436D01*
X183912500Y-68500000D02*
X184131307Y-68718807D01*
X183750000Y-68662500D02*
X183912500Y-68500000D01*
D30*
X167862500Y-78500000D02*
X167862500Y-77000000D01*
X164262500Y-74991987D02*
X163849876Y-74579363D01*
D31*
X188373150Y-73967451D02*
X188303356Y-74037245D01*
X183750000Y-70355000D02*
X183750000Y-68662500D01*
X180810000Y-61840000D02*
X180770000Y-61800000D01*
D30*
X169403885Y-80752127D02*
X169403885Y-81751379D01*
D33*
X184325000Y-63000000D02*
X184325000Y-63349873D01*
D31*
X190562500Y-91000000D02*
X190562500Y-89525000D01*
D30*
X176317750Y-67542750D02*
X174343646Y-67542750D01*
D33*
X174412500Y-63000000D02*
X174412500Y-63959558D01*
D31*
X184660000Y-61520000D02*
X185147500Y-61520000D01*
X181030274Y-64580935D02*
X181030274Y-63550274D01*
X179412500Y-68500000D02*
X179412500Y-70500000D01*
D30*
X186500000Y-91000000D02*
X184500000Y-89000000D01*
D31*
X185220195Y-62329016D02*
X185221300Y-62330121D01*
D30*
X167862500Y-77000000D02*
X167862500Y-75175000D01*
D31*
X180912500Y-68500000D02*
X179412500Y-68500000D01*
D33*
X181513563Y-64790000D02*
X181513563Y-64800403D01*
D31*
X173367646Y-68518750D02*
X174211390Y-67675006D01*
X186686000Y-48904000D02*
X185990000Y-49600000D01*
X157500000Y-77190000D02*
X154970000Y-74660000D01*
X186500000Y-91000000D02*
X190562500Y-91000000D01*
D33*
X174412500Y-63959558D02*
X175573705Y-65120763D01*
D31*
X182412500Y-68500000D02*
X180912500Y-68500000D01*
X185220195Y-61592695D02*
X185220195Y-62329016D01*
X154970000Y-74660000D02*
X154970000Y-73920000D01*
D30*
X184500000Y-89000000D02*
X184310000Y-89000000D01*
D31*
X191974076Y-50611576D02*
X192480717Y-50611576D01*
X177994564Y-73115552D02*
X178103999Y-73224987D01*
X189714000Y-75124000D02*
X188775000Y-74185000D01*
D30*
X164362500Y-78000000D02*
X164362500Y-79500000D01*
D31*
X177994564Y-71430436D02*
X177994564Y-73115552D01*
%TO.N,GND*%
X182412500Y-66775000D02*
X183912500Y-66775000D01*
D32*
X172892500Y-61227500D02*
X173610000Y-60510000D01*
D31*
X166087500Y-61000000D02*
X163425000Y-61000000D01*
X166137500Y-80475000D02*
X165594174Y-81018326D01*
D30*
X168000000Y-73000000D02*
X168980000Y-73000000D01*
D31*
X177275000Y-66425000D02*
X179062500Y-66425000D01*
X166137500Y-78500000D02*
X166137500Y-77000000D01*
X186000000Y-75000000D02*
X186500000Y-74500000D01*
X180912500Y-66775000D02*
X182412500Y-66775000D01*
X162637500Y-79975000D02*
X162637500Y-79500000D01*
X195040000Y-86050000D02*
X194230000Y-86860000D01*
X166137500Y-64382500D02*
X166137500Y-64000000D01*
X178912500Y-72500000D02*
X179400000Y-72500000D01*
X177275000Y-66425000D02*
X175293750Y-66425000D01*
X162637500Y-79500000D02*
X162637500Y-78000000D01*
D30*
X173312500Y-66406250D02*
X173275000Y-66443750D01*
D31*
X175275000Y-66406250D02*
X173312500Y-66406250D01*
X166137500Y-75175000D02*
X165962500Y-75000000D01*
X177275000Y-66425000D02*
X178000000Y-66425000D01*
X190000000Y-50500000D02*
X190000000Y-50712500D01*
X184425000Y-92048106D02*
X184124106Y-92349000D01*
D30*
X169995455Y-73660000D02*
X170130000Y-73660000D01*
D31*
X163000000Y-77000000D02*
X163000000Y-76812500D01*
X166137500Y-80000000D02*
X166137500Y-78500000D01*
D32*
X172892500Y-61275000D02*
X172892500Y-61227500D01*
D31*
X163000000Y-77637500D02*
X162637500Y-78000000D01*
X195365000Y-86050000D02*
X195040000Y-86050000D01*
X165199000Y-61888500D02*
X166087500Y-61000000D01*
X174412500Y-61167500D02*
X175400000Y-60180000D01*
X174412500Y-61275000D02*
X174412500Y-61167500D01*
X165199000Y-63061500D02*
X165199000Y-61888500D01*
X160500000Y-73000000D02*
X159600002Y-73000000D01*
X174425256Y-72000256D02*
X174425256Y-71870000D01*
X166415444Y-80000000D02*
X166957722Y-79457722D01*
X168000000Y-66245000D02*
X166137500Y-64382500D01*
X165594174Y-81018326D02*
X163680826Y-81018326D01*
X179062500Y-66425000D02*
X179412500Y-66775000D01*
X190862500Y-51575000D02*
X192925000Y-51575000D01*
X178250000Y-66175000D02*
X178250000Y-65470000D01*
X196500000Y-92500000D02*
X196500000Y-92250000D01*
X190500000Y-76370000D02*
X191450000Y-77320000D01*
X188550000Y-50500000D02*
X188500000Y-50550000D01*
X166137500Y-77000000D02*
X166137500Y-75175000D01*
X190000000Y-50500000D02*
X188550000Y-50500000D01*
X192925000Y-51575000D02*
X193000000Y-51500000D01*
X163000000Y-77000000D02*
X163000000Y-77637500D01*
D30*
X168980000Y-73000000D02*
X169344495Y-73364495D01*
X168000000Y-73000000D02*
X168497378Y-73000000D01*
D31*
X174925000Y-72500000D02*
X174425256Y-72000256D01*
X182437500Y-52000000D02*
X182862500Y-51575000D01*
X166137500Y-64000000D02*
X165199000Y-63061500D01*
X163425000Y-61000000D02*
X160425000Y-64000000D01*
X159000000Y-80500000D02*
X159550000Y-80500000D01*
X190500000Y-76000000D02*
X190500000Y-76370000D01*
D30*
X169344495Y-73364495D02*
X169699950Y-73364495D01*
D31*
X159550000Y-80500000D02*
X160050000Y-81000000D01*
D30*
X168497378Y-73000000D02*
X169430645Y-72066733D01*
X169699950Y-73364495D02*
X169995455Y-73660000D01*
D31*
X163680826Y-81018326D02*
X162637500Y-79975000D01*
X184425000Y-91000000D02*
X184425000Y-92048106D01*
X186000000Y-75500000D02*
X186000000Y-75000000D01*
X163000000Y-76812500D02*
X162187500Y-76000000D01*
X179412500Y-66775000D02*
X180912500Y-66775000D01*
X175293750Y-66425000D02*
X175275000Y-66406250D01*
X179400000Y-72500000D02*
X179882498Y-72017502D01*
X179882498Y-72017502D02*
X179882498Y-71870000D01*
X162637500Y-79500000D02*
X162915444Y-79500000D01*
X174412500Y-61275000D02*
X172892500Y-61275000D01*
X178000000Y-66425000D02*
X178250000Y-66175000D01*
X196500000Y-92250000D02*
X195750000Y-91500000D01*
X190000000Y-50712500D02*
X190862500Y-51575000D01*
X166137500Y-80000000D02*
X166415444Y-80000000D01*
X175412500Y-72500000D02*
X174925000Y-72500000D01*
X159600002Y-73000000D02*
X159213848Y-73386154D01*
X166137500Y-80000000D02*
X166137500Y-80475000D01*
X181500000Y-52000000D02*
X182437500Y-52000000D01*
D32*
%TO.N,Net-(C8-Pad1)*%
X195650000Y-90000000D02*
X197150000Y-91500000D01*
X197475000Y-88500000D02*
X197150000Y-88500000D01*
X197150000Y-91500000D02*
X197475000Y-91500000D01*
X197150000Y-88500000D02*
X195650000Y-90000000D01*
%TO.N,Net-(D1-K)*%
X187299001Y-50196000D02*
X187895001Y-49600000D01*
X188500000Y-51500000D02*
X188206638Y-51500000D01*
X183558500Y-50196000D02*
X187299001Y-50196000D01*
X182862500Y-49500000D02*
X183558500Y-50196000D01*
X188206638Y-51500000D02*
X187299001Y-50592363D01*
X187895001Y-49600000D02*
X188500000Y-49600000D01*
X190299000Y-53299000D02*
X192299000Y-53299000D01*
X192299000Y-53299000D02*
X193500000Y-54500000D01*
X186500000Y-53500000D02*
X186500000Y-54500000D01*
X187299001Y-50592363D02*
X187299001Y-50196000D01*
X188500000Y-51500000D02*
X190299000Y-53299000D01*
X188500000Y-51500000D02*
X186500000Y-53500000D01*
%TO.N,Net-(U4-NRST)*%
X156650000Y-79520000D02*
X156650000Y-79650000D01*
X156650000Y-79650000D02*
X157500000Y-80500000D01*
%TO.N,/fmu_mcu_power/D_NRST*%
X163605165Y-58292243D02*
X166357757Y-58292243D01*
X166357757Y-58292243D02*
X166680000Y-57970000D01*
X164587500Y-55500000D02*
X164587500Y-57309908D01*
X164587500Y-57309908D02*
X163605165Y-58292243D01*
%TO.N,/fmu_mcu_power/D_BOOBT0_R*%
X169220285Y-62020285D02*
X169220285Y-62392613D01*
X168200000Y-61000000D02*
X169220285Y-62020285D01*
X167912500Y-61000000D02*
X167136500Y-60224000D01*
D31*
X166087500Y-62500000D02*
X166412500Y-62500000D01*
D32*
X167136500Y-60224000D02*
X164256000Y-60224000D01*
D31*
X166412500Y-62500000D02*
X167912500Y-61000000D01*
D32*
X164256000Y-60224000D02*
X164230000Y-60250000D01*
X167912500Y-61000000D02*
X168200000Y-61000000D01*
%TO.N,Net-(U2-VCAP_1)*%
X186500000Y-76575000D02*
X186500000Y-77010000D01*
X186500000Y-77010000D02*
X186980000Y-77490000D01*
%TO.N,/fmu_mcu_power/VDDA*%
X175161500Y-62161500D02*
X172473366Y-62161500D01*
X174152750Y-69407250D02*
X173912750Y-69407250D01*
X175078750Y-68481250D02*
X174152750Y-69407250D01*
X176000000Y-63000000D02*
X176000000Y-63720000D01*
X172650000Y-70670000D02*
X172375502Y-70670000D01*
X172080000Y-58139210D02*
X171984804Y-58044014D01*
X176000000Y-63000000D02*
X175161500Y-62161500D01*
X176000000Y-63720000D02*
X176200000Y-63920000D01*
X172080000Y-61768134D02*
X172080000Y-58139210D01*
X175275000Y-68481250D02*
X175078750Y-68481250D01*
X172473366Y-62161500D02*
X172080000Y-61768134D01*
X173912750Y-69407250D02*
X172650000Y-70670000D01*
X171984804Y-58044014D02*
X171984804Y-57985935D01*
D33*
%TO.N,+5V*%
X172275000Y-88000000D02*
X170541388Y-89733612D01*
D30*
X165044475Y-71905683D02*
X165044475Y-71840161D01*
X166138792Y-73000000D02*
X165044475Y-71905683D01*
D33*
X189500000Y-54500000D02*
X189500000Y-54248729D01*
D30*
X165044475Y-71840161D02*
X165047069Y-71837567D01*
D32*
X166275000Y-73000000D02*
X166138792Y-73000000D01*
D33*
X165925000Y-68730000D02*
X165920000Y-68730000D01*
X166275000Y-73000000D02*
X162575000Y-73000000D01*
X168000000Y-71275000D02*
X166275000Y-73000000D01*
X170541388Y-89733612D02*
X170541388Y-91808280D01*
X168000000Y-70805000D02*
X168000000Y-71275000D01*
X167647668Y-89000000D02*
X170498668Y-91851000D01*
X174500000Y-70000000D02*
X174500000Y-70087500D01*
X166000000Y-89000000D02*
X167647668Y-89000000D01*
X168000000Y-70805000D02*
X165925000Y-68730000D01*
X174500000Y-70087500D02*
X175412500Y-71000000D01*
X189500000Y-54248729D02*
X188300000Y-53048729D01*
X170541388Y-91808280D02*
X170498668Y-91851000D01*
X172762500Y-88000000D02*
X172275000Y-88000000D01*
D31*
%TO.N,/fmu_mcu_power/5V_USB*%
X184500000Y-55500000D02*
X183500000Y-54500000D01*
X183500000Y-54500000D02*
X182500000Y-54500000D01*
D32*
%TO.N,/fmu_mcu_power/EXTERNAL_CS1*%
X172478848Y-93842472D02*
X175776000Y-90545319D01*
X172043940Y-93842472D02*
X172478848Y-93842472D01*
X175776000Y-90545319D02*
X175776000Y-76333852D01*
X175776000Y-76333852D02*
X175692148Y-76250000D01*
D30*
%TO.N,Net-(D2-A)*%
X160290000Y-90683654D02*
X161500000Y-89473654D01*
X160290000Y-92890000D02*
X160290000Y-90683654D01*
X161500000Y-89473654D02*
X161500000Y-88975000D01*
D32*
%TO.N,Net-(D4-K)*%
X193000000Y-49675000D02*
X193776000Y-50451000D01*
X193776000Y-50451000D02*
X193776000Y-51979634D01*
X193046202Y-52709432D02*
X190827119Y-52709432D01*
X193776000Y-51979634D02*
X193046202Y-52709432D01*
X190827119Y-52709432D02*
X190780187Y-52662500D01*
%TO.N,Net-(D5-A)*%
X159317500Y-82730000D02*
X158060000Y-82730000D01*
X161500000Y-84912500D02*
X159317500Y-82730000D01*
%TO.N,Net-(D7-A)*%
X180075000Y-89500000D02*
X180075000Y-90635000D01*
X180075000Y-90635000D02*
X181120000Y-91680000D01*
%TO.N,Net-(D8-A)*%
X180100000Y-86500000D02*
X180606308Y-86500000D01*
X180606308Y-86500000D02*
X181575479Y-87469171D01*
%TO.N,Net-(D9-A)*%
X180200000Y-84000000D02*
X181384585Y-85184585D01*
X181384585Y-85184585D02*
X181384585Y-85634557D01*
%TO.N,Net-(J7-Pin_3)*%
X198460000Y-86140000D02*
X198460000Y-86085000D01*
X197150000Y-85100000D02*
X196655000Y-85595000D01*
X197475000Y-85100000D02*
X197150000Y-85100000D01*
X196655000Y-86395000D02*
X195650000Y-87400000D01*
X196655000Y-85595000D02*
X196655000Y-86395000D01*
X198460000Y-86085000D02*
X197475000Y-85100000D01*
X195650000Y-87400000D02*
X195650000Y-88500000D01*
%TO.N,Net-(J7-Pin_2)*%
X198650000Y-87660000D02*
X198650000Y-88825000D01*
X197475000Y-87000000D02*
X197150000Y-87000000D01*
X198650000Y-87660000D02*
X198135000Y-87660000D01*
X197150000Y-87000000D02*
X196590000Y-87560000D01*
X198135000Y-87660000D02*
X197475000Y-87000000D01*
X198650000Y-88825000D02*
X197475000Y-90000000D01*
X196590000Y-87560000D02*
X196290000Y-87560000D01*
%TO.N,/fmu_mcu_power/USART2_CTS*%
X185631258Y-59300000D02*
X186495780Y-59300000D01*
X189597646Y-60026176D02*
X189703297Y-60026176D01*
X184248586Y-57917328D02*
X185631258Y-59300000D01*
X186885780Y-58910000D02*
X186957601Y-58910000D01*
X186957601Y-58910000D02*
X187427600Y-58440000D01*
X180845925Y-57917328D02*
X184248586Y-57917328D01*
X180768014Y-57839417D02*
X180845925Y-57917328D01*
X187427600Y-58440000D02*
X188011470Y-58440000D01*
X188011470Y-58440000D02*
X189597646Y-60026176D01*
X180750440Y-57839417D02*
X180768014Y-57839417D01*
X186495780Y-59300000D02*
X186885780Y-58910000D01*
%TO.N,/fmu_mcu_power/USART2_TX*%
X191049594Y-69848937D02*
X189399513Y-71499018D01*
X181644500Y-61418866D02*
X181086468Y-60860834D01*
X185214661Y-63830000D02*
X187468628Y-63830000D01*
X181644500Y-63864500D02*
X181644500Y-61418866D01*
X181750000Y-63970000D02*
X181644500Y-63864500D01*
X187468628Y-63830000D02*
X191049594Y-67410966D01*
X191049594Y-67410966D02*
X191049594Y-69848937D01*
X181086468Y-60860834D02*
X180670000Y-60860834D01*
%TO.N,/fmu_mcu_power/USART2_RX*%
X189207699Y-67600000D02*
X186611472Y-67600000D01*
X180935846Y-65536500D02*
X180490000Y-65090654D01*
X179981500Y-61107789D02*
X180004164Y-61085125D01*
X184547972Y-65536500D02*
X180935846Y-65536500D01*
X186611472Y-67600000D02*
X184547972Y-65536500D01*
X189215126Y-67592573D02*
X189207699Y-67600000D01*
X179981500Y-63817904D02*
X179981500Y-61107789D01*
X180490000Y-64326404D02*
X179981500Y-63817904D01*
X180490000Y-65090654D02*
X180490000Y-64326404D01*
%TO.N,/fmu_mcu_power/USART2_RTS*%
X184146943Y-57250000D02*
X180551471Y-57250000D01*
X187621915Y-57680000D02*
X186791915Y-58510000D01*
X186720094Y-58510000D02*
X186330095Y-58900000D01*
X186791915Y-58510000D02*
X186720094Y-58510000D01*
X187850000Y-57680000D02*
X187621915Y-57680000D01*
X180381471Y-57420000D02*
X180190000Y-57420000D01*
X180551471Y-57250000D02*
X180381471Y-57420000D01*
X186330095Y-58900000D02*
X185796943Y-58900000D01*
X185796943Y-58900000D02*
X184146943Y-57250000D01*
%TO.N,/fmu_mcu_power/SPI3_MOSI*%
X191376000Y-92614000D02*
X191376000Y-88926000D01*
X175490000Y-94180000D02*
X189810000Y-94180000D01*
X185630000Y-83180000D02*
X185630000Y-79231372D01*
X184691152Y-66245366D02*
X184688500Y-66245366D01*
X168730000Y-97110000D02*
X172560000Y-97110000D01*
X191376000Y-88926000D02*
X185630000Y-83180000D01*
X184400000Y-78001372D02*
X184400000Y-72744315D01*
X185777865Y-67332079D02*
X184691152Y-66245366D01*
X185630000Y-79231372D02*
X184400000Y-78001372D01*
X189810000Y-94180000D02*
X191376000Y-92614000D01*
X184400000Y-72744315D02*
X185777865Y-71366450D01*
X168340000Y-96720000D02*
X168730000Y-97110000D01*
X185777865Y-71366450D02*
X185777865Y-67332079D01*
X180366774Y-65936500D02*
X179930274Y-65500000D01*
X184688500Y-66245366D02*
X184379634Y-65936500D01*
X172560000Y-97110000D02*
X175490000Y-94180000D01*
X184379634Y-65936500D02*
X180366774Y-65936500D01*
%TO.N,/fmu_mcu_power/SPI3_SCK*%
X191513387Y-84466613D02*
X189036613Y-84466613D01*
X184251003Y-58610000D02*
X185317003Y-59676000D01*
X188930106Y-63151000D02*
X196436325Y-70657219D01*
X178811500Y-57545309D02*
X179876191Y-58610000D01*
X189036613Y-84466613D02*
X188350000Y-83780000D01*
X185441571Y-59676000D02*
X188916571Y-63151000D01*
X179876191Y-58610000D02*
X184251003Y-58610000D01*
X196436325Y-79543675D02*
X191513387Y-84466613D01*
X185317003Y-59676000D02*
X185441571Y-59676000D01*
X196436325Y-70657219D02*
X196436325Y-79543675D01*
X188916571Y-63151000D02*
X188930106Y-63151000D01*
%TO.N,/fmu_mcu_power/EXTERNAL_CS2*%
X177143980Y-85463587D02*
X177143980Y-90226020D01*
X177143980Y-90226020D02*
X170840000Y-96530000D01*
%TO.N,/fmu_mcu_power/TIM1_CH4*%
X193920000Y-77700000D02*
X193920000Y-73105101D01*
X191231800Y-80388200D02*
X193920000Y-77700000D01*
X187702554Y-80388200D02*
X191231800Y-80388200D01*
X193920000Y-73105101D02*
X193912318Y-73097419D01*
%TO.N,/fmu_mcu_power/TIM1_CH2*%
X198200000Y-77212931D02*
X198193623Y-77219308D01*
%TO.N,/fmu_mcu_power/TIM4_CH3*%
X190707833Y-71062167D02*
X189670982Y-72099018D01*
X192820000Y-71062167D02*
X190707833Y-71062167D01*
X189670982Y-72099018D02*
X188941960Y-72099018D01*
X188941960Y-72099018D02*
X188201000Y-71358058D01*
X188201000Y-71358058D02*
X188201000Y-70932411D01*
%TO.N,/fmu_mcu_power/TIM4_CH2*%
X191934345Y-72300000D02*
X192524622Y-71709723D01*
X189854662Y-72499018D02*
X190053681Y-72300000D01*
X188356372Y-72499018D02*
X189854662Y-72499018D01*
X187942833Y-72085479D02*
X188356372Y-72499018D01*
X190053681Y-72300000D02*
X191934345Y-72300000D01*
%TO.N,/fmu_mcu_power/TIM2_CH1*%
X194351782Y-71906126D02*
X194235656Y-71790000D01*
X190219366Y-72700000D02*
X189819836Y-73099530D01*
X192400544Y-72700000D02*
X190219366Y-72700000D01*
X194235656Y-71790000D02*
X193310544Y-71790000D01*
X189819836Y-73099530D02*
X186891345Y-73099530D01*
X193310544Y-71790000D02*
X192400544Y-72700000D01*
%TO.N,/fmu_mcu_power/TIM2_CH2*%
X193830000Y-72510000D02*
X193710000Y-72390000D01*
X179947784Y-82367784D02*
X178880000Y-81300000D01*
X180067393Y-82367784D02*
X179947784Y-82367784D01*
X180920000Y-83340000D02*
X180418864Y-82838864D01*
X180418864Y-82719255D02*
X180067393Y-82367784D01*
X194173428Y-72510000D02*
X193830000Y-72510000D01*
X194476547Y-72813119D02*
X194173428Y-72510000D01*
X190205287Y-82530000D02*
X194476547Y-78258740D01*
X194476547Y-78258740D02*
X194476547Y-72813119D01*
X181005048Y-83340000D02*
X180920000Y-83340000D01*
X181135298Y-83209750D02*
X181005048Y-83340000D01*
X178880000Y-81300000D02*
X178651726Y-81300000D01*
X180418864Y-82838864D02*
X180418864Y-82719255D01*
X187750000Y-82530000D02*
X190205287Y-82530000D01*
%TO.N,/fmu_mcu_power/SWDIO*%
X193475686Y-47910000D02*
X195560000Y-49994314D01*
X154449000Y-58449000D02*
X154449000Y-55204668D01*
X154449000Y-55204668D02*
X161743668Y-47910000D01*
X191320000Y-61370000D02*
X189280000Y-61370000D01*
X161743668Y-47910000D02*
X193475686Y-47910000D01*
X154500000Y-58500000D02*
X154449000Y-58449000D01*
X195560000Y-49994314D02*
X195560000Y-57130000D01*
X195560000Y-57130000D02*
X191320000Y-61370000D01*
%TO.N,/fmu_mcu_power/SWDCLK*%
X193350000Y-48350000D02*
X195040000Y-50040000D01*
X192520000Y-48350000D02*
X193350000Y-48350000D01*
X155000000Y-55220768D02*
X161830768Y-48390000D01*
X194410000Y-56680000D02*
X187576267Y-56680000D01*
X161830768Y-48390000D02*
X192480000Y-48390000D01*
X192480000Y-48390000D02*
X192520000Y-48350000D01*
X195040000Y-53603840D02*
X195070000Y-53633840D01*
X195070000Y-56020000D02*
X194410000Y-56680000D01*
X195040000Y-50040000D02*
X195040000Y-53603840D01*
X195070000Y-53633840D02*
X195070000Y-56020000D01*
X155000000Y-57500000D02*
X155000000Y-55220768D01*
X187576267Y-56680000D02*
X186107042Y-58149225D01*
X186107042Y-58149225D02*
X186107042Y-58274524D01*
%TO.N,/fmu_mcu_power/UART7_TX*%
X156449000Y-72699000D02*
X161500000Y-77750000D01*
X174560000Y-80900000D02*
X174560000Y-76100000D01*
X174560000Y-76100000D02*
X174960000Y-75700000D01*
X176110000Y-75690000D02*
X179259632Y-75690000D01*
X154000000Y-61000000D02*
X156449000Y-63449000D01*
X173058621Y-82401379D02*
X174560000Y-80900000D01*
X161500000Y-77750000D02*
X161500000Y-79668134D01*
X174960000Y-75700000D02*
X176100000Y-75700000D01*
X179259632Y-75690000D02*
X179430733Y-75861101D01*
X164233245Y-82401379D02*
X173058621Y-82401379D01*
X176100000Y-75700000D02*
X176110000Y-75690000D01*
X161500000Y-79668134D02*
X164233245Y-82401379D01*
X156449000Y-63449000D02*
X156449000Y-72699000D01*
X179430733Y-75861101D02*
X179430733Y-75799454D01*
%TO.N,/fmu_mcu_power/UART5_RX*%
X168850998Y-49899000D02*
X168124999Y-50624999D01*
X178428080Y-49899000D02*
X168850998Y-49899000D01*
X181629080Y-53100000D02*
X178428080Y-49899000D01*
%TO.N,/fmu_mcu_power/TIM2_CH3*%
X170859409Y-56580177D02*
X170859409Y-57845931D01*
X160730000Y-52000000D02*
X161331003Y-51398997D01*
X163567131Y-51398997D02*
X167117134Y-54949000D01*
X169228232Y-54949000D02*
X170859409Y-56580177D01*
X167117134Y-54949000D02*
X169228232Y-54949000D01*
X170859409Y-57845931D02*
X171600000Y-58586522D01*
X171600000Y-71429656D02*
X172367699Y-72197355D01*
X161331003Y-51398997D02*
X163567131Y-51398997D01*
X171600000Y-58586522D02*
X171600000Y-71429656D01*
%TO.N,/fmu_mcu_power/UART5_TX*%
X180665000Y-52885768D02*
X178394231Y-50614999D01*
X180665000Y-53565000D02*
X180665000Y-52885768D01*
X178394231Y-50614999D02*
X169375001Y-50614999D01*
D31*
%TO.N,/fmu_mcu_power/3V3_EXTERNAL*%
X168000000Y-68525000D02*
X170169238Y-66355762D01*
X162979000Y-67246000D02*
X166721000Y-67246000D01*
X162299997Y-60384923D02*
X159436500Y-63248420D01*
X161700000Y-68525000D02*
X161700000Y-64800000D01*
X168400000Y-64000000D02*
X167862500Y-64000000D01*
X170169238Y-66355762D02*
X170169238Y-65769238D01*
X161700000Y-64800000D02*
X162500000Y-64000000D01*
X159436500Y-66261500D02*
X161700000Y-68525000D01*
X161700000Y-68525000D02*
X162979000Y-67246000D01*
X170169238Y-65769238D02*
X168400000Y-64000000D01*
X162299997Y-51949997D02*
X162299997Y-60384923D01*
X159436500Y-63248420D02*
X159436500Y-66261500D01*
X166721000Y-67246000D02*
X168000000Y-68525000D01*
D32*
%TO.N,/fmu_mcu_power/I2C1_SDA*%
X166611000Y-52201000D02*
X170691000Y-52201000D01*
X170691000Y-52201000D02*
X175657921Y-57167921D01*
X178945000Y-61800000D02*
X178945000Y-61038997D01*
X178945000Y-61038997D02*
X178676003Y-60770000D01*
X166230000Y-51820000D02*
X166611000Y-52201000D01*
X175657921Y-57167921D02*
X176003542Y-57167921D01*
%TO.N,/fmu_mcu_power/I2C1_SCL*%
X175937921Y-56567921D02*
X176252071Y-56567921D01*
X176756743Y-57386743D02*
X176979000Y-57386743D01*
X171020000Y-51650000D02*
X175937921Y-56567921D01*
X167450000Y-51650000D02*
X171020000Y-51650000D01*
X178985000Y-63330000D02*
X178985000Y-63844336D01*
X179755871Y-64615207D02*
X179930274Y-64615207D01*
X176603542Y-57233542D02*
X176756743Y-57386743D01*
X176603542Y-56919392D02*
X176603542Y-57233542D01*
X178985000Y-63844336D02*
X179755871Y-64615207D01*
X176252071Y-56567921D02*
X176603542Y-56919392D01*
D34*
%TO.N,/fmu_mcu_power/BATT_VOLTAGE_SENS*%
X177576000Y-52424000D02*
X178000000Y-52000000D01*
X176201366Y-65529357D02*
X176314594Y-65529357D01*
X176801000Y-59706580D02*
X177576000Y-58931580D01*
X176801000Y-65042951D02*
X176801000Y-59706580D01*
X177576000Y-58931580D02*
X177576000Y-52424000D01*
X176314594Y-65529357D02*
X176801000Y-65042951D01*
%TO.N,/fmu_mcu_power/BATT_CURRENT_SENS*%
X178186500Y-52813500D02*
X178186500Y-59062041D01*
X178186500Y-59062041D02*
X177251000Y-59997541D01*
X177251000Y-64903713D02*
X177480000Y-65132713D01*
X177251000Y-59997541D02*
X177251000Y-64903713D01*
X179000000Y-52000000D02*
X178186500Y-52813500D01*
D32*
%TO.N,/fmu_mcu_power/I2C4_SDA*%
X192340000Y-87060000D02*
X190675685Y-87060000D01*
X182500000Y-61121550D02*
X180628450Y-59250000D01*
X182500000Y-61500000D02*
X182500000Y-61121550D01*
X190675685Y-87060000D02*
X190595685Y-86980000D01*
X190215126Y-67178358D02*
X190049000Y-67012232D01*
X183040000Y-63715634D02*
X183330000Y-63425634D01*
X177676000Y-62881654D02*
X177962689Y-63168343D01*
X177676000Y-60173582D02*
X177676000Y-62881654D01*
X187549926Y-70586184D02*
X187901397Y-70234713D01*
X190595685Y-86980000D02*
X190561372Y-86980000D01*
X186500000Y-78852058D02*
X185260000Y-77612058D01*
X185260000Y-77612058D02*
X185260000Y-73017101D01*
X180628450Y-59250000D02*
X178599582Y-59250000D01*
X187901397Y-70234713D02*
X188042388Y-70234713D01*
X187549926Y-70727175D02*
X187549926Y-70586184D01*
X185260000Y-73017101D02*
X187549926Y-70727175D01*
X177962689Y-63168343D02*
X177962689Y-63287519D01*
X186500000Y-82918628D02*
X186500000Y-78852058D01*
X183330000Y-62015000D02*
X182835000Y-61520000D01*
X190049000Y-68228101D02*
X190049000Y-68172913D01*
X190049000Y-67012232D02*
X190049000Y-66976058D01*
X178599582Y-59250000D02*
X177676000Y-60173582D01*
X183349945Y-64590000D02*
X183040000Y-64280055D01*
X190049000Y-66976058D02*
X187662942Y-64590000D01*
X188042388Y-70234713D02*
X190049000Y-68228101D01*
X190049000Y-68172913D02*
X190215126Y-68006787D01*
X190215126Y-68006787D02*
X190215126Y-67178358D01*
X190561372Y-86980000D02*
X186500000Y-82918628D01*
X183040000Y-64280055D02*
X183040000Y-63715634D01*
X187662942Y-64590000D02*
X183349945Y-64590000D01*
X183330000Y-63425634D02*
X183330000Y-62015000D01*
%TO.N,/fmu_mcu_power/I2C4_SCL*%
X189649000Y-68007228D02*
X189649000Y-68061000D01*
X181339000Y-60527650D02*
X182044500Y-61233150D01*
X186060000Y-79095686D02*
X186060000Y-83044314D01*
X189649000Y-68061000D02*
X187875287Y-69834713D01*
X178125000Y-62080783D02*
X178125999Y-62079784D01*
X187149926Y-70420499D02*
X187149926Y-70560074D01*
X184860000Y-77895686D02*
X186060000Y-79095686D01*
X178125999Y-60290684D02*
X178766683Y-59650000D01*
X180460000Y-59650000D02*
X181337650Y-60527650D01*
X178225999Y-62546117D02*
X178189158Y-62546117D01*
X187875287Y-69834713D02*
X187735711Y-69834713D01*
X189463655Y-66992573D02*
X189815126Y-67344044D01*
X187735711Y-69834713D02*
X187149926Y-70420499D01*
X182500000Y-64307155D02*
X183290924Y-65098079D01*
X189815126Y-67841102D02*
X189649000Y-68007228D01*
X184860000Y-72850000D02*
X184860000Y-77895686D01*
X182044500Y-61233150D02*
X182044500Y-62544500D01*
X178766683Y-59650000D02*
X180460000Y-59650000D01*
X178125000Y-62481959D02*
X178125000Y-62080783D01*
X182500000Y-63000000D02*
X182500000Y-64307155D01*
X187149926Y-70560074D02*
X184860000Y-72850000D01*
X189815126Y-67344044D02*
X189815126Y-67841102D01*
X189345615Y-66992573D02*
X189463655Y-66992573D01*
X186060000Y-83044314D02*
X191045686Y-88030000D01*
X187451121Y-65098079D02*
X189345615Y-66992573D01*
X178125999Y-62079784D02*
X178125999Y-60290684D01*
X182044500Y-62544500D02*
X182500000Y-63000000D01*
X183290924Y-65098079D02*
X187451121Y-65098079D01*
X191045686Y-88030000D02*
X191511885Y-88030000D01*
X178189158Y-62546117D02*
X178125000Y-62481959D01*
X181337650Y-60527650D02*
X181339000Y-60527650D01*
%TO.N,/fmu_mcu_power/I2C2_SDA*%
X174780000Y-74450000D02*
X173220000Y-76010000D01*
X183660000Y-90166340D02*
X183660000Y-73397309D01*
X183536500Y-92593500D02*
X183536500Y-90289840D01*
X178959144Y-74450000D02*
X174780000Y-74450000D01*
X182550000Y-93580000D02*
X183536500Y-92593500D01*
X173220000Y-76010000D02*
X173220000Y-76810000D01*
X183536500Y-90289840D02*
X183660000Y-90166340D01*
X181820036Y-71755588D02*
X182064448Y-72000000D01*
X181439144Y-71970000D02*
X178959144Y-74450000D01*
X182080000Y-71970000D02*
X181439144Y-71970000D01*
X183660000Y-73397309D02*
X183529189Y-73266498D01*
%TO.N,/fmu_mcu_power/UART4_RX*%
X179600000Y-95180000D02*
X179800000Y-94980000D01*
X196873040Y-69893040D02*
X187830000Y-60850000D01*
X197236325Y-80890732D02*
X197236325Y-70325848D01*
X179800000Y-94980000D02*
X192934215Y-94980000D01*
X196873040Y-69962562D02*
X196873040Y-69893040D01*
X193630000Y-94284215D02*
X193630000Y-84497058D01*
X193630000Y-84497058D02*
X197236325Y-80890732D01*
X197236325Y-70325848D02*
X196873040Y-69962562D01*
X187830000Y-59165260D02*
X187859100Y-59136160D01*
X192934215Y-94980000D02*
X193630000Y-94284215D01*
X187830000Y-60850000D02*
X187830000Y-59165260D01*
%TO.N,/fmu_mcu_power/UART4_TX*%
X196836325Y-70491533D02*
X196473040Y-70128247D01*
X186990000Y-60658743D02*
X186990000Y-59654309D01*
X196836325Y-80725047D02*
X196836325Y-70491533D01*
X189096206Y-62750000D02*
X189081257Y-62750000D01*
X193201000Y-94104686D02*
X193201000Y-84360372D01*
X186990000Y-59654309D02*
X187134309Y-59510000D01*
X196473040Y-70128247D02*
X196473040Y-70126834D01*
X193201000Y-84360372D02*
X196836325Y-80725047D01*
X189081257Y-62750000D02*
X186990000Y-60658743D01*
X192725686Y-94580000D02*
X193201000Y-94104686D01*
X196473040Y-70126834D02*
X189096206Y-62750000D01*
X178820000Y-94780000D02*
X179020000Y-94580000D01*
X179020000Y-94580000D02*
X192725686Y-94580000D01*
%TO.N,/fmu_mcu_power/I2C2_SCL*%
X183213500Y-73948820D02*
X182930000Y-73665320D01*
X183136500Y-90124154D02*
X183213500Y-90047155D01*
X178683460Y-74050000D02*
X182030000Y-70703460D01*
X182517500Y-70460000D02*
X183025236Y-69952264D01*
X182030000Y-70703460D02*
X182030000Y-70460000D01*
X182930000Y-72818561D02*
X182899225Y-72787786D01*
X183213500Y-90047155D02*
X183213500Y-73948820D01*
X182030000Y-70460000D02*
X182517500Y-70460000D01*
X182930000Y-73665320D02*
X182930000Y-72818561D01*
X182834334Y-72926830D02*
X182859206Y-72951702D01*
X172526318Y-75883672D02*
X174359990Y-74050000D01*
X183025236Y-69952264D02*
X183025236Y-69426290D01*
X182834334Y-72926830D02*
X182846601Y-72926830D01*
X183136500Y-92162367D02*
X183136500Y-90124154D01*
X181749867Y-93549000D02*
X183136500Y-92162367D01*
X174359990Y-74050000D02*
X178683460Y-74050000D01*
X182834334Y-72926830D02*
X182846601Y-72926830D01*
X182834334Y-72926830D02*
X182859206Y-72951702D01*
%TO.N,/IO_FMU/TIM4_CH3*%
X154000000Y-83500000D02*
X154000000Y-79990000D01*
X154000000Y-79990000D02*
X152390000Y-78380000D01*
X152390000Y-78380000D02*
X152390000Y-72610000D01*
X152390000Y-72610000D02*
X155500000Y-69500000D01*
%TO.N,/IO_FMU/TIM4_CH4*%
X156100000Y-77900000D02*
X156100000Y-80750000D01*
X156880000Y-81530000D02*
X157269938Y-81530000D01*
X156500000Y-77500000D02*
X156100000Y-77900000D01*
X156100000Y-80750000D02*
X156880000Y-81530000D01*
%TO.N,/IO_FMU/TIM3_CH4*%
X156980000Y-90400000D02*
X160891263Y-86488737D01*
X160891263Y-86488737D02*
X160926340Y-86488737D01*
X155720000Y-90400000D02*
X156980000Y-90400000D01*
D30*
%TO.N,/IO_FMU/USART3_RX*%
X165900000Y-87762500D02*
X165900000Y-87510000D01*
D32*
X174587500Y-88000000D02*
X172000000Y-85412500D01*
D30*
X164175000Y-89000000D02*
X164662500Y-89000000D01*
D32*
X172000000Y-85412500D02*
X172000000Y-85000000D01*
D30*
X173500000Y-89170000D02*
X173500000Y-89087500D01*
D32*
X173500000Y-89087500D02*
X174587500Y-88000000D01*
D30*
X164662500Y-89000000D02*
X165900000Y-87762500D01*
D32*
%TO.N,/IO_FMU/SWDCLK*%
X170669238Y-65143571D02*
X170652000Y-65126333D01*
X170652000Y-62483866D02*
X167168134Y-59000000D01*
X170669238Y-71719179D02*
X170669238Y-65143571D01*
X163232224Y-59000000D02*
X163232222Y-58999998D01*
X167168134Y-59000000D02*
X163232224Y-59000000D01*
X169630000Y-72758417D02*
X170669238Y-71719179D01*
X170652000Y-65126333D02*
X170652000Y-62483866D01*
%TO.N,/IO_FMU/USART1_RX*%
X158308529Y-82130000D02*
X158318529Y-82140000D01*
%TO.N,/IO_FMU/USART1_TX*%
X153300000Y-73500000D02*
X153400000Y-73600000D01*
X155700000Y-84640000D02*
X156971000Y-85911000D01*
X153400000Y-73600000D02*
X153400000Y-78222734D01*
X155700000Y-80522734D02*
X155700000Y-84640000D01*
X153400000Y-78222734D02*
X155700000Y-80522734D01*
X169676860Y-83390000D02*
X169960000Y-83390000D01*
X167155860Y-85911000D02*
X169676860Y-83390000D01*
X156971000Y-85911000D02*
X167155860Y-85911000D01*
%TO.N,/IO_FMU/SWDIO*%
X155150000Y-71400000D02*
X155150000Y-72603316D01*
X155150000Y-72603316D02*
X161099000Y-78552316D01*
X161099000Y-78552316D02*
X161099000Y-80592182D01*
X161099000Y-80592182D02*
X160861570Y-80829612D01*
%TO.N,Net-(Q1-B)*%
X174430000Y-89930000D02*
X174500000Y-90000000D01*
X174430000Y-88960000D02*
X174430000Y-89930000D01*
%TO.N,Net-(R12-Pad1)*%
X167912500Y-62500000D02*
X167437211Y-62500000D01*
X167437211Y-62500000D02*
X166997745Y-62939466D01*
%TO.N,Net-(U10-~{WP}{slash}IO_{2})*%
X191162500Y-73500000D02*
X191550000Y-73887500D01*
X191550000Y-73887500D02*
X191550000Y-74424000D01*
X190675000Y-73500000D02*
X191162500Y-73500000D01*
%TO.N,/fmu_mcu_power/VDD_5V_SENS*%
X173587500Y-73025741D02*
X173886615Y-73324856D01*
X173587500Y-72500000D02*
X173587500Y-73025741D01*
X173587500Y-72500000D02*
X173587500Y-71000000D01*
%TO.N,/fmu_mcu_power/SCALED_V3V3*%
X176409573Y-71823688D02*
X176353506Y-71879755D01*
X177087500Y-71000000D02*
X177087500Y-72500000D01*
X177087500Y-71000000D02*
X176600000Y-71000000D01*
X176600000Y-71000000D02*
X176409573Y-71190427D01*
X176409573Y-71190427D02*
X176409573Y-71823688D01*
%TO.N,/IO_FMU/D_BOOBT0_R*%
X158227180Y-79447820D02*
X159000000Y-78675000D01*
X158227180Y-79736080D02*
X158227180Y-79447820D01*
%TO.N,/IO_FMU/USART3_TX*%
X166698621Y-82801379D02*
X165880000Y-83620000D01*
X174979634Y-90776000D02*
X175376000Y-90379634D01*
X175376000Y-86499000D02*
X171678379Y-82801379D01*
X175376000Y-90379634D02*
X175376000Y-86499000D01*
X172675000Y-90000000D02*
X173451000Y-90776000D01*
X173451000Y-90776000D02*
X174979634Y-90776000D01*
X171678379Y-82801379D02*
X166698621Y-82801379D01*
%TO.N,/IO_FMU/RING_LED*%
X161500000Y-90800000D02*
X163090000Y-89210000D01*
X163090000Y-89210000D02*
X163090000Y-86500000D01*
%TO.N,/IO_FMU/AMBER_LED*%
X161500000Y-82158416D02*
X161662500Y-81995916D01*
X161500000Y-83087500D02*
X161500000Y-82158416D01*
%TO.N,/fmu_mcu_power/GPIO_LED_GREEN*%
X182530000Y-73463383D02*
X182301653Y-73235036D01*
X182813500Y-77833500D02*
X182530000Y-77550000D01*
X182813500Y-88586500D02*
X182813500Y-77833500D01*
X182530000Y-77550000D02*
X182530000Y-73463383D01*
X181900000Y-89500000D02*
X182813500Y-88586500D01*
%TO.N,/fmu_mcu_power/GPIO_LED_BLUE*%
X179085634Y-84230000D02*
X178070000Y-84230000D01*
X181355634Y-86500000D02*
X179085634Y-84230000D01*
X181925000Y-86500000D02*
X181355634Y-86500000D01*
%TO.N,/fmu_mcu_power/GPIO_LED_RED*%
X182025000Y-83232000D02*
X182000000Y-83207000D01*
X182025000Y-84000000D02*
X182025000Y-83232000D01*
%TO.N,Net-(U9-Vref)*%
X192412500Y-92731078D02*
X192630000Y-92948578D01*
X192412500Y-89500000D02*
X192412500Y-92731078D01*
%TO.N,/IMU/DRDY1_ICM42688*%
X176376000Y-81274000D02*
X176350000Y-81300000D01*
X180084842Y-74488022D02*
X180084842Y-77415158D01*
X181649349Y-72923515D02*
X180084842Y-74488022D01*
X176376000Y-81124000D02*
X176376000Y-81274000D01*
X180084842Y-77415158D02*
X176376000Y-81124000D01*
%TO.N,/fmu_mcu_power/CAN1_RX*%
X182603549Y-60382832D02*
X182642381Y-60344000D01*
X196036325Y-78783675D02*
X191200000Y-83620000D01*
X196036325Y-70856325D02*
X196036325Y-78783675D01*
X182642381Y-60344000D02*
X185524000Y-60344000D01*
X185524000Y-60344000D02*
X196036325Y-70856325D01*
%TO.N,/fmu_mcu_power/CAN1_TX*%
X195636325Y-77703675D02*
X190607435Y-82732565D01*
X183759790Y-61037280D02*
X184053070Y-60744000D01*
X184053070Y-60744000D02*
X185139634Y-60744000D01*
X190607435Y-82732565D02*
X190607435Y-82975284D01*
X195636325Y-71240691D02*
X195636325Y-77703675D01*
X185139634Y-60744000D02*
X195636325Y-71240691D01*
%TO.N,/IO_FMU/SAFETY_LED*%
X171069238Y-61439999D02*
X171069238Y-80170762D01*
X165624000Y-55994761D02*
X171069238Y-61439999D01*
X165624000Y-54624000D02*
X165624000Y-55994761D01*
X163250000Y-52250000D02*
X165624000Y-54624000D01*
X171069238Y-80170762D02*
X170830418Y-80409582D01*
%TD*%
M02*
