M48
; DRILL file {KiCad 9.0.7} date 2026-08-05T18:32:06+0530
; FORMAT={-:-/ absolute / metric / decimal}
; #@! TF.CreationDate,2026-08-05T18:32:06+05:30
; #@! TF.GenerationSoftware,Kicad,Pcbnew,9.0.7
; #@! TF.FileFunction,Plated,1,3,Blind
FMAT,2
METRIC
; #@! TA.AperFunction,Plated,Buried,ViaDrill
T1C0.300
%
G90
G05
T1
X154.5Y-62.0
X155.0Y-81.0
X159.747Y-78.227
X161.0Y-59.62
X164.69Y-95.19
X170.5Y-50.5
X171.997Y-74.484
X172.63Y-66.75
X174.43Y-81.34
X176.55Y-53.04
X177.4Y-95.81
X180.075Y-80.0
X181.0Y-51.0
X181.468Y-75.838
X182.433Y-75.774
X184.567Y-64.225
X184.95Y-82.82
X188.06Y-60.68
X189.016Y-96.09
X189.678Y-70.15
X192.624Y-57.077
X194.76Y-84.44
X197.25Y-80.037
X198.47Y-89.46
X198.496Y-66.55
M30
