M48
; DRILL file {KiCad 9.0.7} date 2026-08-05T18:32:06+0530
; FORMAT={-:-/ absolute / metric / decimal}
; #@! TF.CreationDate,2026-08-05T18:32:06+05:30
; #@! TF.GenerationSoftware,Kicad,Pcbnew,9.0.7
; #@! TF.FileFunction,Plated,1,4,Blind
FMAT,2
METRIC
; #@! TA.AperFunction,Plated,Buried,ViaDrill
T1C0.300
%
G90
G05
T1
X159.477Y-70.26
X159.7Y-75.04
X159.717Y-64.64
X164.125Y-71.535
X169.515Y-71.331
X169.769Y-61.051
X169.87Y-70.597
X172.982Y-67.707
X173.461Y-57.661
X175.058Y-75.839
X177.412Y-76.09
X179.919Y-73.119
X180.668Y-75.849
X180.902Y-81.78
X181.01Y-72.217
X182.178Y-77.147
X184.129Y-67.33
X184.137Y-60.38
X184.348Y-70.749
X184.363Y-68.937
X184.637Y-66.604
X185.046Y-69.704
X185.475Y-73.87
X187.749Y-66.893
X187.869Y-66.153
X188.298Y-72.751
X189.464Y-72.303
X190.912Y-70.663
X191.55Y-78.527
X191.89Y-59.23
X192.05Y-62.356
X192.073Y-70.52
X192.205Y-61.52
X192.206Y-60.482
X192.245Y-78.809
X193.427Y-69.938
X196.552Y-66.798
X197.291Y-66.669
M30
