M48
; DRILL file {KiCad 9.0.7} date 2026-08-05T18:32:06+0530
; FORMAT={-:-/ absolute / metric / decimal}
; #@! TF.CreationDate,2026-08-05T18:32:06+05:30
; #@! TF.GenerationSoftware,Kicad,Pcbnew,9.0.7
; #@! TF.FileFunction,Plated,1,2,Blind
FMAT,2
METRIC
; #@! TA.AperFunction,Plated,Buried,ViaDrill
T1C0.300
%
G90
G05
T1
X153.5Y-67.5
X154.0Y-92.5
X154.5Y-55.5
X157.0Y-72.0
X158.0Y-87.0
X161.07Y-52.87
X167.55Y-92.57
X167.69Y-82.96
X169.891Y-65.533
X171.753Y-95.343
X172.468Y-69.94
X174.046Y-75.948
X174.77Y-80.22
X176.316Y-91.901
X177.5Y-49.5
X177.5Y-53.0
X178.0Y-85.0
X178.17Y-77.667
X180.863Y-78.005
X181.27Y-80.28
X183.249Y-57.499
X184.07Y-82.06
X184.124Y-92.349
X184.5Y-96.5
X186.889Y-56.873
X186.97Y-79.84
X188.732Y-60.903
X192.68Y-79.42
X194.07Y-57.3
X194.67Y-75.99
X196.5Y-92.5
X198.0Y-55.0
X199.0Y-84.5
X199.69Y-71.91
M30
