%TF.GenerationSoftware,KiCad,Pcbnew,9.0.7*%
%TF.CreationDate,2026-08-05T18:31:54+05:30*%
%TF.ProjectId,custom_fc_rat,63757374-6f6d-45f6-9663-5f7261742e6b,rev?*%
%TF.SameCoordinates,Original*%
%TF.FileFunction,Paste,Top*%
%TF.FilePolarity,Positive*%
%FSLAX46Y46*%
G04 Gerber Fmt 4.6, Leading zero omitted, Abs format (unit mm)*
G04 Created by KiCad (PCBNEW 9.0.7) date 2026-08-05 18:31:54*
%MOMM*%
%LPD*%
G01*
G04 APERTURE LIST*
G04 Aperture macros list*
%AMRoundRect*
0 Rectangle with rounded corners*
0 $1 Rounding radius*
0 $2 $3 $4 $5 $6 $7 $8 $9 X,Y pos of 4 corners*
0 Add a 4 corners polygon primitive as box body*
4,1,4,$2,$3,$4,$5,$6,$7,$8,$9,$2,$3,0*
0 Add four circle primitives for the rounded corners*
1,1,$1+$1,$2,$3*
1,1,$1+$1,$4,$5*
1,1,$1+$1,$6,$7*
1,1,$1+$1,$8,$9*
0 Add four rect primitives between the rounded corners*
20,1,$1+$1,$2,$3,$4,$5,0*
20,1,$1+$1,$4,$5,$6,$7,0*
20,1,$1+$1,$6,$7,$8,$9,0*
20,1,$1+$1,$8,$9,$2,$3,0*%
G04 Aperture macros list end*
%ADD10RoundRect,0.237500X-0.237500X0.300000X-0.237500X-0.300000X0.237500X-0.300000X0.237500X0.300000X0*%
%ADD11RoundRect,0.150000X0.700000X-0.150000X0.700000X0.150000X-0.700000X0.150000X-0.700000X-0.150000X0*%
%ADD12RoundRect,0.250000X1.100000X-0.250000X1.100000X0.250000X-1.100000X0.250000X-1.100000X-0.250000X0*%
%ADD13RoundRect,0.150000X-0.150000X-0.700000X0.150000X-0.700000X0.150000X0.700000X-0.150000X0.700000X0*%
%ADD14RoundRect,0.250000X-0.250000X-1.150000X0.250000X-1.150000X0.250000X1.150000X-0.250000X1.150000X0*%
%ADD15RoundRect,0.237500X0.237500X-0.300000X0.237500X0.300000X-0.237500X0.300000X-0.237500X-0.300000X0*%
%ADD16RoundRect,0.237500X0.250000X0.237500X-0.250000X0.237500X-0.250000X-0.237500X0.250000X-0.237500X0*%
%ADD17RoundRect,0.237500X0.300000X0.237500X-0.300000X0.237500X-0.300000X-0.237500X0.300000X-0.237500X0*%
%ADD18RoundRect,0.237500X-0.300000X-0.237500X0.300000X-0.237500X0.300000X0.237500X-0.300000X0.237500X0*%
%ADD19C,0.200000*%
%ADD20R,1.700000X1.000000*%
%ADD21R,1.200000X1.400000*%
%ADD22RoundRect,0.237500X0.237500X-0.250000X0.237500X0.250000X-0.237500X0.250000X-0.237500X-0.250000X0*%
%ADD23RoundRect,0.150000X0.150000X0.700000X-0.150000X0.700000X-0.150000X-0.700000X0.150000X-0.700000X0*%
%ADD24RoundRect,0.250000X0.250000X1.150000X-0.250000X1.150000X-0.250000X-1.150000X0.250000X-1.150000X0*%
%ADD25RoundRect,0.087500X-0.207500X-0.087500X0.207500X-0.087500X0.207500X0.087500X-0.207500X0.087500X0*%
%ADD26RoundRect,0.087500X-0.087500X-0.207500X0.087500X-0.207500X0.087500X0.207500X-0.087500X0.207500X0*%
%ADD27RoundRect,0.250001X-0.624999X0.462499X-0.624999X-0.462499X0.624999X-0.462499X0.624999X0.462499X0*%
%ADD28RoundRect,0.250000X1.150000X-0.250000X1.150000X0.250000X-1.150000X0.250000X-1.150000X-0.250000X0*%
%ADD29RoundRect,0.150000X-0.825000X-0.150000X0.825000X-0.150000X0.825000X0.150000X-0.825000X0.150000X0*%
%ADD30RoundRect,0.150000X-0.700000X0.150000X-0.700000X-0.150000X0.700000X-0.150000X0.700000X0.150000X0*%
%ADD31RoundRect,0.250000X-1.150000X0.250000X-1.150000X-0.250000X1.150000X-0.250000X1.150000X0.250000X0*%
%ADD32RoundRect,0.250000X-0.337500X-0.475000X0.337500X-0.475000X0.337500X0.475000X-0.337500X0.475000X0*%
%ADD33RoundRect,0.250001X0.624999X-0.462499X0.624999X0.462499X-0.624999X0.462499X-0.624999X-0.462499X0*%
%ADD34RoundRect,0.043750X-0.151250X-0.131250X0.151250X-0.131250X0.151250X0.131250X-0.151250X0.131250X0*%
%ADD35RoundRect,0.043750X-0.131250X-0.151250X0.131250X-0.151250X0.131250X0.151250X-0.131250X0.151250X0*%
%ADD36R,1.320800X1.447800*%
%ADD37RoundRect,0.250001X-0.462499X-0.624999X0.462499X-0.624999X0.462499X0.624999X-0.462499X0.624999X0*%
%ADD38RoundRect,0.093750X-0.156250X-0.093750X0.156250X-0.093750X0.156250X0.093750X-0.156250X0.093750X0*%
%ADD39RoundRect,0.075000X-0.250000X-0.075000X0.250000X-0.075000X0.250000X0.075000X-0.250000X0.075000X0*%
%ADD40RoundRect,0.075000X-0.725000X-0.075000X0.725000X-0.075000X0.725000X0.075000X-0.725000X0.075000X0*%
%ADD41RoundRect,0.075000X-0.075000X-0.725000X0.075000X-0.725000X0.075000X0.725000X-0.075000X0.725000X0*%
%ADD42RoundRect,0.075000X-0.662500X-0.075000X0.662500X-0.075000X0.662500X0.075000X-0.662500X0.075000X0*%
%ADD43RoundRect,0.075000X-0.075000X-0.662500X0.075000X-0.662500X0.075000X0.662500X-0.075000X0.662500X0*%
%ADD44RoundRect,0.250000X0.475000X-0.337500X0.475000X0.337500X-0.475000X0.337500X-0.475000X-0.337500X0*%
%ADD45R,0.475000X0.250000*%
%ADD46R,0.250000X0.475000*%
%ADD47RoundRect,0.162500X0.162500X-0.650000X0.162500X0.650000X-0.162500X0.650000X-0.162500X-0.650000X0*%
%ADD48R,0.970000X1.000000*%
G04 APERTURE END LIST*
D10*
%TO.C,C9*%
X187500000Y-74637500D03*
X187500000Y-76362500D03*
%TD*%
D11*
%TO.C,J15*%
X152000000Y-74250000D03*
X152000000Y-73000000D03*
X152000000Y-71750000D03*
X152000000Y-70500000D03*
X152000000Y-69250000D03*
X152000000Y-68000000D03*
D12*
X155200000Y-76100000D03*
X155200000Y-66150000D03*
%TD*%
D13*
%TO.C,J17*%
X164650000Y-70350000D03*
X165900000Y-70350000D03*
X167150000Y-70350000D03*
D14*
X162800000Y-67000000D03*
X169000000Y-67000000D03*
%TD*%
D15*
%TO.C,C38*%
X159000000Y-65500000D03*
X159000000Y-63775000D03*
%TD*%
D16*
%TO.C,R29*%
X160500000Y-73000000D03*
X158675000Y-73000000D03*
%TD*%
D15*
%TO.C,C37*%
X160500000Y-65362500D03*
X160500000Y-63637500D03*
%TD*%
D13*
%TO.C,J12*%
X177400000Y-98000000D03*
X178650000Y-98000000D03*
X179900000Y-98000000D03*
X181150000Y-98000000D03*
X182400000Y-98000000D03*
X183650000Y-98000000D03*
D14*
X175550000Y-94650000D03*
X185500000Y-94650000D03*
%TD*%
D13*
%TO.C,J16*%
X164000000Y-91500000D03*
X165250000Y-91500000D03*
X166500000Y-91500000D03*
D14*
X162150000Y-88150000D03*
X168350000Y-88150000D03*
%TD*%
D17*
%TO.C,C1*%
X178500000Y-80000000D03*
X176775000Y-80000000D03*
%TD*%
D18*
%TO.C,C40*%
X184775000Y-81000000D03*
X186500000Y-81000000D03*
%TD*%
D15*
%TO.C,C4*%
X179000000Y-83725000D03*
X179000000Y-82000000D03*
%TD*%
%TO.C,C42*%
X186000000Y-89225000D03*
X186000000Y-87500000D03*
%TD*%
D19*
%TO.C,U5*%
X172368000Y-76500000D03*
X172934000Y-76500000D03*
X173500000Y-76500000D03*
X172651000Y-76783000D03*
X173217000Y-76783000D03*
X172368000Y-77066000D03*
X173500000Y-77066000D03*
X172651000Y-77349000D03*
X173217000Y-77349000D03*
X172368000Y-77632000D03*
X172934000Y-77632000D03*
X173500000Y-77632000D03*
%TD*%
D11*
%TO.C,J6*%
X152000000Y-62150000D03*
X152000000Y-60900000D03*
X152000000Y-59650000D03*
X152000000Y-58400000D03*
X152000000Y-57150000D03*
X152000000Y-55900000D03*
D12*
X155200000Y-64000000D03*
X155200000Y-54050000D03*
%TD*%
D15*
%TO.C,C6*%
X171000000Y-76725000D03*
X171000000Y-75000000D03*
%TD*%
D20*
%TO.C,SW4*%
X162700000Y-60000000D03*
X169000000Y-60000000D03*
X162700000Y-63800000D03*
X169000000Y-63800000D03*
%TD*%
%TO.C,SW3*%
X162500000Y-53700000D03*
X168800000Y-53700000D03*
X162500000Y-57500000D03*
X168800000Y-57500000D03*
%TD*%
D17*
%TO.C,C20*%
X160500000Y-56000000D03*
X158775000Y-56000000D03*
%TD*%
D21*
%TO.C,Y2*%
X172800000Y-54300000D03*
X172800000Y-56500000D03*
X174500000Y-56500000D03*
X174500000Y-54300000D03*
%TD*%
D22*
%TO.C,R15*%
X176500000Y-55912500D03*
X176500000Y-54087500D03*
%TD*%
D23*
%TO.C,J8*%
X170625000Y-47550000D03*
X169375000Y-47550000D03*
X168125000Y-47550000D03*
X166875000Y-47550000D03*
X165625000Y-47550000D03*
X164375000Y-47550000D03*
X163125000Y-47550000D03*
X161875000Y-47550000D03*
X160625000Y-47550000D03*
X159375000Y-47550000D03*
D24*
X172475000Y-50900000D03*
X157525000Y-50900000D03*
%TD*%
D13*
%TO.C,J11*%
X189850000Y-98000000D03*
X191100000Y-98000000D03*
X192350000Y-98000000D03*
X193600000Y-98000000D03*
D14*
X188000000Y-94650000D03*
X195450000Y-94650000D03*
%TD*%
D15*
%TO.C,C21*%
X179500000Y-56000000D03*
X179500000Y-54275000D03*
%TD*%
D25*
%TO.C,U1*%
X176670000Y-77000000D03*
X176670000Y-77500000D03*
X176670000Y-78000000D03*
X176670000Y-78500000D03*
D26*
X177335000Y-78665000D03*
X177835000Y-78665000D03*
X178335000Y-78665000D03*
D25*
X179000000Y-78500000D03*
X179000000Y-78000000D03*
X179000000Y-77500000D03*
X179000000Y-77000000D03*
D26*
X178335000Y-76835000D03*
X177835000Y-76835000D03*
X177335000Y-76835000D03*
%TD*%
D27*
%TO.C,D2*%
X159500000Y-88500000D03*
X159500000Y-91475000D03*
%TD*%
D11*
%TO.C,J5*%
X199850000Y-67150000D03*
X199850000Y-65900000D03*
X199850000Y-64650000D03*
X199850000Y-63400000D03*
X199850000Y-62150000D03*
X199850000Y-60900000D03*
X199850000Y-59650000D03*
X199850000Y-58400000D03*
X199850000Y-57150000D03*
X199850000Y-55900000D03*
D28*
X196500000Y-69000000D03*
X196500000Y-54050000D03*
%TD*%
D29*
%TO.C,U9*%
X188525000Y-88095000D03*
X188525000Y-89365000D03*
X188525000Y-90635000D03*
X188525000Y-91905000D03*
X193475000Y-91905000D03*
X193475000Y-90635000D03*
X193475000Y-89365000D03*
X193475000Y-88095000D03*
%TD*%
D30*
%TO.C,J13*%
X152050000Y-80375000D03*
X152050000Y-81625000D03*
X152050000Y-82875000D03*
X152050000Y-84125000D03*
X152050000Y-85375000D03*
X152050000Y-86625000D03*
X152050000Y-87875000D03*
X152050000Y-89125000D03*
X152050000Y-90375000D03*
X152050000Y-91625000D03*
D31*
X155400000Y-78525000D03*
X155400000Y-93475000D03*
%TD*%
D11*
%TO.C,J1*%
X200000000Y-79500000D03*
X200000000Y-78250000D03*
X200000000Y-77000000D03*
X200000000Y-75750000D03*
X200000000Y-74500000D03*
X200000000Y-73250000D03*
D28*
X196650000Y-81350000D03*
X196650000Y-71400000D03*
%TD*%
D32*
%TO.C,C28*%
X181287500Y-56000000D03*
X183362500Y-56000000D03*
%TD*%
D13*
%TO.C,J14*%
X172650000Y-91350000D03*
X173900000Y-91350000D03*
X175150000Y-91350000D03*
D14*
X170800000Y-88000000D03*
X177000000Y-88000000D03*
%TD*%
D33*
%TO.C,D5*%
X159500000Y-85487500D03*
X159500000Y-82512500D03*
%TD*%
D34*
%TO.C,U3*%
X180220000Y-81530000D03*
X180220000Y-82030000D03*
D35*
X180500000Y-82560000D03*
X181000000Y-82560000D03*
X181500000Y-82560000D03*
D34*
X181780000Y-82030000D03*
X181780000Y-81530000D03*
D35*
X181500000Y-81000000D03*
X181000000Y-81000000D03*
X180500000Y-81000000D03*
%TD*%
D36*
%TO.C,Y1*%
X160500000Y-71000000D03*
X160500000Y-68231400D03*
X158315600Y-68231400D03*
X158315600Y-71000000D03*
%TD*%
D15*
%TO.C,C14*%
X158360000Y-77260000D03*
X158360000Y-75535000D03*
%TD*%
D37*
%TO.C,D9*%
X179512500Y-86000000D03*
X182487500Y-86000000D03*
%TD*%
D11*
%TO.C,J7*%
X200000000Y-89500000D03*
X200000000Y-88250000D03*
X200000000Y-87000000D03*
X200000000Y-85750000D03*
D28*
X196650000Y-91350000D03*
X196650000Y-83900000D03*
%TD*%
D38*
%TO.C,U11*%
X185300000Y-53925000D03*
D39*
X185225000Y-54462500D03*
D38*
X185300000Y-55000000D03*
X187000000Y-55000000D03*
D39*
X187075000Y-54462500D03*
D38*
X187000000Y-53925000D03*
%TD*%
D23*
%TO.C,J9*%
X183150000Y-47650000D03*
X181900000Y-47650000D03*
X180650000Y-47650000D03*
X179400000Y-47650000D03*
X178150000Y-47650000D03*
X176900000Y-47650000D03*
D24*
X185000000Y-51000000D03*
X175050000Y-51000000D03*
%TD*%
D40*
%TO.C,U2*%
X171150000Y-60825000D03*
X171150000Y-61325000D03*
X171150000Y-61825000D03*
X171150000Y-62325000D03*
X171150000Y-62825000D03*
X171150000Y-63325000D03*
X171150000Y-63825000D03*
X171150000Y-64325000D03*
X171150000Y-64825000D03*
X171150000Y-65325000D03*
X171150000Y-65825000D03*
X171150000Y-66325000D03*
X171150000Y-66825000D03*
X171150000Y-67325000D03*
X171150000Y-67825000D03*
X171150000Y-68325000D03*
X171150000Y-68825000D03*
X171150000Y-69325000D03*
X171150000Y-69825000D03*
X171150000Y-70325000D03*
X171150000Y-70825000D03*
X171150000Y-71325000D03*
X171150000Y-71825000D03*
X171150000Y-72325000D03*
X171150000Y-72825000D03*
D41*
X172825000Y-74500000D03*
X173325000Y-74500000D03*
X173825000Y-74500000D03*
X174325000Y-74500000D03*
X174825000Y-74500000D03*
X175325000Y-74500000D03*
X175825000Y-74500000D03*
X176325000Y-74500000D03*
X176825000Y-74500000D03*
X177325000Y-74500000D03*
X177825000Y-74500000D03*
X178325000Y-74500000D03*
X178825000Y-74500000D03*
X179325000Y-74500000D03*
X179825000Y-74500000D03*
X180325000Y-74500000D03*
X180825000Y-74500000D03*
X181325000Y-74500000D03*
X181825000Y-74500000D03*
X182325000Y-74500000D03*
X182825000Y-74500000D03*
X183325000Y-74500000D03*
X183825000Y-74500000D03*
X184325000Y-74500000D03*
X184825000Y-74500000D03*
D40*
X186500000Y-72825000D03*
X186500000Y-72325000D03*
X186500000Y-71825000D03*
X186500000Y-71325000D03*
X186500000Y-70825000D03*
X186500000Y-70325000D03*
X186500000Y-69825000D03*
X186500000Y-69325000D03*
X186500000Y-68825000D03*
X186500000Y-68325000D03*
X186500000Y-67825000D03*
X186500000Y-67325000D03*
X186500000Y-66825000D03*
X186500000Y-66325000D03*
X186500000Y-65825000D03*
X186500000Y-65325000D03*
X186500000Y-64825000D03*
X186500000Y-64325000D03*
X186500000Y-63825000D03*
X186500000Y-63325000D03*
X186500000Y-62825000D03*
X186500000Y-62325000D03*
X186500000Y-61825000D03*
X186500000Y-61325000D03*
X186500000Y-60825000D03*
D41*
X184825000Y-59150000D03*
X184325000Y-59150000D03*
X183825000Y-59150000D03*
X183325000Y-59150000D03*
X182825000Y-59150000D03*
X182325000Y-59150000D03*
X181825000Y-59150000D03*
X181325000Y-59150000D03*
X180825000Y-59150000D03*
X180325000Y-59150000D03*
X179825000Y-59150000D03*
X179325000Y-59150000D03*
X178825000Y-59150000D03*
X178325000Y-59150000D03*
X177825000Y-59150000D03*
X177325000Y-59150000D03*
X176825000Y-59150000D03*
X176325000Y-59150000D03*
X175825000Y-59150000D03*
X175325000Y-59150000D03*
X174825000Y-59150000D03*
X174325000Y-59150000D03*
X173825000Y-59150000D03*
X173325000Y-59150000D03*
X172825000Y-59150000D03*
%TD*%
D11*
%TO.C,J10*%
X193000000Y-84000000D03*
X193000000Y-82750000D03*
X193000000Y-81500000D03*
X193000000Y-80250000D03*
D28*
X189650000Y-85850000D03*
X189650000Y-78400000D03*
%TD*%
D17*
%TO.C,C19*%
X160362500Y-54500000D03*
X158637500Y-54500000D03*
%TD*%
D37*
%TO.C,D8*%
X179525000Y-88500000D03*
X182500000Y-88500000D03*
%TD*%
D42*
%TO.C,U4*%
X160950000Y-74587500D03*
X160950000Y-75087500D03*
X160950000Y-75587501D03*
X160950000Y-76087500D03*
X160950000Y-76587500D03*
X160950000Y-77087500D03*
X160950000Y-77587500D03*
X160950000Y-78087500D03*
X160950000Y-78587500D03*
X160950000Y-79087500D03*
X160950000Y-79587500D03*
X160950000Y-80087500D03*
D43*
X162362500Y-81500000D03*
X162862500Y-81500000D03*
X163362501Y-81500000D03*
X163862500Y-81500000D03*
X164362500Y-81500000D03*
X164862500Y-81500000D03*
X165362500Y-81500000D03*
X165862500Y-81500000D03*
X166362500Y-81500000D03*
X166862500Y-81500000D03*
X167362500Y-81500000D03*
X167862500Y-81500000D03*
D42*
X169275000Y-80087500D03*
X169275000Y-79587500D03*
X169275000Y-79087499D03*
X169275000Y-78587500D03*
X169275000Y-78087500D03*
X169275000Y-77587500D03*
X169275000Y-77087500D03*
X169275000Y-76587500D03*
X169275000Y-76087500D03*
X169275000Y-75587500D03*
X169275000Y-75087500D03*
X169275000Y-74587500D03*
D43*
X167862500Y-73175000D03*
X167362500Y-73175000D03*
X166862499Y-73175000D03*
X166362500Y-73175000D03*
X165862500Y-73175000D03*
X165362500Y-73175000D03*
X164862500Y-73175000D03*
X164362500Y-73175000D03*
X163862500Y-73175000D03*
X163362500Y-73175000D03*
X162862500Y-73175000D03*
X162362500Y-73175000D03*
%TD*%
D44*
%TO.C,C2*%
X181000000Y-79075000D03*
X181000000Y-77000000D03*
%TD*%
D37*
%TO.C,D7*%
X179512500Y-91000000D03*
X182487500Y-91000000D03*
%TD*%
D18*
%TO.C,C44*%
X185275000Y-56500000D03*
X187000000Y-56500000D03*
%TD*%
D13*
%TO.C,J3*%
X164000000Y-98000000D03*
X165250000Y-98000000D03*
X166500000Y-98000000D03*
X167750000Y-98000000D03*
X169000000Y-98000000D03*
X170250000Y-98000000D03*
X171500000Y-98000000D03*
D14*
X162150000Y-94650000D03*
X173350000Y-94650000D03*
%TD*%
D15*
%TO.C,C5*%
X183000000Y-83000000D03*
X183000000Y-81275000D03*
%TD*%
D37*
%TO.C,D4*%
X189965000Y-54360000D03*
X192940000Y-54360000D03*
%TD*%
D45*
%TO.C,U7*%
X183000000Y-78000000D03*
X183000000Y-78500000D03*
X183000000Y-79000000D03*
X183000000Y-79500000D03*
D46*
X183662500Y-79662500D03*
X184162500Y-79662500D03*
X184662500Y-79662500D03*
D45*
X185325000Y-79500000D03*
X185325000Y-79000000D03*
X185325000Y-78500000D03*
X185325000Y-78000000D03*
D46*
X184662500Y-77837500D03*
X184162500Y-77837500D03*
X183662500Y-77837500D03*
%TD*%
D11*
%TO.C,J2*%
X193500000Y-64750000D03*
X193500000Y-63500000D03*
X193500000Y-62250000D03*
X193500000Y-61000000D03*
X193500000Y-59750000D03*
X193500000Y-58500000D03*
D28*
X190150000Y-66600000D03*
X190150000Y-56650000D03*
%TD*%
D15*
%TO.C,C26*%
X178000000Y-56000000D03*
X178000000Y-54275000D03*
%TD*%
D23*
%TO.C,J4*%
X193000000Y-47550000D03*
X191750000Y-47550000D03*
X190500000Y-47550000D03*
X189250000Y-47550000D03*
D24*
X194850000Y-50900000D03*
X187400000Y-50900000D03*
%TD*%
D47*
%TO.C,U10*%
X189595000Y-76087500D03*
X190865000Y-76087500D03*
X192135000Y-76087500D03*
X193405000Y-76087500D03*
X193405000Y-68912500D03*
X192135000Y-68912500D03*
X190865000Y-68912500D03*
X189595000Y-68912500D03*
%TD*%
D15*
%TO.C,C3*%
X174860000Y-78840000D03*
X174860000Y-77115000D03*
%TD*%
D18*
%TO.C,C39*%
X183320000Y-76370000D03*
X185045000Y-76370000D03*
%TD*%
D48*
%TO.C,FB2*%
X171000000Y-57030000D03*
X171000000Y-58500000D03*
%TD*%
D17*
%TO.C,C7*%
X173300000Y-79000000D03*
X171575000Y-79000000D03*
%TD*%
M02*
