%TF.GenerationSoftware,KiCad,Pcbnew,9.0.7*%
%TF.CreationDate,2026-08-05T18:31:55+05:30*%
%TF.ProjectId,custom_fc_rat,63757374-6f6d-45f6-9663-5f7261742e6b,rev?*%
%TF.SameCoordinates,Original*%
%TF.FileFunction,Soldermask,Bot*%
%TF.FilePolarity,Negative*%
%FSLAX46Y46*%
G04 Gerber Fmt 4.6, Leading zero omitted, Abs format (unit mm)*
G04 Created by KiCad (PCBNEW 9.0.7) date 2026-08-05 18:31:55*
%MOMM*%
%LPD*%
G01*
G04 APERTURE LIST*
G04 Aperture macros list*
%AMRoundRect*
0 Rectangle with rounded corners*
0 $1 Rounding radius*
0 $2 $3 $4 $5 $6 $7 $8 $9 X,Y pos of 4 corners*
0 Add a 4 corners polygon primitive as box body*
4,1,4,$2,$3,$4,$5,$6,$7,$8,$9,$2,$3,0*
0 Add four circle primitives for the rounded corners*
1,1,$1+$1,$2,$3*
1,1,$1+$1,$4,$5*
1,1,$1+$1,$6,$7*
1,1,$1+$1,$8,$9*
0 Add four rect primitives between the rounded corners*
20,1,$1+$1,$2,$3,$4,$5,0*
20,1,$1+$1,$4,$5,$6,$7,0*
20,1,$1+$1,$6,$7,$8,$9,0*
20,1,$1+$1,$8,$9,$2,$3,0*%
G04 Aperture macros list end*
%ADD10RoundRect,0.237500X-0.250000X-0.237500X0.250000X-0.237500X0.250000X0.237500X-0.250000X0.237500X0*%
%ADD11RoundRect,0.237500X0.250000X0.237500X-0.250000X0.237500X-0.250000X-0.237500X0.250000X-0.237500X0*%
%ADD12RoundRect,0.237500X0.300000X0.237500X-0.300000X0.237500X-0.300000X-0.237500X0.300000X-0.237500X0*%
%ADD13RoundRect,0.237500X-0.237500X0.250000X-0.237500X-0.250000X0.237500X-0.250000X0.237500X0.250000X0*%
%ADD14RoundRect,0.250000X0.337500X0.475000X-0.337500X0.475000X-0.337500X-0.475000X0.337500X-0.475000X0*%
%ADD15RoundRect,0.237500X0.237500X-0.300000X0.237500X0.300000X-0.237500X0.300000X-0.237500X-0.300000X0*%
%ADD16RoundRect,0.250000X-0.475000X0.337500X-0.475000X-0.337500X0.475000X-0.337500X0.475000X0.337500X0*%
%ADD17RoundRect,0.250000X0.850000X0.350000X-0.850000X0.350000X-0.850000X-0.350000X0.850000X-0.350000X0*%
%ADD18RoundRect,0.249997X2.950003X2.650003X-2.950003X2.650003X-2.950003X-2.650003X2.950003X-2.650003X0*%
%ADD19R,1.050000X1.500000*%
%ADD20O,1.050000X1.500000*%
%ADD21RoundRect,0.237500X0.237500X-0.250000X0.237500X0.250000X-0.237500X0.250000X-0.237500X-0.250000X0*%
%ADD22RoundRect,0.250000X0.475000X-0.337500X0.475000X0.337500X-0.475000X0.337500X-0.475000X-0.337500X0*%
%ADD23RoundRect,0.198500X0.508500X0.198500X-0.508500X0.198500X-0.508500X-0.198500X0.508500X-0.198500X0*%
%ADD24RoundRect,0.102000X0.620000X0.295000X-0.620000X0.295000X-0.620000X-0.295000X0.620000X-0.295000X0*%
%ADD25RoundRect,0.250000X1.000000X0.650000X-1.000000X0.650000X-1.000000X-0.650000X1.000000X-0.650000X0*%
%ADD26RoundRect,0.237500X-0.300000X-0.237500X0.300000X-0.237500X0.300000X0.237500X-0.300000X0.237500X0*%
G04 APERTURE END LIST*
D10*
%TO.C,R21*%
X177087500Y-71000000D03*
X178912500Y-71000000D03*
%TD*%
D11*
%TO.C,R17*%
X192500000Y-73500000D03*
X190675000Y-73500000D03*
%TD*%
D12*
%TO.C,C16*%
X167862500Y-80000000D03*
X166137500Y-80000000D03*
%TD*%
D11*
%TO.C,R1*%
X197475000Y-88500000D03*
X195650000Y-88500000D03*
%TD*%
D13*
%TO.C,R27*%
X159000000Y-78675000D03*
X159000000Y-80500000D03*
%TD*%
D14*
%TO.C,C35*%
X168037500Y-75000000D03*
X165962500Y-75000000D03*
%TD*%
D11*
%TO.C,R5*%
X197475000Y-90000000D03*
X195650000Y-90000000D03*
%TD*%
D10*
%TO.C,R22*%
X177087500Y-72500000D03*
X178912500Y-72500000D03*
%TD*%
D11*
%TO.C,R2*%
X184660000Y-61520000D03*
X182835000Y-61520000D03*
%TD*%
D12*
%TO.C,C12*%
X164362500Y-78000000D03*
X162637500Y-78000000D03*
%TD*%
D15*
%TO.C,C32*%
X176000000Y-63000000D03*
X176000000Y-61275000D03*
%TD*%
D11*
%TO.C,R36*%
X181925000Y-86500000D03*
X180100000Y-86500000D03*
%TD*%
%TO.C,R35*%
X181900000Y-89500000D03*
X180075000Y-89500000D03*
%TD*%
D14*
%TO.C,C41*%
X186500000Y-91000000D03*
X184425000Y-91000000D03*
%TD*%
D13*
%TO.C,R33*%
X161500000Y-83087500D03*
X161500000Y-84912500D03*
%TD*%
D11*
%TO.C,R7*%
X183855000Y-70460000D03*
X182030000Y-70460000D03*
%TD*%
D16*
%TO.C,C10*%
X182862500Y-49500000D03*
X182862500Y-51575000D03*
%TD*%
D10*
%TO.C,R20*%
X173587500Y-72500000D03*
X175412500Y-72500000D03*
%TD*%
%TO.C,R39*%
X190562500Y-91000000D03*
X192387500Y-91000000D03*
%TD*%
D15*
%TO.C,C23*%
X179412500Y-68500000D03*
X179412500Y-66775000D03*
%TD*%
D12*
%TO.C,C8*%
X197475000Y-91500000D03*
X195750000Y-91500000D03*
%TD*%
D11*
%TO.C,R14*%
X166412500Y-55500000D03*
X164587500Y-55500000D03*
%TD*%
D14*
%TO.C,C46*%
X162500000Y-64000000D03*
X160425000Y-64000000D03*
%TD*%
D11*
%TO.C,R37*%
X182025000Y-84000000D03*
X180200000Y-84000000D03*
%TD*%
D17*
%TO.C,U6*%
X168000000Y-66245000D03*
X168000000Y-68525000D03*
D18*
X161700000Y-68525000D03*
D17*
X168000000Y-70805000D03*
%TD*%
D19*
%TO.C,Q1*%
X172000000Y-85000000D03*
D20*
X170730000Y-85000000D03*
X169460000Y-85000000D03*
%TD*%
D10*
%TO.C,R31*%
X172675000Y-90000000D03*
X174500000Y-90000000D03*
%TD*%
D21*
%TO.C,R32*%
X161500000Y-90800000D03*
X161500000Y-88975000D03*
%TD*%
D15*
%TO.C,C24*%
X180912500Y-68500000D03*
X180912500Y-66775000D03*
%TD*%
D13*
%TO.C,R6*%
X193000000Y-49675000D03*
X193000000Y-51500000D03*
%TD*%
D22*
%TO.C,C34*%
X177275000Y-68500000D03*
X177275000Y-66425000D03*
%TD*%
D12*
%TO.C,C36*%
X168000000Y-73000000D03*
X166275000Y-73000000D03*
%TD*%
D22*
%TO.C,C22*%
X173275000Y-68518750D03*
X173275000Y-66443750D03*
%TD*%
D11*
%TO.C,R9*%
X166000000Y-89000000D03*
X164175000Y-89000000D03*
%TD*%
D22*
%TO.C,C33*%
X175275000Y-68481250D03*
X175275000Y-66406250D03*
%TD*%
D14*
%TO.C,C13*%
X164262500Y-76000000D03*
X162187500Y-76000000D03*
%TD*%
D11*
%TO.C,R4*%
X183905000Y-71970000D03*
X182080000Y-71970000D03*
%TD*%
D16*
%TO.C,C11*%
X190862500Y-49500000D03*
X190862500Y-51575000D03*
%TD*%
D12*
%TO.C,C18*%
X167862500Y-78500000D03*
X166137500Y-78500000D03*
%TD*%
D15*
%TO.C,C27*%
X182412500Y-68500000D03*
X182412500Y-66775000D03*
%TD*%
D13*
%TO.C,R25*%
X157500000Y-78675000D03*
X157500000Y-80500000D03*
%TD*%
D11*
%TO.C,R11*%
X167912500Y-61000000D03*
X166087500Y-61000000D03*
%TD*%
D12*
%TO.C,C15*%
X164362500Y-79500000D03*
X162637500Y-79500000D03*
%TD*%
D23*
%TO.C,U8*%
X188500000Y-49600000D03*
X188500000Y-50550000D03*
X188500000Y-51500000D03*
X185990000Y-51500000D03*
X185990000Y-49600000D03*
%TD*%
D19*
%TO.C,Q2*%
X166500000Y-84860000D03*
D20*
X165230000Y-84860000D03*
X163960000Y-84860000D03*
%TD*%
D24*
%TO.C,D11*%
X197475000Y-85100000D03*
X197475000Y-87000000D03*
X195365000Y-86050000D03*
%TD*%
D11*
%TO.C,R16*%
X180810000Y-63330000D03*
X178985000Y-63330000D03*
%TD*%
D22*
%TO.C,C25*%
X186500000Y-76575000D03*
X186500000Y-74500000D03*
%TD*%
D25*
%TO.C,D3*%
X193500000Y-54500000D03*
X189500000Y-54500000D03*
%TD*%
D26*
%TO.C,C47*%
X188775000Y-76000000D03*
X190500000Y-76000000D03*
%TD*%
D10*
%TO.C,R19*%
X173587500Y-71000000D03*
X175412500Y-71000000D03*
%TD*%
D11*
%TO.C,R8*%
X180770000Y-61800000D03*
X178945000Y-61800000D03*
%TD*%
D15*
%TO.C,C29*%
X183912500Y-68500000D03*
X183912500Y-66775000D03*
%TD*%
D10*
%TO.C,R40*%
X190587500Y-89500000D03*
X192412500Y-89500000D03*
%TD*%
D15*
%TO.C,C30*%
X172892500Y-63000000D03*
X172892500Y-61275000D03*
%TD*%
D12*
%TO.C,C43*%
X167862500Y-64000000D03*
X166137500Y-64000000D03*
%TD*%
D25*
%TO.C,D1*%
X186500000Y-54500000D03*
X182500000Y-54500000D03*
%TD*%
D11*
%TO.C,R12*%
X167912500Y-62500000D03*
X166087500Y-62500000D03*
%TD*%
D15*
%TO.C,C31*%
X174412500Y-63000000D03*
X174412500Y-61275000D03*
%TD*%
D12*
%TO.C,C17*%
X167862500Y-77000000D03*
X166137500Y-77000000D03*
%TD*%
D10*
%TO.C,R30*%
X172762500Y-88000000D03*
X174587500Y-88000000D03*
%TD*%
D14*
%TO.C,C45*%
X162575000Y-73000000D03*
X160500000Y-73000000D03*
%TD*%
D11*
%TO.C,R3*%
X184325000Y-63000000D03*
X182500000Y-63000000D03*
%TD*%
M02*
