M48
; DRILL file {KiCad 9.0.7} date 2026-08-05T18:32:06+0530
; FORMAT={-:-/ absolute / metric / decimal}
; #@! TF.CreationDate,2026-08-05T18:32:06+05:30
; #@! TF.GenerationSoftware,Kicad,Pcbnew,9.0.7
; #@! TF.FileFunction,Plated,1,6,PTH
FMAT,2
METRIC
; #@! TA.AperFunction,Plated,PTH,ViaDrill
T1C0.200
; #@! TA.AperFunction,Plated,PTH,ViaDrill
T2C0.300
; #@! TA.AperFunction,Plated,PTH,ComponentDrill
T3C0.750
%
G90
G05
T1
X173.22Y-76.81
T2
X153.3Y-73.5
X153.85Y-72.0
X154.0Y-61.0
X154.0Y-83.5
X154.26Y-59.65
X154.5Y-58.5
X154.97Y-73.92
X155.0Y-57.5
X155.15Y-71.4
X155.5Y-69.5
X155.72Y-90.4
X156.5Y-77.5
X156.65Y-79.52
X157.1Y-68.76
X157.27Y-81.53
X157.5Y-76.0
X158.0Y-67.0
X158.06Y-82.73
X159.313Y-74.333
X160.29Y-92.89
X160.73Y-52.0
X160.862Y-80.83
X160.926Y-86.489
X161.456Y-81.26
X161.5Y-73.0
X161.662Y-81.996
X162.3Y-51.95
X162.71Y-62.67
X163.0Y-77.0
X163.09Y-86.5
X163.232Y-59.0
X163.25Y-52.25
X163.605Y-58.292
X163.85Y-74.579
X164.23Y-60.25
X165.047Y-71.838
X165.15Y-80.229
X165.88Y-83.62
X165.9Y-87.51
X165.92Y-68.73
X166.23Y-51.82
X166.68Y-57.97
X166.998Y-62.939
X167.001Y-77.778
X167.008Y-74.415
X167.45Y-51.65
X168.125Y-50.625
X168.34Y-96.72
X168.69Y-81.29
X169.0Y-55.5
X169.22Y-62.393
X169.375Y-50.615
X169.404Y-81.751
X169.431Y-72.067
X169.46Y-58.89
X169.47Y-74.064
X169.63Y-72.758
X169.96Y-83.39
X170.13Y-73.66
X170.499Y-91.851
X170.83Y-80.41
X170.84Y-96.53
X171.985Y-57.986
X172.044Y-93.842
X172.368Y-72.197
X172.376Y-65.067
X172.376Y-70.67
X172.526Y-75.884
X173.0Y-81.0
X173.5Y-89.17
X173.61Y-60.51
X173.887Y-73.325
X173.926Y-64.726
X174.211Y-67.675
X174.425Y-71.87
X174.43Y-88.96
X174.634Y-73.258
X175.574Y-65.121
X175.692Y-76.25
X175.841Y-57.9
X176.004Y-57.168
X176.201Y-65.529
X176.314Y-73.2
X176.35Y-81.3
X176.354Y-71.88
X176.979Y-57.387
X177.144Y-85.464
X177.418Y-77.603
X177.48Y-65.133
X177.963Y-63.288
X177.968Y-83.25
X178.0Y-52.0
X178.07Y-84.23
X178.226Y-62.546
X178.23Y-69.92
X178.811Y-57.545
X178.82Y-94.78
X179.0Y-52.0
X179.431Y-75.799
X179.6Y-95.18
X179.819Y-82.968
X179.882Y-71.87
X179.93Y-65.5
X180.004Y-61.085
X180.19Y-57.42
X180.665Y-53.565
X180.67Y-60.861
X180.75Y-57.839
X181.12Y-91.68
X181.135Y-83.21
X181.385Y-85.635
X181.575Y-87.469
X181.629Y-53.1
X181.649Y-72.924
X181.75Y-93.549
X181.75Y-63.97
X182.0Y-83.207
X182.55Y-93.58
X182.604Y-60.383
X182.899Y-72.788
X183.025Y-69.426
X183.529Y-73.266
X183.76Y-61.037
X184.31Y-89.0
X184.33Y-78.76
X184.5Y-54.0
X184.5Y-55.5
X185.215Y-63.83
X185.633Y-85.577
X186.0Y-75.5
X186.107Y-58.275
X186.257Y-77.753
X186.98Y-77.49
X187.134Y-59.51
X187.75Y-82.53
X187.85Y-57.68
X187.859Y-59.136
X187.943Y-72.085
X188.201Y-70.932
X188.303Y-74.037
X188.35Y-83.78
X189.215Y-67.593
X189.28Y-61.37
X189.4Y-71.499
X189.703Y-60.026
X190.055Y-77.4
X190.607Y-82.975
X190.78Y-52.662
X191.2Y-83.62
X191.45Y-77.32
X191.512Y-88.03
X191.55Y-74.424
X192.34Y-87.06
X192.481Y-50.612
X192.525Y-71.71
X192.63Y-92.949
X192.82Y-71.062
X193.71Y-72.39
X193.75Y-65.555
X193.912Y-73.097
X194.23Y-86.86
X194.352Y-71.906
X195.036Y-73.173
X196.29Y-87.56
X198.46Y-86.14
X198.65Y-87.66
T3
X163.96Y-84.86
X165.23Y-84.86
X166.5Y-84.86
X169.46Y-85.0
X170.73Y-85.0
X172.0Y-85.0
M30
