%TF.GenerationSoftware,KiCad,Pcbnew,9.0.7*%
%TF.CreationDate,2026-08-05T18:31:54+05:30*%
%TF.ProjectId,custom_fc_rat,63757374-6f6d-45f6-9663-5f7261742e6b,rev?*%
%TF.SameCoordinates,Original*%
%TF.FileFunction,Copper,L5,Inr*%
%TF.FilePolarity,Positive*%
%FSLAX46Y46*%
G04 Gerber Fmt 4.6, Leading zero omitted, Abs format (unit mm)*
G04 Created by KiCad (PCBNEW 9.0.7) date 2026-08-05 18:31:54*
%MOMM*%
%LPD*%
G01*
G04 APERTURE LIST*
%TA.AperFunction,ComponentPad*%
%ADD10R,1.050000X1.500000*%
%TD*%
%TA.AperFunction,ComponentPad*%
%ADD11O,1.050000X1.500000*%
%TD*%
%TA.AperFunction,ViaPad*%
%ADD12C,0.500000*%
%TD*%
%TA.AperFunction,ViaPad*%
%ADD13C,0.600000*%
%TD*%
%TA.AperFunction,ViaPad*%
%ADD14C,0.400000*%
%TD*%
%TA.AperFunction,Conductor*%
%ADD15C,0.200000*%
%TD*%
G04 APERTURE END LIST*
D10*
%TO.N,/IO_FMU/USART3_RX*%
%TO.C,Q1*%
X172000000Y-85000000D03*
D11*
%TO.N,Net-(Q1-B)*%
X170730000Y-85000000D03*
%TO.N,GND*%
X169460000Y-85000000D03*
%TD*%
D10*
%TO.N,/IO_FMU/USART3_RX*%
%TO.C,Q2*%
X166500000Y-84860000D03*
D11*
%TO.N,Net-(J16-Pin_2)*%
X165230000Y-84860000D03*
%TO.N,GND*%
X163960000Y-84860000D03*
%TD*%
D12*
%TO.N,+3.3V*%
X192480717Y-50611576D03*
D13*
X169470000Y-74064495D03*
X154970000Y-73920000D03*
D12*
X188303356Y-74037245D03*
D13*
X177967500Y-83250000D03*
X169403885Y-81751379D03*
X184310000Y-89000000D03*
D12*
X175573705Y-65120763D03*
X169000000Y-55500000D03*
D13*
X163849876Y-74579363D03*
D12*
X174211390Y-67675006D03*
D13*
X169460000Y-58890000D03*
D12*
X178103999Y-73224987D03*
D13*
X181513563Y-64800403D03*
X183727184Y-63947689D03*
D12*
X185221300Y-62330121D03*
%TO.N,GND*%
X161500000Y-73000000D03*
X184330000Y-78760000D03*
X174425256Y-71870000D03*
X186000000Y-75500000D03*
X173000000Y-81000000D03*
X179882498Y-71870000D03*
X163000000Y-77000000D03*
X194230000Y-86860000D03*
X157500000Y-76000000D03*
X169430645Y-72066733D03*
X184500000Y-54000000D03*
D13*
X173610000Y-60510000D03*
D12*
X158000000Y-67000000D03*
X191450000Y-77320000D03*
X185633061Y-85576629D03*
X170130000Y-73660000D03*
X190000000Y-50500000D03*
X160050000Y-81000000D03*
X167019962Y-79243585D03*
X178250000Y-65470000D03*
X181500000Y-52000000D03*
X175400000Y-60180000D03*
X159213848Y-73386154D03*
%TO.N,Net-(U4-NRST)*%
X156650000Y-79520000D03*
D13*
%TO.N,/fmu_mcu_power/D_NRST*%
X163605165Y-58292243D03*
X166680000Y-57970000D03*
D12*
%TO.N,/fmu_mcu_power/D_BOOBT0_R*%
X169220285Y-62392613D03*
D13*
X164230000Y-60250000D03*
D12*
X175840558Y-57900000D03*
%TO.N,Net-(U2-VCAP_1)*%
X186980000Y-77490000D03*
%TO.N,Net-(U2-VCAP_2)*%
X181710000Y-57130000D03*
X185251769Y-61447239D03*
%TO.N,/fmu_mcu_power/VDDA*%
X171984804Y-57985935D03*
X172375502Y-70670000D03*
X176200000Y-63920000D03*
D13*
%TO.N,+5V*%
X170498668Y-91851000D03*
D12*
X193750000Y-65555343D03*
D13*
X165920000Y-68730000D03*
D12*
X165047069Y-71837567D03*
D13*
X174500000Y-70000000D03*
D12*
X188300000Y-53048729D03*
%TO.N,Net-(C37-Pad1)*%
X159312561Y-74333397D03*
X157100000Y-68760000D03*
%TO.N,/fmu_mcu_power/5V_USB*%
X184500000Y-55500000D03*
%TO.N,/fmu_mcu_power/EXTERNAL_CS1*%
X175692148Y-76250000D03*
X172043940Y-93842472D03*
%TO.N,Net-(D2-A)*%
X160290000Y-92890000D03*
%TO.N,Net-(D4-K)*%
X190780187Y-52662500D03*
%TO.N,Net-(D5-A)*%
X158060000Y-82730000D03*
%TO.N,Net-(D7-A)*%
X181120000Y-91680000D03*
%TO.N,Net-(D8-A)*%
X181575479Y-87469171D03*
%TO.N,Net-(D9-A)*%
X181384585Y-85634557D03*
%TO.N,Net-(J7-Pin_3)*%
X198460000Y-86140000D03*
%TO.N,Net-(J7-Pin_2)*%
X196290000Y-87560000D03*
X198650000Y-87660000D03*
%TO.N,/fmu_mcu_power/USART2_CTS*%
X180750440Y-57839417D03*
X189703297Y-60026176D03*
%TO.N,/fmu_mcu_power/USART2_TX*%
X181750000Y-63970000D03*
X180670000Y-60860834D03*
X189399513Y-71499018D03*
X185214661Y-63830000D03*
%TO.N,/fmu_mcu_power/USART2_RX*%
X189215126Y-67592573D03*
X180004164Y-61085125D03*
%TO.N,/fmu_mcu_power/USART2_RTS*%
X187850000Y-57680000D03*
X180190000Y-57420000D03*
%TO.N,/fmu_mcu_power/SPI3_MOSI*%
X179930274Y-65500000D03*
X168340000Y-96720000D03*
%TO.N,/fmu_mcu_power/SPI3_SCK*%
X178811500Y-57545309D03*
X188350000Y-83780000D03*
%TO.N,/fmu_mcu_power/EXTERNAL_CS2*%
X170840000Y-96530000D03*
X177143980Y-85463587D03*
%TO.N,/fmu_mcu_power/TIM1_CH4*%
X193912318Y-73097419D03*
X187702554Y-80388200D03*
%TO.N,/fmu_mcu_power/TIM4_CH3*%
X188201000Y-70932411D03*
X192820000Y-71062167D03*
%TO.N,/fmu_mcu_power/TIM1_CH3*%
X195036325Y-73173000D03*
%TO.N,/fmu_mcu_power/TIM4_CH2*%
X192524622Y-71709723D03*
X187942833Y-72085479D03*
%TO.N,/fmu_mcu_power/TIM2_CH1*%
X194351782Y-71906126D03*
X186891345Y-73099530D03*
%TO.N,/fmu_mcu_power/TIM2_CH2*%
X181135298Y-83209750D03*
X193710000Y-72390000D03*
X187750000Y-82530000D03*
X178651726Y-81300000D03*
D13*
%TO.N,/fmu_mcu_power/UART7_RX*%
X178230000Y-69920000D03*
D12*
X154260000Y-59650000D03*
%TO.N,/fmu_mcu_power/SWDIO*%
X189280000Y-61370000D03*
X154500000Y-58500000D03*
%TO.N,/fmu_mcu_power/SWDCLK*%
X186107042Y-58274524D03*
X155000000Y-57500000D03*
%TO.N,/fmu_mcu_power/UART7_TX*%
X154000000Y-61000000D03*
X179430733Y-75799454D03*
%TO.N,/fmu_mcu_power/UART5_RX*%
X181629080Y-53100000D03*
X168124999Y-50624999D03*
%TO.N,/fmu_mcu_power/TIM2_CH3*%
X172367699Y-72197355D03*
X160730000Y-52000000D03*
%TO.N,/fmu_mcu_power/UART5_TX*%
X169375001Y-50614999D03*
X180665000Y-53565000D03*
%TO.N,/fmu_mcu_power/3V3_EXTERNAL*%
X162299997Y-51949997D03*
%TO.N,/fmu_mcu_power/I2C1_SDA*%
X166230000Y-51820000D03*
X176003542Y-57167921D03*
X178676003Y-60770000D03*
%TO.N,/fmu_mcu_power/I2C1_SCL*%
X167450000Y-51650000D03*
X176979000Y-57386743D03*
X179818864Y-82967784D03*
X179930274Y-64615207D03*
%TO.N,/fmu_mcu_power/BATT_VOLTAGE_SENS*%
X178000000Y-52000000D03*
X176201366Y-65529357D03*
%TO.N,/fmu_mcu_power/BATT_CURRENT_SENS*%
X179000000Y-52000000D03*
X177480000Y-65132713D03*
%TO.N,/fmu_mcu_power/I2C4_SDA*%
X192340000Y-87060000D03*
X177962689Y-63287519D03*
%TO.N,/fmu_mcu_power/I2C4_SCL*%
X191511885Y-88030000D03*
X178225999Y-62546117D03*
D14*
%TO.N,/fmu_mcu_power/I2C2_SDA*%
X173220000Y-76810000D03*
D12*
X182550000Y-93580000D03*
X183529189Y-73266498D03*
%TO.N,/fmu_mcu_power/UART4_RX*%
X187859100Y-59136160D03*
X179600000Y-95180000D03*
%TO.N,/fmu_mcu_power/UART4_TX*%
X178820000Y-94780000D03*
X187134309Y-59510000D03*
%TO.N,/fmu_mcu_power/I2C2_SCL*%
X172526318Y-75883672D03*
X183025236Y-69426290D03*
X182899225Y-72787786D03*
X181749867Y-93549000D03*
%TO.N,/IO_FMU/TIM4_CH3*%
X154000000Y-83500000D03*
X155500000Y-69500000D03*
%TO.N,/IO_FMU/TIM4_CH4*%
X156500000Y-77500000D03*
X157269938Y-81530000D03*
%TO.N,/IO_FMU/TIM3_CH4*%
X155720000Y-90400000D03*
X160926340Y-86488737D03*
%TO.N,/IO_FMU/USART3_RX*%
X165900000Y-87510000D03*
X173500000Y-89170000D03*
%TO.N,/IO_FMU/SWDCLK*%
X163232222Y-58999998D03*
X169630000Y-72758417D03*
%TO.N,/IO_FMU/USART1_RX*%
X153850000Y-72000000D03*
X166300000Y-79900000D03*
%TO.N,/IO_FMU/USART1_TX*%
X169960000Y-83390000D03*
X153300000Y-73500000D03*
%TO.N,/IO_FMU/SWDIO*%
X155150000Y-71400000D03*
X160861570Y-80829612D03*
%TO.N,/IO_FMU/RCIN*%
X166570000Y-71745972D03*
X167001295Y-77778353D03*
%TO.N,Net-(Q1-B)*%
X174430000Y-88960000D03*
%TO.N,Net-(R12-Pad1)*%
X162710000Y-62670000D03*
X166997745Y-62939466D03*
%TO.N,Net-(U10-~{WP}{slash}IO_{2})*%
X191550000Y-74424000D03*
%TO.N,/fmu_mcu_power/VDD_5V_SENS*%
X173886615Y-73324856D03*
%TO.N,/fmu_mcu_power/SCALED_V3V3*%
X176353506Y-71879755D03*
%TO.N,/IO_FMU/D_BOOBT0_R*%
X158227180Y-79736080D03*
%TO.N,/IO_FMU/USART3_TX*%
X165880000Y-83620000D03*
%TO.N,/IO_FMU/RING_LED*%
X163090000Y-86500000D03*
X165150001Y-80228840D03*
D13*
%TO.N,/IO_FMU/AMBER_LED*%
X161662500Y-81995916D03*
X168690000Y-81290000D03*
D12*
%TO.N,/fmu_mcu_power/GPIO_LED_GREEN*%
X173925503Y-64725969D03*
X177050000Y-67740000D03*
X180610000Y-70010000D03*
X182301653Y-73235036D03*
%TO.N,/fmu_mcu_power/GPIO_LED_BLUE*%
X172375502Y-65066672D03*
X178070000Y-84230000D03*
X167070000Y-66010000D03*
%TO.N,/fmu_mcu_power/GPIO_LED_RED*%
X182000000Y-83207000D03*
X169312298Y-65139040D03*
%TO.N,Net-(U9-Vref)*%
X192630000Y-92948578D03*
%TO.N,/IMU/ICM42688_CS*%
X179806057Y-76448789D03*
X187449944Y-73600000D03*
%TO.N,/IMU/SPI1_MOSI*%
X177418254Y-77603216D03*
X179458159Y-57255952D03*
%TO.N,/IMU/DRDY1_ICM42688*%
X176350000Y-81300000D03*
X181649349Y-72923515D03*
%TO.N,/IMU/SPI1_SCK*%
X174633647Y-73258163D03*
X178161044Y-76046097D03*
%TO.N,/fmu_mcu_power/CAN1_RX*%
X182603549Y-60382832D03*
X191200000Y-83620000D03*
%TO.N,/fmu_mcu_power/SPI2_MISO*%
X190055450Y-77400000D03*
%TO.N,/fmu_mcu_power/SPI4_MISO*%
X182158716Y-78577469D03*
X169850000Y-62799998D03*
%TO.N,/fmu_mcu_power/SPI4_MOSI*%
X172615025Y-62675000D03*
X182040000Y-77840000D03*
%TO.N,/fmu_mcu_power/BMI270_CS*%
X176313873Y-73200000D03*
X186257312Y-77753262D03*
%TO.N,/fmu_mcu_power/USB_DM*%
X188752500Y-54248235D03*
X187720000Y-62900000D03*
%TO.N,/fmu_mcu_power/CAN1_TX*%
X190607435Y-82975284D03*
X183759790Y-61037280D03*
%TO.N,/fmu_mcu_power/DRDY3_BMI270*%
X185091470Y-65925000D03*
X182225000Y-79320000D03*
%TO.N,/fmu_mcu_power/USB_DP*%
X187750000Y-53925000D03*
X185208820Y-63080020D03*
%TO.N,/IMU/DRDY4_ICP20100*%
X182136907Y-80679851D03*
X188015126Y-67644788D03*
%TO.N,/IO_FMU/USART2_TX*%
X174155735Y-57754265D03*
X167008215Y-74414778D03*
%TO.N,/IO_FMU/USART2_RX*%
X161455927Y-81259975D03*
%TO.N,/IO_FMU/SAFETY_LED*%
X163250000Y-52250000D03*
X170830418Y-80409582D03*
%TO.N,/IMU/DRDY2_BMM150*%
X184341496Y-65623472D03*
D14*
X173220000Y-77360000D03*
%TD*%
D15*
%TO.N,Net-(U2-VCAP_2)*%
X181710000Y-57956665D02*
X181710000Y-57130000D01*
X185251769Y-61447239D02*
X185251769Y-61432142D01*
X185177215Y-61357588D02*
X185110923Y-61357588D01*
X185110923Y-61357588D02*
X181710000Y-57956665D01*
X185251769Y-61432142D02*
X185177215Y-61357588D01*
%TO.N,Net-(C37-Pad1)*%
X157100000Y-72120836D02*
X159312561Y-74333397D01*
X157100000Y-68760000D02*
X157100000Y-72120836D01*
%TO.N,/fmu_mcu_power/UART7_RX*%
X174810000Y-63360000D02*
X178230000Y-66780000D01*
X154260000Y-59650000D02*
X154360000Y-59650000D01*
X154360000Y-59650000D02*
X156910000Y-57100000D01*
X156910000Y-57100000D02*
X173762088Y-57100000D01*
X173806906Y-57100000D02*
X174350000Y-57100000D01*
X174810000Y-57560000D02*
X174810000Y-63360000D01*
X178230000Y-66780000D02*
X178230000Y-69920000D01*
X174350000Y-57100000D02*
X174810000Y-57560000D01*
%TO.N,/IO_FMU/USART1_RX*%
X153850000Y-72000000D02*
X155290000Y-72000000D01*
X155290000Y-72000000D02*
X162800000Y-79510000D01*
X162800000Y-79510000D02*
X165910000Y-79510000D01*
X165910000Y-79510000D02*
X166300000Y-79900000D01*
%TO.N,/IO_FMU/RCIN*%
X166190000Y-72125972D02*
X166570000Y-71745972D01*
X167001295Y-77778353D02*
X166190000Y-76967058D01*
X166190000Y-76967058D02*
X166190000Y-72125972D01*
%TO.N,/IO_FMU/RING_LED*%
X162471182Y-82958818D02*
X162471182Y-85881182D01*
X162471182Y-85881182D02*
X163090000Y-86500000D01*
X165150001Y-80228840D02*
X165150001Y-80279999D01*
X165150001Y-80279999D02*
X162471182Y-82958818D01*
%TO.N,/fmu_mcu_power/GPIO_LED_GREEN*%
X180610000Y-70010000D02*
X182301653Y-71701653D01*
X182301653Y-71701653D02*
X182301653Y-73235036D01*
X173925503Y-64725969D02*
X174035969Y-64725969D01*
X174035969Y-64725969D02*
X177050000Y-67740000D01*
%TO.N,/fmu_mcu_power/GPIO_LED_BLUE*%
X172048040Y-64588040D02*
X168081960Y-64588040D01*
X172375502Y-65066672D02*
X172375502Y-64915502D01*
X168081960Y-64588040D02*
X167070000Y-65600000D01*
X172375502Y-64915502D02*
X172048040Y-64588040D01*
X167070000Y-65600000D02*
X167070000Y-66010000D01*
%TO.N,/fmu_mcu_power/GPIO_LED_RED*%
X170540000Y-65150000D02*
X171780000Y-66390000D01*
X178610000Y-82150000D02*
X180943000Y-82150000D01*
X169323258Y-65150000D02*
X170540000Y-65150000D01*
X180943000Y-82150000D02*
X182000000Y-83207000D01*
X171780000Y-66390000D02*
X171780000Y-74358122D01*
X169312298Y-65139040D02*
X169323258Y-65150000D01*
X173830000Y-77370000D02*
X178610000Y-82150000D01*
X171780000Y-74358122D02*
X173830000Y-76408122D01*
X173830000Y-76408122D02*
X173830000Y-77370000D01*
%TO.N,/IMU/ICM42688_CS*%
X187449944Y-73600000D02*
X187089944Y-73960000D01*
X180050000Y-76204846D02*
X179806057Y-76448789D01*
X187089944Y-73960000D02*
X181489546Y-73960000D01*
X180050000Y-75399546D02*
X180050000Y-76204846D01*
X181489546Y-73960000D02*
X180050000Y-75399546D01*
%TO.N,/IMU/SPI1_MOSI*%
X177418254Y-77603216D02*
X177606784Y-77603216D01*
X177606784Y-77603216D02*
X178850000Y-76360000D01*
X179458159Y-60836371D02*
X179458159Y-57255952D01*
X178850000Y-76360000D02*
X178850000Y-61444530D01*
X178850000Y-61444530D02*
X179458159Y-60836371D01*
%TO.N,/IMU/SPI1_SCK*%
X178161044Y-76046097D02*
X177346652Y-76046097D01*
X174633647Y-73333092D02*
X174633647Y-73258163D01*
X177346652Y-76046097D02*
X174633647Y-73333092D01*
%TO.N,/fmu_mcu_power/SPI4_MISO*%
X172975502Y-70918529D02*
X172975502Y-64435502D01*
X172975502Y-64435502D02*
X171350000Y-62810000D01*
X172918699Y-74890766D02*
X172918699Y-70975333D01*
X182158716Y-78577469D02*
X181736185Y-79000000D01*
X177027933Y-79000000D02*
X172918699Y-74890766D01*
X181736185Y-79000000D02*
X177027933Y-79000000D01*
X172918699Y-70975333D02*
X172975502Y-70918529D01*
X171350000Y-62810000D02*
X169860002Y-62810000D01*
X169860002Y-62810000D02*
X169850000Y-62799998D01*
%TO.N,/fmu_mcu_power/SPI4_MOSI*%
X172635000Y-62675000D02*
X172615025Y-62675000D01*
X177193619Y-78600000D02*
X173318699Y-74725080D01*
X173375503Y-63415503D02*
X172635000Y-62675000D01*
X182040000Y-77840000D02*
X181280000Y-78600000D01*
X173318699Y-71141018D02*
X173375503Y-71084211D01*
X173375503Y-71084211D02*
X173375503Y-63415503D01*
X173318699Y-74725080D02*
X173318699Y-71141018D01*
X181280000Y-78600000D02*
X177193619Y-78600000D01*
%TO.N,/fmu_mcu_power/USB_DM*%
X188860000Y-54343500D02*
X188860000Y-54310000D01*
X188798235Y-54248235D02*
X188752500Y-54248235D01*
X190640000Y-56123500D02*
X188860000Y-54343500D01*
X188860000Y-54310000D02*
X188798235Y-54248235D01*
X187720000Y-62900000D02*
X188840000Y-62900000D01*
X190640000Y-61100000D02*
X190640000Y-56123500D01*
X188840000Y-62900000D02*
X190640000Y-61100000D01*
%TO.N,/fmu_mcu_power/DRDY3_BMI270*%
X181566142Y-80953333D02*
X181888910Y-81276101D01*
X190210000Y-76460000D02*
X190210000Y-67210000D01*
X185393899Y-81276101D02*
X190210000Y-76460000D01*
X188630000Y-65630000D02*
X185386470Y-65630000D01*
X182178487Y-79406780D02*
X182178487Y-79366513D01*
X185386470Y-65630000D02*
X185091470Y-65925000D01*
X182225000Y-79320000D02*
X181566142Y-79978858D01*
X181566142Y-79978858D02*
X181566142Y-80953333D01*
X190210000Y-67210000D02*
X188630000Y-65630000D01*
X181888910Y-81276101D02*
X185393899Y-81276101D01*
X182178487Y-79366513D02*
X182225000Y-79320000D01*
%TO.N,/fmu_mcu_power/USB_DP*%
X185270019Y-62996514D02*
X185270019Y-63018821D01*
X187750000Y-53925000D02*
X187750000Y-54094264D01*
X187750000Y-54094264D02*
X189950000Y-56294264D01*
X189950000Y-58515238D02*
X185468724Y-62996514D01*
X185270019Y-63018821D02*
X185208820Y-63080020D01*
X189950000Y-56294264D02*
X189950000Y-58515238D01*
X185468724Y-62996514D02*
X185270019Y-62996514D01*
%TO.N,/IMU/DRDY4_ICP20100*%
X184638678Y-80679851D02*
X188890000Y-76428529D01*
X188026310Y-67714445D02*
X188015126Y-67703261D01*
X188015126Y-67703261D02*
X188015126Y-67644788D01*
X188890000Y-71160002D02*
X188890000Y-68601093D01*
X188890000Y-68601093D02*
X188026310Y-67737403D01*
X182136907Y-80679851D02*
X184638678Y-80679851D01*
X188890000Y-71838034D02*
X188799513Y-71747547D01*
X188026310Y-67737403D02*
X188026310Y-67714445D01*
X188890000Y-76428529D02*
X188890000Y-71838034D01*
X188799513Y-71747547D02*
X188799513Y-71250489D01*
X188799513Y-71250489D02*
X188890000Y-71160002D01*
%TO.N,/IO_FMU/USART2_TX*%
X167170000Y-74252993D02*
X167170000Y-69060761D01*
X173010104Y-57754265D02*
X174155735Y-57754265D01*
X167170000Y-69060761D02*
X166460000Y-68350761D01*
X166460000Y-68350761D02*
X166460000Y-64304369D01*
X167008215Y-74414778D02*
X167170000Y-74252993D01*
X166460000Y-64304369D02*
X173010104Y-57754265D01*
%TO.N,/IMU/DRDY2_BMM150*%
X190840000Y-67274315D02*
X188605685Y-65040000D01*
X188605685Y-65040000D02*
X184835173Y-65040000D01*
X173220000Y-77360000D02*
X179600000Y-83740000D01*
X184341496Y-65533677D02*
X184341496Y-65623472D01*
X184835173Y-65040000D02*
X184341496Y-65533677D01*
X190840000Y-80376753D02*
X190840000Y-67274315D01*
X179600000Y-83740000D02*
X179650000Y-83740000D01*
X179870000Y-83960000D02*
X187256753Y-83960000D01*
X179650000Y-83740000D02*
X179870000Y-83960000D01*
X187256753Y-83960000D02*
X190840000Y-80376753D01*
%TD*%
M02*
