%TF.GenerationSoftware,KiCad,Pcbnew,9.0.7*%
%TF.CreationDate,2026-08-05T18:31:55+05:30*%
%TF.ProjectId,custom_fc_rat,63757374-6f6d-45f6-9663-5f7261742e6b,rev?*%
%TF.SameCoordinates,Original*%
%TF.FileFunction,Soldermask,Top*%
%TF.FilePolarity,Negative*%
%FSLAX46Y46*%
G04 Gerber Fmt 4.6, Leading zero omitted, Abs format (unit mm)*
G04 Created by KiCad (PCBNEW 9.0.7) date 2026-08-05 18:31:55*
%MOMM*%
%LPD*%
G01*
G04 APERTURE LIST*
G04 Aperture macros list*
%AMRoundRect*
0 Rectangle with rounded corners*
0 $1 Rounding radius*
0 $2 $3 $4 $5 $6 $7 $8 $9 X,Y pos of 4 corners*
0 Add a 4 corners polygon primitive as box body*
4,1,4,$2,$3,$4,$5,$6,$7,$8,$9,$2,$3,0*
0 Add four circle primitives for the rounded corners*
1,1,$1+$1,$2,$3*
1,1,$1+$1,$4,$5*
1,1,$1+$1,$6,$7*
1,1,$1+$1,$8,$9*
0 Add four rect primitives between the rounded corners*
20,1,$1+$1,$2,$3,$4,$5,0*
20,1,$1+$1,$4,$5,$6,$7,0*
20,1,$1+$1,$6,$7,$8,$9,0*
20,1,$1+$1,$8,$9,$2,$3,0*%
G04 Aperture macros list end*
%ADD10C,0.010000*%
%ADD11RoundRect,0.237500X-0.237500X0.300000X-0.237500X-0.300000X0.237500X-0.300000X0.237500X0.300000X0*%
%ADD12RoundRect,0.150000X0.700000X-0.150000X0.700000X0.150000X-0.700000X0.150000X-0.700000X-0.150000X0*%
%ADD13RoundRect,0.250000X1.100000X-0.250000X1.100000X0.250000X-1.100000X0.250000X-1.100000X-0.250000X0*%
%ADD14RoundRect,0.150000X-0.150000X-0.700000X0.150000X-0.700000X0.150000X0.700000X-0.150000X0.700000X0*%
%ADD15RoundRect,0.250000X-0.250000X-1.150000X0.250000X-1.150000X0.250000X1.150000X-0.250000X1.150000X0*%
%ADD16RoundRect,0.237500X0.237500X-0.300000X0.237500X0.300000X-0.237500X0.300000X-0.237500X-0.300000X0*%
%ADD17RoundRect,0.237500X0.250000X0.237500X-0.250000X0.237500X-0.250000X-0.237500X0.250000X-0.237500X0*%
%ADD18RoundRect,0.237500X0.300000X0.237500X-0.300000X0.237500X-0.300000X-0.237500X0.300000X-0.237500X0*%
%ADD19RoundRect,0.237500X-0.300000X-0.237500X0.300000X-0.237500X0.300000X0.237500X-0.300000X0.237500X0*%
%ADD20C,0.200000*%
%ADD21R,1.700000X1.000000*%
%ADD22RoundRect,0.102000X-0.600000X-0.700000X0.600000X-0.700000X0.600000X0.700000X-0.600000X0.700000X0*%
%ADD23RoundRect,0.237500X0.237500X-0.250000X0.237500X0.250000X-0.237500X0.250000X-0.237500X-0.250000X0*%
%ADD24RoundRect,0.150000X0.150000X0.700000X-0.150000X0.700000X-0.150000X-0.700000X0.150000X-0.700000X0*%
%ADD25RoundRect,0.250000X0.250000X1.150000X-0.250000X1.150000X-0.250000X-1.150000X0.250000X-1.150000X0*%
%ADD26RoundRect,0.250001X-0.624999X0.462499X-0.624999X-0.462499X0.624999X-0.462499X0.624999X0.462499X0*%
%ADD27RoundRect,0.250000X1.150000X-0.250000X1.150000X0.250000X-1.150000X0.250000X-1.150000X-0.250000X0*%
%ADD28RoundRect,0.150000X-0.825000X-0.150000X0.825000X-0.150000X0.825000X0.150000X-0.825000X0.150000X0*%
%ADD29RoundRect,0.150000X-0.700000X0.150000X-0.700000X-0.150000X0.700000X-0.150000X0.700000X0.150000X0*%
%ADD30RoundRect,0.250000X-1.150000X0.250000X-1.150000X-0.250000X1.150000X-0.250000X1.150000X0.250000X0*%
%ADD31RoundRect,0.250000X-0.337500X-0.475000X0.337500X-0.475000X0.337500X0.475000X-0.337500X0.475000X0*%
%ADD32RoundRect,0.250001X0.624999X-0.462499X0.624999X0.462499X-0.624999X0.462499X-0.624999X-0.462499X0*%
%ADD33RoundRect,0.069250X-0.227750X-0.207750X0.227750X-0.207750X0.227750X0.207750X-0.227750X0.207750X0*%
%ADD34RoundRect,0.069250X-0.207750X-0.227750X0.207750X-0.227750X0.207750X0.227750X-0.207750X0.227750X0*%
%ADD35R,1.320800X1.447800*%
%ADD36RoundRect,0.250001X-0.462499X-0.624999X0.462499X-0.624999X0.462499X0.624999X-0.462499X0.624999X0*%
%ADD37RoundRect,0.093750X-0.156250X-0.093750X0.156250X-0.093750X0.156250X0.093750X-0.156250X0.093750X0*%
%ADD38RoundRect,0.075000X-0.250000X-0.075000X0.250000X-0.075000X0.250000X0.075000X-0.250000X0.075000X0*%
%ADD39RoundRect,0.075000X-0.725000X-0.075000X0.725000X-0.075000X0.725000X0.075000X-0.725000X0.075000X0*%
%ADD40RoundRect,0.075000X-0.075000X-0.725000X0.075000X-0.725000X0.075000X0.725000X-0.075000X0.725000X0*%
%ADD41RoundRect,0.075000X-0.662500X-0.075000X0.662500X-0.075000X0.662500X0.075000X-0.662500X0.075000X0*%
%ADD42RoundRect,0.075000X-0.075000X-0.662500X0.075000X-0.662500X0.075000X0.662500X-0.075000X0.662500X0*%
%ADD43RoundRect,0.250000X0.475000X-0.337500X0.475000X0.337500X-0.475000X0.337500X-0.475000X-0.337500X0*%
%ADD44RoundRect,0.102000X-0.237500X-0.125000X0.237500X-0.125000X0.237500X0.125000X-0.237500X0.125000X0*%
%ADD45RoundRect,0.102000X-0.125000X-0.237500X0.125000X-0.237500X0.125000X0.237500X-0.125000X0.237500X0*%
%ADD46RoundRect,0.162500X0.162500X-0.650000X0.162500X0.650000X-0.162500X0.650000X-0.162500X-0.650000X0*%
%ADD47RoundRect,0.102000X-0.485000X0.500000X-0.485000X-0.500000X0.485000X-0.500000X0.485000X0.500000X0*%
%ADD48R,1.050000X1.500000*%
%ADD49O,1.050000X1.500000*%
G04 APERTURE END LIST*
D10*
%TO.C,U1*%
X176903000Y-76776000D02*
X176910000Y-76777000D01*
X176916000Y-76778000D01*
X176922000Y-76779000D01*
X176929000Y-76781000D01*
X176935000Y-76783000D01*
X176941000Y-76786000D01*
X176947000Y-76789000D01*
X176953000Y-76792000D01*
X176958000Y-76795000D01*
X176963000Y-76799000D01*
X176969000Y-76803000D01*
X176974000Y-76807000D01*
X176978000Y-76812000D01*
X176983000Y-76816000D01*
X176987000Y-76821000D01*
X176991000Y-76827000D01*
X176995000Y-76832000D01*
X176998000Y-76838000D01*
X177001000Y-76843000D01*
X177004000Y-76849000D01*
X177007000Y-76855000D01*
X177009000Y-76861000D01*
X177011000Y-76868000D01*
X177012000Y-76874000D01*
X177013000Y-76880000D01*
X177014000Y-76887000D01*
X177015000Y-76893000D01*
X177015000Y-76900000D01*
X177015000Y-77100000D01*
X177015000Y-77107000D01*
X177014000Y-77113000D01*
X177013000Y-77120000D01*
X177012000Y-77126000D01*
X177011000Y-77132000D01*
X177009000Y-77139000D01*
X177007000Y-77145000D01*
X177004000Y-77151000D01*
X177001000Y-77157000D01*
X176998000Y-77162000D01*
X176995000Y-77168000D01*
X176991000Y-77173000D01*
X176987000Y-77179000D01*
X176983000Y-77184000D01*
X176978000Y-77188000D01*
X176974000Y-77193000D01*
X176969000Y-77197000D01*
X176963000Y-77201000D01*
X176958000Y-77205000D01*
X176953000Y-77208000D01*
X176947000Y-77211000D01*
X176941000Y-77214000D01*
X176935000Y-77217000D01*
X176929000Y-77219000D01*
X176922000Y-77221000D01*
X176916000Y-77222000D01*
X176910000Y-77223000D01*
X176903000Y-77224000D01*
X176897000Y-77225000D01*
X176890000Y-77225000D01*
X176450000Y-77225000D01*
X176443000Y-77225000D01*
X176437000Y-77224000D01*
X176430000Y-77223000D01*
X176424000Y-77222000D01*
X176418000Y-77221000D01*
X176411000Y-77219000D01*
X176405000Y-77217000D01*
X176399000Y-77214000D01*
X176393000Y-77211000D01*
X176387000Y-77208000D01*
X176382000Y-77205000D01*
X176377000Y-77201000D01*
X176371000Y-77197000D01*
X176366000Y-77193000D01*
X176362000Y-77188000D01*
X176357000Y-77184000D01*
X176353000Y-77179000D01*
X176349000Y-77173000D01*
X176345000Y-77168000D01*
X176342000Y-77162000D01*
X176339000Y-77157000D01*
X176336000Y-77151000D01*
X176333000Y-77145000D01*
X176331000Y-77139000D01*
X176329000Y-77132000D01*
X176328000Y-77126000D01*
X176327000Y-77120000D01*
X176326000Y-77113000D01*
X176325000Y-77107000D01*
X176325000Y-77100000D01*
X176325000Y-76900000D01*
X176325000Y-76893000D01*
X176326000Y-76887000D01*
X176327000Y-76880000D01*
X176328000Y-76874000D01*
X176329000Y-76868000D01*
X176331000Y-76861000D01*
X176333000Y-76855000D01*
X176336000Y-76849000D01*
X176339000Y-76843000D01*
X176342000Y-76838000D01*
X176345000Y-76832000D01*
X176349000Y-76827000D01*
X176353000Y-76821000D01*
X176357000Y-76816000D01*
X176362000Y-76812000D01*
X176366000Y-76807000D01*
X176371000Y-76803000D01*
X176377000Y-76799000D01*
X176382000Y-76795000D01*
X176387000Y-76792000D01*
X176393000Y-76789000D01*
X176399000Y-76786000D01*
X176405000Y-76783000D01*
X176411000Y-76781000D01*
X176418000Y-76779000D01*
X176424000Y-76778000D01*
X176430000Y-76777000D01*
X176437000Y-76776000D01*
X176443000Y-76775000D01*
X176450000Y-76775000D01*
X176890000Y-76775000D01*
X176897000Y-76775000D01*
X176903000Y-76776000D01*
G36*
X176903000Y-76776000D02*
G01*
X176910000Y-76777000D01*
X176916000Y-76778000D01*
X176922000Y-76779000D01*
X176929000Y-76781000D01*
X176935000Y-76783000D01*
X176941000Y-76786000D01*
X176947000Y-76789000D01*
X176953000Y-76792000D01*
X176958000Y-76795000D01*
X176963000Y-76799000D01*
X176969000Y-76803000D01*
X176974000Y-76807000D01*
X176978000Y-76812000D01*
X176983000Y-76816000D01*
X176987000Y-76821000D01*
X176991000Y-76827000D01*
X176995000Y-76832000D01*
X176998000Y-76838000D01*
X177001000Y-76843000D01*
X177004000Y-76849000D01*
X177007000Y-76855000D01*
X177009000Y-76861000D01*
X177011000Y-76868000D01*
X177012000Y-76874000D01*
X177013000Y-76880000D01*
X177014000Y-76887000D01*
X177015000Y-76893000D01*
X177015000Y-76900000D01*
X177015000Y-77100000D01*
X177015000Y-77107000D01*
X177014000Y-77113000D01*
X177013000Y-77120000D01*
X177012000Y-77126000D01*
X177011000Y-77132000D01*
X177009000Y-77139000D01*
X177007000Y-77145000D01*
X177004000Y-77151000D01*
X177001000Y-77157000D01*
X176998000Y-77162000D01*
X176995000Y-77168000D01*
X176991000Y-77173000D01*
X176987000Y-77179000D01*
X176983000Y-77184000D01*
X176978000Y-77188000D01*
X176974000Y-77193000D01*
X176969000Y-77197000D01*
X176963000Y-77201000D01*
X176958000Y-77205000D01*
X176953000Y-77208000D01*
X176947000Y-77211000D01*
X176941000Y-77214000D01*
X176935000Y-77217000D01*
X176929000Y-77219000D01*
X176922000Y-77221000D01*
X176916000Y-77222000D01*
X176910000Y-77223000D01*
X176903000Y-77224000D01*
X176897000Y-77225000D01*
X176890000Y-77225000D01*
X176450000Y-77225000D01*
X176443000Y-77225000D01*
X176437000Y-77224000D01*
X176430000Y-77223000D01*
X176424000Y-77222000D01*
X176418000Y-77221000D01*
X176411000Y-77219000D01*
X176405000Y-77217000D01*
X176399000Y-77214000D01*
X176393000Y-77211000D01*
X176387000Y-77208000D01*
X176382000Y-77205000D01*
X176377000Y-77201000D01*
X176371000Y-77197000D01*
X176366000Y-77193000D01*
X176362000Y-77188000D01*
X176357000Y-77184000D01*
X176353000Y-77179000D01*
X176349000Y-77173000D01*
X176345000Y-77168000D01*
X176342000Y-77162000D01*
X176339000Y-77157000D01*
X176336000Y-77151000D01*
X176333000Y-77145000D01*
X176331000Y-77139000D01*
X176329000Y-77132000D01*
X176328000Y-77126000D01*
X176327000Y-77120000D01*
X176326000Y-77113000D01*
X176325000Y-77107000D01*
X176325000Y-77100000D01*
X176325000Y-76900000D01*
X176325000Y-76893000D01*
X176326000Y-76887000D01*
X176327000Y-76880000D01*
X176328000Y-76874000D01*
X176329000Y-76868000D01*
X176331000Y-76861000D01*
X176333000Y-76855000D01*
X176336000Y-76849000D01*
X176339000Y-76843000D01*
X176342000Y-76838000D01*
X176345000Y-76832000D01*
X176349000Y-76827000D01*
X176353000Y-76821000D01*
X176357000Y-76816000D01*
X176362000Y-76812000D01*
X176366000Y-76807000D01*
X176371000Y-76803000D01*
X176377000Y-76799000D01*
X176382000Y-76795000D01*
X176387000Y-76792000D01*
X176393000Y-76789000D01*
X176399000Y-76786000D01*
X176405000Y-76783000D01*
X176411000Y-76781000D01*
X176418000Y-76779000D01*
X176424000Y-76778000D01*
X176430000Y-76777000D01*
X176437000Y-76776000D01*
X176443000Y-76775000D01*
X176450000Y-76775000D01*
X176890000Y-76775000D01*
X176897000Y-76775000D01*
X176903000Y-76776000D01*
G37*
X176903000Y-77276000D02*
X176910000Y-77277000D01*
X176916000Y-77278000D01*
X176922000Y-77279000D01*
X176929000Y-77281000D01*
X176935000Y-77283000D01*
X176941000Y-77286000D01*
X176947000Y-77289000D01*
X176953000Y-77292000D01*
X176958000Y-77295000D01*
X176963000Y-77299000D01*
X176969000Y-77303000D01*
X176974000Y-77307000D01*
X176978000Y-77312000D01*
X176983000Y-77316000D01*
X176987000Y-77321000D01*
X176991000Y-77327000D01*
X176995000Y-77332000D01*
X176998000Y-77338000D01*
X177001000Y-77343000D01*
X177004000Y-77349000D01*
X177007000Y-77355000D01*
X177009000Y-77361000D01*
X177011000Y-77368000D01*
X177012000Y-77374000D01*
X177013000Y-77380000D01*
X177014000Y-77387000D01*
X177015000Y-77393000D01*
X177015000Y-77400000D01*
X177015000Y-77600000D01*
X177015000Y-77607000D01*
X177014000Y-77613000D01*
X177013000Y-77620000D01*
X177012000Y-77626000D01*
X177011000Y-77632000D01*
X177009000Y-77639000D01*
X177007000Y-77645000D01*
X177004000Y-77651000D01*
X177001000Y-77657000D01*
X176998000Y-77662000D01*
X176995000Y-77668000D01*
X176991000Y-77673000D01*
X176987000Y-77679000D01*
X176983000Y-77684000D01*
X176978000Y-77688000D01*
X176974000Y-77693000D01*
X176969000Y-77697000D01*
X176963000Y-77701000D01*
X176958000Y-77705000D01*
X176953000Y-77708000D01*
X176947000Y-77711000D01*
X176941000Y-77714000D01*
X176935000Y-77717000D01*
X176929000Y-77719000D01*
X176922000Y-77721000D01*
X176916000Y-77722000D01*
X176910000Y-77723000D01*
X176903000Y-77724000D01*
X176897000Y-77725000D01*
X176890000Y-77725000D01*
X176450000Y-77725000D01*
X176443000Y-77725000D01*
X176437000Y-77724000D01*
X176430000Y-77723000D01*
X176424000Y-77722000D01*
X176418000Y-77721000D01*
X176411000Y-77719000D01*
X176405000Y-77717000D01*
X176399000Y-77714000D01*
X176393000Y-77711000D01*
X176387000Y-77708000D01*
X176382000Y-77705000D01*
X176377000Y-77701000D01*
X176371000Y-77697000D01*
X176366000Y-77693000D01*
X176362000Y-77688000D01*
X176357000Y-77684000D01*
X176353000Y-77679000D01*
X176349000Y-77673000D01*
X176345000Y-77668000D01*
X176342000Y-77662000D01*
X176339000Y-77657000D01*
X176336000Y-77651000D01*
X176333000Y-77645000D01*
X176331000Y-77639000D01*
X176329000Y-77632000D01*
X176328000Y-77626000D01*
X176327000Y-77620000D01*
X176326000Y-77613000D01*
X176325000Y-77607000D01*
X176325000Y-77600000D01*
X176325000Y-77400000D01*
X176325000Y-77393000D01*
X176326000Y-77387000D01*
X176327000Y-77380000D01*
X176328000Y-77374000D01*
X176329000Y-77368000D01*
X176331000Y-77361000D01*
X176333000Y-77355000D01*
X176336000Y-77349000D01*
X176339000Y-77343000D01*
X176342000Y-77338000D01*
X176345000Y-77332000D01*
X176349000Y-77327000D01*
X176353000Y-77321000D01*
X176357000Y-77316000D01*
X176362000Y-77312000D01*
X176366000Y-77307000D01*
X176371000Y-77303000D01*
X176377000Y-77299000D01*
X176382000Y-77295000D01*
X176387000Y-77292000D01*
X176393000Y-77289000D01*
X176399000Y-77286000D01*
X176405000Y-77283000D01*
X176411000Y-77281000D01*
X176418000Y-77279000D01*
X176424000Y-77278000D01*
X176430000Y-77277000D01*
X176437000Y-77276000D01*
X176443000Y-77275000D01*
X176450000Y-77275000D01*
X176890000Y-77275000D01*
X176897000Y-77275000D01*
X176903000Y-77276000D01*
G36*
X176903000Y-77276000D02*
G01*
X176910000Y-77277000D01*
X176916000Y-77278000D01*
X176922000Y-77279000D01*
X176929000Y-77281000D01*
X176935000Y-77283000D01*
X176941000Y-77286000D01*
X176947000Y-77289000D01*
X176953000Y-77292000D01*
X176958000Y-77295000D01*
X176963000Y-77299000D01*
X176969000Y-77303000D01*
X176974000Y-77307000D01*
X176978000Y-77312000D01*
X176983000Y-77316000D01*
X176987000Y-77321000D01*
X176991000Y-77327000D01*
X176995000Y-77332000D01*
X176998000Y-77338000D01*
X177001000Y-77343000D01*
X177004000Y-77349000D01*
X177007000Y-77355000D01*
X177009000Y-77361000D01*
X177011000Y-77368000D01*
X177012000Y-77374000D01*
X177013000Y-77380000D01*
X177014000Y-77387000D01*
X177015000Y-77393000D01*
X177015000Y-77400000D01*
X177015000Y-77600000D01*
X177015000Y-77607000D01*
X177014000Y-77613000D01*
X177013000Y-77620000D01*
X177012000Y-77626000D01*
X177011000Y-77632000D01*
X177009000Y-77639000D01*
X177007000Y-77645000D01*
X177004000Y-77651000D01*
X177001000Y-77657000D01*
X176998000Y-77662000D01*
X176995000Y-77668000D01*
X176991000Y-77673000D01*
X176987000Y-77679000D01*
X176983000Y-77684000D01*
X176978000Y-77688000D01*
X176974000Y-77693000D01*
X176969000Y-77697000D01*
X176963000Y-77701000D01*
X176958000Y-77705000D01*
X176953000Y-77708000D01*
X176947000Y-77711000D01*
X176941000Y-77714000D01*
X176935000Y-77717000D01*
X176929000Y-77719000D01*
X176922000Y-77721000D01*
X176916000Y-77722000D01*
X176910000Y-77723000D01*
X176903000Y-77724000D01*
X176897000Y-77725000D01*
X176890000Y-77725000D01*
X176450000Y-77725000D01*
X176443000Y-77725000D01*
X176437000Y-77724000D01*
X176430000Y-77723000D01*
X176424000Y-77722000D01*
X176418000Y-77721000D01*
X176411000Y-77719000D01*
X176405000Y-77717000D01*
X176399000Y-77714000D01*
X176393000Y-77711000D01*
X176387000Y-77708000D01*
X176382000Y-77705000D01*
X176377000Y-77701000D01*
X176371000Y-77697000D01*
X176366000Y-77693000D01*
X176362000Y-77688000D01*
X176357000Y-77684000D01*
X176353000Y-77679000D01*
X176349000Y-77673000D01*
X176345000Y-77668000D01*
X176342000Y-77662000D01*
X176339000Y-77657000D01*
X176336000Y-77651000D01*
X176333000Y-77645000D01*
X176331000Y-77639000D01*
X176329000Y-77632000D01*
X176328000Y-77626000D01*
X176327000Y-77620000D01*
X176326000Y-77613000D01*
X176325000Y-77607000D01*
X176325000Y-77600000D01*
X176325000Y-77400000D01*
X176325000Y-77393000D01*
X176326000Y-77387000D01*
X176327000Y-77380000D01*
X176328000Y-77374000D01*
X176329000Y-77368000D01*
X176331000Y-77361000D01*
X176333000Y-77355000D01*
X176336000Y-77349000D01*
X176339000Y-77343000D01*
X176342000Y-77338000D01*
X176345000Y-77332000D01*
X176349000Y-77327000D01*
X176353000Y-77321000D01*
X176357000Y-77316000D01*
X176362000Y-77312000D01*
X176366000Y-77307000D01*
X176371000Y-77303000D01*
X176377000Y-77299000D01*
X176382000Y-77295000D01*
X176387000Y-77292000D01*
X176393000Y-77289000D01*
X176399000Y-77286000D01*
X176405000Y-77283000D01*
X176411000Y-77281000D01*
X176418000Y-77279000D01*
X176424000Y-77278000D01*
X176430000Y-77277000D01*
X176437000Y-77276000D01*
X176443000Y-77275000D01*
X176450000Y-77275000D01*
X176890000Y-77275000D01*
X176897000Y-77275000D01*
X176903000Y-77276000D01*
G37*
X176903000Y-77776000D02*
X176910000Y-77777000D01*
X176916000Y-77778000D01*
X176922000Y-77779000D01*
X176929000Y-77781000D01*
X176935000Y-77783000D01*
X176941000Y-77786000D01*
X176947000Y-77789000D01*
X176953000Y-77792000D01*
X176958000Y-77795000D01*
X176963000Y-77799000D01*
X176969000Y-77803000D01*
X176974000Y-77807000D01*
X176978000Y-77812000D01*
X176983000Y-77816000D01*
X176987000Y-77821000D01*
X176991000Y-77827000D01*
X176995000Y-77832000D01*
X176998000Y-77838000D01*
X177001000Y-77843000D01*
X177004000Y-77849000D01*
X177007000Y-77855000D01*
X177009000Y-77861000D01*
X177011000Y-77868000D01*
X177012000Y-77874000D01*
X177013000Y-77880000D01*
X177014000Y-77887000D01*
X177015000Y-77893000D01*
X177015000Y-77900000D01*
X177015000Y-78100000D01*
X177015000Y-78107000D01*
X177014000Y-78113000D01*
X177013000Y-78120000D01*
X177012000Y-78126000D01*
X177011000Y-78132000D01*
X177009000Y-78139000D01*
X177007000Y-78145000D01*
X177004000Y-78151000D01*
X177001000Y-78157000D01*
X176998000Y-78162000D01*
X176995000Y-78168000D01*
X176991000Y-78173000D01*
X176987000Y-78179000D01*
X176983000Y-78184000D01*
X176978000Y-78188000D01*
X176974000Y-78193000D01*
X176969000Y-78197000D01*
X176963000Y-78201000D01*
X176958000Y-78205000D01*
X176953000Y-78208000D01*
X176947000Y-78211000D01*
X176941000Y-78214000D01*
X176935000Y-78217000D01*
X176929000Y-78219000D01*
X176922000Y-78221000D01*
X176916000Y-78222000D01*
X176910000Y-78223000D01*
X176903000Y-78224000D01*
X176897000Y-78225000D01*
X176890000Y-78225000D01*
X176450000Y-78225000D01*
X176443000Y-78225000D01*
X176437000Y-78224000D01*
X176430000Y-78223000D01*
X176424000Y-78222000D01*
X176418000Y-78221000D01*
X176411000Y-78219000D01*
X176405000Y-78217000D01*
X176399000Y-78214000D01*
X176393000Y-78211000D01*
X176387000Y-78208000D01*
X176382000Y-78205000D01*
X176377000Y-78201000D01*
X176371000Y-78197000D01*
X176366000Y-78193000D01*
X176362000Y-78188000D01*
X176357000Y-78184000D01*
X176353000Y-78179000D01*
X176349000Y-78173000D01*
X176345000Y-78168000D01*
X176342000Y-78162000D01*
X176339000Y-78157000D01*
X176336000Y-78151000D01*
X176333000Y-78145000D01*
X176331000Y-78139000D01*
X176329000Y-78132000D01*
X176328000Y-78126000D01*
X176327000Y-78120000D01*
X176326000Y-78113000D01*
X176325000Y-78107000D01*
X176325000Y-78100000D01*
X176325000Y-77900000D01*
X176325000Y-77893000D01*
X176326000Y-77887000D01*
X176327000Y-77880000D01*
X176328000Y-77874000D01*
X176329000Y-77868000D01*
X176331000Y-77861000D01*
X176333000Y-77855000D01*
X176336000Y-77849000D01*
X176339000Y-77843000D01*
X176342000Y-77838000D01*
X176345000Y-77832000D01*
X176349000Y-77827000D01*
X176353000Y-77821000D01*
X176357000Y-77816000D01*
X176362000Y-77812000D01*
X176366000Y-77807000D01*
X176371000Y-77803000D01*
X176377000Y-77799000D01*
X176382000Y-77795000D01*
X176387000Y-77792000D01*
X176393000Y-77789000D01*
X176399000Y-77786000D01*
X176405000Y-77783000D01*
X176411000Y-77781000D01*
X176418000Y-77779000D01*
X176424000Y-77778000D01*
X176430000Y-77777000D01*
X176437000Y-77776000D01*
X176443000Y-77775000D01*
X176450000Y-77775000D01*
X176890000Y-77775000D01*
X176897000Y-77775000D01*
X176903000Y-77776000D01*
G36*
X176903000Y-77776000D02*
G01*
X176910000Y-77777000D01*
X176916000Y-77778000D01*
X176922000Y-77779000D01*
X176929000Y-77781000D01*
X176935000Y-77783000D01*
X176941000Y-77786000D01*
X176947000Y-77789000D01*
X176953000Y-77792000D01*
X176958000Y-77795000D01*
X176963000Y-77799000D01*
X176969000Y-77803000D01*
X176974000Y-77807000D01*
X176978000Y-77812000D01*
X176983000Y-77816000D01*
X176987000Y-77821000D01*
X176991000Y-77827000D01*
X176995000Y-77832000D01*
X176998000Y-77838000D01*
X177001000Y-77843000D01*
X177004000Y-77849000D01*
X177007000Y-77855000D01*
X177009000Y-77861000D01*
X177011000Y-77868000D01*
X177012000Y-77874000D01*
X177013000Y-77880000D01*
X177014000Y-77887000D01*
X177015000Y-77893000D01*
X177015000Y-77900000D01*
X177015000Y-78100000D01*
X177015000Y-78107000D01*
X177014000Y-78113000D01*
X177013000Y-78120000D01*
X177012000Y-78126000D01*
X177011000Y-78132000D01*
X177009000Y-78139000D01*
X177007000Y-78145000D01*
X177004000Y-78151000D01*
X177001000Y-78157000D01*
X176998000Y-78162000D01*
X176995000Y-78168000D01*
X176991000Y-78173000D01*
X176987000Y-78179000D01*
X176983000Y-78184000D01*
X176978000Y-78188000D01*
X176974000Y-78193000D01*
X176969000Y-78197000D01*
X176963000Y-78201000D01*
X176958000Y-78205000D01*
X176953000Y-78208000D01*
X176947000Y-78211000D01*
X176941000Y-78214000D01*
X176935000Y-78217000D01*
X176929000Y-78219000D01*
X176922000Y-78221000D01*
X176916000Y-78222000D01*
X176910000Y-78223000D01*
X176903000Y-78224000D01*
X176897000Y-78225000D01*
X176890000Y-78225000D01*
X176450000Y-78225000D01*
X176443000Y-78225000D01*
X176437000Y-78224000D01*
X176430000Y-78223000D01*
X176424000Y-78222000D01*
X176418000Y-78221000D01*
X176411000Y-78219000D01*
X176405000Y-78217000D01*
X176399000Y-78214000D01*
X176393000Y-78211000D01*
X176387000Y-78208000D01*
X176382000Y-78205000D01*
X176377000Y-78201000D01*
X176371000Y-78197000D01*
X176366000Y-78193000D01*
X176362000Y-78188000D01*
X176357000Y-78184000D01*
X176353000Y-78179000D01*
X176349000Y-78173000D01*
X176345000Y-78168000D01*
X176342000Y-78162000D01*
X176339000Y-78157000D01*
X176336000Y-78151000D01*
X176333000Y-78145000D01*
X176331000Y-78139000D01*
X176329000Y-78132000D01*
X176328000Y-78126000D01*
X176327000Y-78120000D01*
X176326000Y-78113000D01*
X176325000Y-78107000D01*
X176325000Y-78100000D01*
X176325000Y-77900000D01*
X176325000Y-77893000D01*
X176326000Y-77887000D01*
X176327000Y-77880000D01*
X176328000Y-77874000D01*
X176329000Y-77868000D01*
X176331000Y-77861000D01*
X176333000Y-77855000D01*
X176336000Y-77849000D01*
X176339000Y-77843000D01*
X176342000Y-77838000D01*
X176345000Y-77832000D01*
X176349000Y-77827000D01*
X176353000Y-77821000D01*
X176357000Y-77816000D01*
X176362000Y-77812000D01*
X176366000Y-77807000D01*
X176371000Y-77803000D01*
X176377000Y-77799000D01*
X176382000Y-77795000D01*
X176387000Y-77792000D01*
X176393000Y-77789000D01*
X176399000Y-77786000D01*
X176405000Y-77783000D01*
X176411000Y-77781000D01*
X176418000Y-77779000D01*
X176424000Y-77778000D01*
X176430000Y-77777000D01*
X176437000Y-77776000D01*
X176443000Y-77775000D01*
X176450000Y-77775000D01*
X176890000Y-77775000D01*
X176897000Y-77775000D01*
X176903000Y-77776000D01*
G37*
X176903000Y-78276000D02*
X176910000Y-78277000D01*
X176916000Y-78278000D01*
X176922000Y-78279000D01*
X176929000Y-78281000D01*
X176935000Y-78283000D01*
X176941000Y-78286000D01*
X176947000Y-78289000D01*
X176953000Y-78292000D01*
X176958000Y-78295000D01*
X176963000Y-78299000D01*
X176969000Y-78303000D01*
X176974000Y-78307000D01*
X176978000Y-78312000D01*
X176983000Y-78316000D01*
X176987000Y-78321000D01*
X176991000Y-78327000D01*
X176995000Y-78332000D01*
X176998000Y-78338000D01*
X177001000Y-78343000D01*
X177004000Y-78349000D01*
X177007000Y-78355000D01*
X177009000Y-78361000D01*
X177011000Y-78368000D01*
X177012000Y-78374000D01*
X177013000Y-78380000D01*
X177014000Y-78387000D01*
X177015000Y-78393000D01*
X177015000Y-78400000D01*
X177015000Y-78600000D01*
X177015000Y-78607000D01*
X177014000Y-78613000D01*
X177013000Y-78620000D01*
X177012000Y-78626000D01*
X177011000Y-78632000D01*
X177009000Y-78639000D01*
X177007000Y-78645000D01*
X177004000Y-78651000D01*
X177001000Y-78657000D01*
X176998000Y-78662000D01*
X176995000Y-78668000D01*
X176991000Y-78673000D01*
X176987000Y-78679000D01*
X176983000Y-78684000D01*
X176978000Y-78688000D01*
X176974000Y-78693000D01*
X176969000Y-78697000D01*
X176963000Y-78701000D01*
X176958000Y-78705000D01*
X176953000Y-78708000D01*
X176947000Y-78711000D01*
X176941000Y-78714000D01*
X176935000Y-78717000D01*
X176929000Y-78719000D01*
X176922000Y-78721000D01*
X176916000Y-78722000D01*
X176910000Y-78723000D01*
X176903000Y-78724000D01*
X176897000Y-78725000D01*
X176890000Y-78725000D01*
X176450000Y-78725000D01*
X176443000Y-78725000D01*
X176437000Y-78724000D01*
X176430000Y-78723000D01*
X176424000Y-78722000D01*
X176418000Y-78721000D01*
X176411000Y-78719000D01*
X176405000Y-78717000D01*
X176399000Y-78714000D01*
X176393000Y-78711000D01*
X176387000Y-78708000D01*
X176382000Y-78705000D01*
X176377000Y-78701000D01*
X176371000Y-78697000D01*
X176366000Y-78693000D01*
X176362000Y-78688000D01*
X176357000Y-78684000D01*
X176353000Y-78679000D01*
X176349000Y-78673000D01*
X176345000Y-78668000D01*
X176342000Y-78662000D01*
X176339000Y-78657000D01*
X176336000Y-78651000D01*
X176333000Y-78645000D01*
X176331000Y-78639000D01*
X176329000Y-78632000D01*
X176328000Y-78626000D01*
X176327000Y-78620000D01*
X176326000Y-78613000D01*
X176325000Y-78607000D01*
X176325000Y-78600000D01*
X176325000Y-78400000D01*
X176325000Y-78393000D01*
X176326000Y-78387000D01*
X176327000Y-78380000D01*
X176328000Y-78374000D01*
X176329000Y-78368000D01*
X176331000Y-78361000D01*
X176333000Y-78355000D01*
X176336000Y-78349000D01*
X176339000Y-78343000D01*
X176342000Y-78338000D01*
X176345000Y-78332000D01*
X176349000Y-78327000D01*
X176353000Y-78321000D01*
X176357000Y-78316000D01*
X176362000Y-78312000D01*
X176366000Y-78307000D01*
X176371000Y-78303000D01*
X176377000Y-78299000D01*
X176382000Y-78295000D01*
X176387000Y-78292000D01*
X176393000Y-78289000D01*
X176399000Y-78286000D01*
X176405000Y-78283000D01*
X176411000Y-78281000D01*
X176418000Y-78279000D01*
X176424000Y-78278000D01*
X176430000Y-78277000D01*
X176437000Y-78276000D01*
X176443000Y-78275000D01*
X176450000Y-78275000D01*
X176890000Y-78275000D01*
X176897000Y-78275000D01*
X176903000Y-78276000D01*
G36*
X176903000Y-78276000D02*
G01*
X176910000Y-78277000D01*
X176916000Y-78278000D01*
X176922000Y-78279000D01*
X176929000Y-78281000D01*
X176935000Y-78283000D01*
X176941000Y-78286000D01*
X176947000Y-78289000D01*
X176953000Y-78292000D01*
X176958000Y-78295000D01*
X176963000Y-78299000D01*
X176969000Y-78303000D01*
X176974000Y-78307000D01*
X176978000Y-78312000D01*
X176983000Y-78316000D01*
X176987000Y-78321000D01*
X176991000Y-78327000D01*
X176995000Y-78332000D01*
X176998000Y-78338000D01*
X177001000Y-78343000D01*
X177004000Y-78349000D01*
X177007000Y-78355000D01*
X177009000Y-78361000D01*
X177011000Y-78368000D01*
X177012000Y-78374000D01*
X177013000Y-78380000D01*
X177014000Y-78387000D01*
X177015000Y-78393000D01*
X177015000Y-78400000D01*
X177015000Y-78600000D01*
X177015000Y-78607000D01*
X177014000Y-78613000D01*
X177013000Y-78620000D01*
X177012000Y-78626000D01*
X177011000Y-78632000D01*
X177009000Y-78639000D01*
X177007000Y-78645000D01*
X177004000Y-78651000D01*
X177001000Y-78657000D01*
X176998000Y-78662000D01*
X176995000Y-78668000D01*
X176991000Y-78673000D01*
X176987000Y-78679000D01*
X176983000Y-78684000D01*
X176978000Y-78688000D01*
X176974000Y-78693000D01*
X176969000Y-78697000D01*
X176963000Y-78701000D01*
X176958000Y-78705000D01*
X176953000Y-78708000D01*
X176947000Y-78711000D01*
X176941000Y-78714000D01*
X176935000Y-78717000D01*
X176929000Y-78719000D01*
X176922000Y-78721000D01*
X176916000Y-78722000D01*
X176910000Y-78723000D01*
X176903000Y-78724000D01*
X176897000Y-78725000D01*
X176890000Y-78725000D01*
X176450000Y-78725000D01*
X176443000Y-78725000D01*
X176437000Y-78724000D01*
X176430000Y-78723000D01*
X176424000Y-78722000D01*
X176418000Y-78721000D01*
X176411000Y-78719000D01*
X176405000Y-78717000D01*
X176399000Y-78714000D01*
X176393000Y-78711000D01*
X176387000Y-78708000D01*
X176382000Y-78705000D01*
X176377000Y-78701000D01*
X176371000Y-78697000D01*
X176366000Y-78693000D01*
X176362000Y-78688000D01*
X176357000Y-78684000D01*
X176353000Y-78679000D01*
X176349000Y-78673000D01*
X176345000Y-78668000D01*
X176342000Y-78662000D01*
X176339000Y-78657000D01*
X176336000Y-78651000D01*
X176333000Y-78645000D01*
X176331000Y-78639000D01*
X176329000Y-78632000D01*
X176328000Y-78626000D01*
X176327000Y-78620000D01*
X176326000Y-78613000D01*
X176325000Y-78607000D01*
X176325000Y-78600000D01*
X176325000Y-78400000D01*
X176325000Y-78393000D01*
X176326000Y-78387000D01*
X176327000Y-78380000D01*
X176328000Y-78374000D01*
X176329000Y-78368000D01*
X176331000Y-78361000D01*
X176333000Y-78355000D01*
X176336000Y-78349000D01*
X176339000Y-78343000D01*
X176342000Y-78338000D01*
X176345000Y-78332000D01*
X176349000Y-78327000D01*
X176353000Y-78321000D01*
X176357000Y-78316000D01*
X176362000Y-78312000D01*
X176366000Y-78307000D01*
X176371000Y-78303000D01*
X176377000Y-78299000D01*
X176382000Y-78295000D01*
X176387000Y-78292000D01*
X176393000Y-78289000D01*
X176399000Y-78286000D01*
X176405000Y-78283000D01*
X176411000Y-78281000D01*
X176418000Y-78279000D01*
X176424000Y-78278000D01*
X176430000Y-78277000D01*
X176437000Y-78276000D01*
X176443000Y-78275000D01*
X176450000Y-78275000D01*
X176890000Y-78275000D01*
X176897000Y-78275000D01*
X176903000Y-78276000D01*
G37*
X177448000Y-76491000D02*
X177455000Y-76492000D01*
X177461000Y-76493000D01*
X177467000Y-76494000D01*
X177474000Y-76496000D01*
X177480000Y-76498000D01*
X177486000Y-76501000D01*
X177492000Y-76504000D01*
X177497000Y-76507000D01*
X177503000Y-76510000D01*
X177508000Y-76514000D01*
X177514000Y-76518000D01*
X177519000Y-76522000D01*
X177523000Y-76527000D01*
X177528000Y-76531000D01*
X177532000Y-76536000D01*
X177536000Y-76542000D01*
X177540000Y-76547000D01*
X177543000Y-76552000D01*
X177546000Y-76558000D01*
X177549000Y-76564000D01*
X177552000Y-76570000D01*
X177554000Y-76576000D01*
X177556000Y-76583000D01*
X177557000Y-76589000D01*
X177558000Y-76595000D01*
X177559000Y-76602000D01*
X177560000Y-76608000D01*
X177560000Y-76615000D01*
X177560000Y-77055000D01*
X177560000Y-77062000D01*
X177559000Y-77068000D01*
X177558000Y-77075000D01*
X177557000Y-77081000D01*
X177556000Y-77087000D01*
X177554000Y-77094000D01*
X177552000Y-77100000D01*
X177549000Y-77106000D01*
X177546000Y-77112000D01*
X177543000Y-77118000D01*
X177540000Y-77123000D01*
X177536000Y-77128000D01*
X177532000Y-77134000D01*
X177528000Y-77139000D01*
X177523000Y-77143000D01*
X177519000Y-77148000D01*
X177514000Y-77152000D01*
X177508000Y-77156000D01*
X177503000Y-77160000D01*
X177497000Y-77163000D01*
X177492000Y-77166000D01*
X177486000Y-77169000D01*
X177480000Y-77172000D01*
X177474000Y-77174000D01*
X177467000Y-77176000D01*
X177461000Y-77177000D01*
X177455000Y-77178000D01*
X177448000Y-77179000D01*
X177442000Y-77180000D01*
X177435000Y-77180000D01*
X177235000Y-77180000D01*
X177228000Y-77180000D01*
X177222000Y-77179000D01*
X177215000Y-77178000D01*
X177209000Y-77177000D01*
X177203000Y-77176000D01*
X177196000Y-77174000D01*
X177190000Y-77172000D01*
X177184000Y-77169000D01*
X177178000Y-77166000D01*
X177172000Y-77163000D01*
X177167000Y-77160000D01*
X177162000Y-77156000D01*
X177156000Y-77152000D01*
X177151000Y-77148000D01*
X177147000Y-77143000D01*
X177142000Y-77139000D01*
X177138000Y-77134000D01*
X177134000Y-77128000D01*
X177130000Y-77123000D01*
X177127000Y-77118000D01*
X177124000Y-77112000D01*
X177121000Y-77106000D01*
X177118000Y-77100000D01*
X177116000Y-77094000D01*
X177114000Y-77087000D01*
X177113000Y-77081000D01*
X177112000Y-77075000D01*
X177111000Y-77068000D01*
X177110000Y-77062000D01*
X177110000Y-77055000D01*
X177110000Y-76615000D01*
X177110000Y-76608000D01*
X177111000Y-76602000D01*
X177112000Y-76595000D01*
X177113000Y-76589000D01*
X177114000Y-76583000D01*
X177116000Y-76576000D01*
X177118000Y-76570000D01*
X177121000Y-76564000D01*
X177124000Y-76558000D01*
X177127000Y-76552000D01*
X177130000Y-76547000D01*
X177134000Y-76542000D01*
X177138000Y-76536000D01*
X177142000Y-76531000D01*
X177147000Y-76527000D01*
X177151000Y-76522000D01*
X177156000Y-76518000D01*
X177162000Y-76514000D01*
X177167000Y-76510000D01*
X177173000Y-76507000D01*
X177178000Y-76504000D01*
X177184000Y-76501000D01*
X177190000Y-76498000D01*
X177196000Y-76496000D01*
X177203000Y-76494000D01*
X177209000Y-76493000D01*
X177215000Y-76492000D01*
X177222000Y-76491000D01*
X177228000Y-76490000D01*
X177235000Y-76490000D01*
X177435000Y-76490000D01*
X177442000Y-76490000D01*
X177448000Y-76491000D01*
G36*
X177448000Y-76491000D02*
G01*
X177455000Y-76492000D01*
X177461000Y-76493000D01*
X177467000Y-76494000D01*
X177474000Y-76496000D01*
X177480000Y-76498000D01*
X177486000Y-76501000D01*
X177492000Y-76504000D01*
X177497000Y-76507000D01*
X177503000Y-76510000D01*
X177508000Y-76514000D01*
X177514000Y-76518000D01*
X177519000Y-76522000D01*
X177523000Y-76527000D01*
X177528000Y-76531000D01*
X177532000Y-76536000D01*
X177536000Y-76542000D01*
X177540000Y-76547000D01*
X177543000Y-76552000D01*
X177546000Y-76558000D01*
X177549000Y-76564000D01*
X177552000Y-76570000D01*
X177554000Y-76576000D01*
X177556000Y-76583000D01*
X177557000Y-76589000D01*
X177558000Y-76595000D01*
X177559000Y-76602000D01*
X177560000Y-76608000D01*
X177560000Y-76615000D01*
X177560000Y-77055000D01*
X177560000Y-77062000D01*
X177559000Y-77068000D01*
X177558000Y-77075000D01*
X177557000Y-77081000D01*
X177556000Y-77087000D01*
X177554000Y-77094000D01*
X177552000Y-77100000D01*
X177549000Y-77106000D01*
X177546000Y-77112000D01*
X177543000Y-77118000D01*
X177540000Y-77123000D01*
X177536000Y-77128000D01*
X177532000Y-77134000D01*
X177528000Y-77139000D01*
X177523000Y-77143000D01*
X177519000Y-77148000D01*
X177514000Y-77152000D01*
X177508000Y-77156000D01*
X177503000Y-77160000D01*
X177497000Y-77163000D01*
X177492000Y-77166000D01*
X177486000Y-77169000D01*
X177480000Y-77172000D01*
X177474000Y-77174000D01*
X177467000Y-77176000D01*
X177461000Y-77177000D01*
X177455000Y-77178000D01*
X177448000Y-77179000D01*
X177442000Y-77180000D01*
X177435000Y-77180000D01*
X177235000Y-77180000D01*
X177228000Y-77180000D01*
X177222000Y-77179000D01*
X177215000Y-77178000D01*
X177209000Y-77177000D01*
X177203000Y-77176000D01*
X177196000Y-77174000D01*
X177190000Y-77172000D01*
X177184000Y-77169000D01*
X177178000Y-77166000D01*
X177172000Y-77163000D01*
X177167000Y-77160000D01*
X177162000Y-77156000D01*
X177156000Y-77152000D01*
X177151000Y-77148000D01*
X177147000Y-77143000D01*
X177142000Y-77139000D01*
X177138000Y-77134000D01*
X177134000Y-77128000D01*
X177130000Y-77123000D01*
X177127000Y-77118000D01*
X177124000Y-77112000D01*
X177121000Y-77106000D01*
X177118000Y-77100000D01*
X177116000Y-77094000D01*
X177114000Y-77087000D01*
X177113000Y-77081000D01*
X177112000Y-77075000D01*
X177111000Y-77068000D01*
X177110000Y-77062000D01*
X177110000Y-77055000D01*
X177110000Y-76615000D01*
X177110000Y-76608000D01*
X177111000Y-76602000D01*
X177112000Y-76595000D01*
X177113000Y-76589000D01*
X177114000Y-76583000D01*
X177116000Y-76576000D01*
X177118000Y-76570000D01*
X177121000Y-76564000D01*
X177124000Y-76558000D01*
X177127000Y-76552000D01*
X177130000Y-76547000D01*
X177134000Y-76542000D01*
X177138000Y-76536000D01*
X177142000Y-76531000D01*
X177147000Y-76527000D01*
X177151000Y-76522000D01*
X177156000Y-76518000D01*
X177162000Y-76514000D01*
X177167000Y-76510000D01*
X177173000Y-76507000D01*
X177178000Y-76504000D01*
X177184000Y-76501000D01*
X177190000Y-76498000D01*
X177196000Y-76496000D01*
X177203000Y-76494000D01*
X177209000Y-76493000D01*
X177215000Y-76492000D01*
X177222000Y-76491000D01*
X177228000Y-76490000D01*
X177235000Y-76490000D01*
X177435000Y-76490000D01*
X177442000Y-76490000D01*
X177448000Y-76491000D01*
G37*
X177448000Y-78321000D02*
X177455000Y-78322000D01*
X177461000Y-78323000D01*
X177467000Y-78324000D01*
X177474000Y-78326000D01*
X177480000Y-78328000D01*
X177486000Y-78331000D01*
X177492000Y-78334000D01*
X177497000Y-78337000D01*
X177503000Y-78340000D01*
X177508000Y-78344000D01*
X177514000Y-78348000D01*
X177519000Y-78352000D01*
X177523000Y-78357000D01*
X177528000Y-78361000D01*
X177532000Y-78366000D01*
X177536000Y-78372000D01*
X177540000Y-78377000D01*
X177543000Y-78382000D01*
X177546000Y-78388000D01*
X177549000Y-78394000D01*
X177552000Y-78400000D01*
X177554000Y-78406000D01*
X177556000Y-78413000D01*
X177557000Y-78419000D01*
X177558000Y-78425000D01*
X177559000Y-78432000D01*
X177560000Y-78438000D01*
X177560000Y-78445000D01*
X177560000Y-78885000D01*
X177560000Y-78892000D01*
X177559000Y-78898000D01*
X177558000Y-78905000D01*
X177557000Y-78911000D01*
X177556000Y-78917000D01*
X177554000Y-78924000D01*
X177552000Y-78930000D01*
X177549000Y-78936000D01*
X177546000Y-78942000D01*
X177543000Y-78948000D01*
X177540000Y-78953000D01*
X177536000Y-78958000D01*
X177532000Y-78964000D01*
X177528000Y-78969000D01*
X177523000Y-78973000D01*
X177519000Y-78978000D01*
X177514000Y-78982000D01*
X177508000Y-78986000D01*
X177503000Y-78990000D01*
X177497000Y-78993000D01*
X177492000Y-78996000D01*
X177486000Y-78999000D01*
X177480000Y-79002000D01*
X177474000Y-79004000D01*
X177467000Y-79006000D01*
X177461000Y-79007000D01*
X177455000Y-79008000D01*
X177448000Y-79009000D01*
X177442000Y-79010000D01*
X177435000Y-79010000D01*
X177235000Y-79010000D01*
X177228000Y-79010000D01*
X177222000Y-79009000D01*
X177215000Y-79008000D01*
X177209000Y-79007000D01*
X177203000Y-79006000D01*
X177196000Y-79004000D01*
X177190000Y-79002000D01*
X177184000Y-78999000D01*
X177178000Y-78996000D01*
X177172000Y-78993000D01*
X177167000Y-78990000D01*
X177162000Y-78986000D01*
X177156000Y-78982000D01*
X177151000Y-78978000D01*
X177147000Y-78973000D01*
X177142000Y-78969000D01*
X177138000Y-78964000D01*
X177134000Y-78958000D01*
X177130000Y-78953000D01*
X177127000Y-78948000D01*
X177124000Y-78942000D01*
X177121000Y-78936000D01*
X177118000Y-78930000D01*
X177116000Y-78924000D01*
X177114000Y-78917000D01*
X177113000Y-78911000D01*
X177112000Y-78905000D01*
X177111000Y-78898000D01*
X177110000Y-78892000D01*
X177110000Y-78885000D01*
X177110000Y-78445000D01*
X177110000Y-78438000D01*
X177111000Y-78432000D01*
X177112000Y-78425000D01*
X177113000Y-78419000D01*
X177114000Y-78413000D01*
X177116000Y-78406000D01*
X177118000Y-78400000D01*
X177121000Y-78394000D01*
X177124000Y-78388000D01*
X177127000Y-78382000D01*
X177130000Y-78377000D01*
X177134000Y-78372000D01*
X177138000Y-78366000D01*
X177142000Y-78361000D01*
X177147000Y-78357000D01*
X177151000Y-78352000D01*
X177156000Y-78348000D01*
X177162000Y-78344000D01*
X177167000Y-78340000D01*
X177173000Y-78337000D01*
X177178000Y-78334000D01*
X177184000Y-78331000D01*
X177190000Y-78328000D01*
X177196000Y-78326000D01*
X177203000Y-78324000D01*
X177209000Y-78323000D01*
X177215000Y-78322000D01*
X177222000Y-78321000D01*
X177228000Y-78320000D01*
X177235000Y-78320000D01*
X177435000Y-78320000D01*
X177442000Y-78320000D01*
X177448000Y-78321000D01*
G36*
X177448000Y-78321000D02*
G01*
X177455000Y-78322000D01*
X177461000Y-78323000D01*
X177467000Y-78324000D01*
X177474000Y-78326000D01*
X177480000Y-78328000D01*
X177486000Y-78331000D01*
X177492000Y-78334000D01*
X177497000Y-78337000D01*
X177503000Y-78340000D01*
X177508000Y-78344000D01*
X177514000Y-78348000D01*
X177519000Y-78352000D01*
X177523000Y-78357000D01*
X177528000Y-78361000D01*
X177532000Y-78366000D01*
X177536000Y-78372000D01*
X177540000Y-78377000D01*
X177543000Y-78382000D01*
X177546000Y-78388000D01*
X177549000Y-78394000D01*
X177552000Y-78400000D01*
X177554000Y-78406000D01*
X177556000Y-78413000D01*
X177557000Y-78419000D01*
X177558000Y-78425000D01*
X177559000Y-78432000D01*
X177560000Y-78438000D01*
X177560000Y-78445000D01*
X177560000Y-78885000D01*
X177560000Y-78892000D01*
X177559000Y-78898000D01*
X177558000Y-78905000D01*
X177557000Y-78911000D01*
X177556000Y-78917000D01*
X177554000Y-78924000D01*
X177552000Y-78930000D01*
X177549000Y-78936000D01*
X177546000Y-78942000D01*
X177543000Y-78948000D01*
X177540000Y-78953000D01*
X177536000Y-78958000D01*
X177532000Y-78964000D01*
X177528000Y-78969000D01*
X177523000Y-78973000D01*
X177519000Y-78978000D01*
X177514000Y-78982000D01*
X177508000Y-78986000D01*
X177503000Y-78990000D01*
X177497000Y-78993000D01*
X177492000Y-78996000D01*
X177486000Y-78999000D01*
X177480000Y-79002000D01*
X177474000Y-79004000D01*
X177467000Y-79006000D01*
X177461000Y-79007000D01*
X177455000Y-79008000D01*
X177448000Y-79009000D01*
X177442000Y-79010000D01*
X177435000Y-79010000D01*
X177235000Y-79010000D01*
X177228000Y-79010000D01*
X177222000Y-79009000D01*
X177215000Y-79008000D01*
X177209000Y-79007000D01*
X177203000Y-79006000D01*
X177196000Y-79004000D01*
X177190000Y-79002000D01*
X177184000Y-78999000D01*
X177178000Y-78996000D01*
X177172000Y-78993000D01*
X177167000Y-78990000D01*
X177162000Y-78986000D01*
X177156000Y-78982000D01*
X177151000Y-78978000D01*
X177147000Y-78973000D01*
X177142000Y-78969000D01*
X177138000Y-78964000D01*
X177134000Y-78958000D01*
X177130000Y-78953000D01*
X177127000Y-78948000D01*
X177124000Y-78942000D01*
X177121000Y-78936000D01*
X177118000Y-78930000D01*
X177116000Y-78924000D01*
X177114000Y-78917000D01*
X177113000Y-78911000D01*
X177112000Y-78905000D01*
X177111000Y-78898000D01*
X177110000Y-78892000D01*
X177110000Y-78885000D01*
X177110000Y-78445000D01*
X177110000Y-78438000D01*
X177111000Y-78432000D01*
X177112000Y-78425000D01*
X177113000Y-78419000D01*
X177114000Y-78413000D01*
X177116000Y-78406000D01*
X177118000Y-78400000D01*
X177121000Y-78394000D01*
X177124000Y-78388000D01*
X177127000Y-78382000D01*
X177130000Y-78377000D01*
X177134000Y-78372000D01*
X177138000Y-78366000D01*
X177142000Y-78361000D01*
X177147000Y-78357000D01*
X177151000Y-78352000D01*
X177156000Y-78348000D01*
X177162000Y-78344000D01*
X177167000Y-78340000D01*
X177173000Y-78337000D01*
X177178000Y-78334000D01*
X177184000Y-78331000D01*
X177190000Y-78328000D01*
X177196000Y-78326000D01*
X177203000Y-78324000D01*
X177209000Y-78323000D01*
X177215000Y-78322000D01*
X177222000Y-78321000D01*
X177228000Y-78320000D01*
X177235000Y-78320000D01*
X177435000Y-78320000D01*
X177442000Y-78320000D01*
X177448000Y-78321000D01*
G37*
X177948000Y-76491000D02*
X177955000Y-76492000D01*
X177961000Y-76493000D01*
X177967000Y-76494000D01*
X177974000Y-76496000D01*
X177980000Y-76498000D01*
X177986000Y-76501000D01*
X177992000Y-76504000D01*
X177998000Y-76507000D01*
X178003000Y-76510000D01*
X178008000Y-76514000D01*
X178014000Y-76518000D01*
X178019000Y-76522000D01*
X178023000Y-76527000D01*
X178028000Y-76531000D01*
X178032000Y-76536000D01*
X178036000Y-76542000D01*
X178040000Y-76547000D01*
X178043000Y-76552000D01*
X178046000Y-76558000D01*
X178049000Y-76564000D01*
X178052000Y-76570000D01*
X178054000Y-76576000D01*
X178056000Y-76583000D01*
X178057000Y-76589000D01*
X178058000Y-76595000D01*
X178059000Y-76602000D01*
X178060000Y-76608000D01*
X178060000Y-76615000D01*
X178060000Y-77055000D01*
X178060000Y-77062000D01*
X178059000Y-77068000D01*
X178058000Y-77075000D01*
X178057000Y-77081000D01*
X178056000Y-77087000D01*
X178054000Y-77094000D01*
X178052000Y-77100000D01*
X178049000Y-77106000D01*
X178046000Y-77112000D01*
X178043000Y-77118000D01*
X178040000Y-77123000D01*
X178036000Y-77128000D01*
X178032000Y-77134000D01*
X178028000Y-77139000D01*
X178023000Y-77143000D01*
X178019000Y-77148000D01*
X178014000Y-77152000D01*
X178008000Y-77156000D01*
X178003000Y-77160000D01*
X177998000Y-77163000D01*
X177992000Y-77166000D01*
X177986000Y-77169000D01*
X177980000Y-77172000D01*
X177974000Y-77174000D01*
X177967000Y-77176000D01*
X177961000Y-77177000D01*
X177955000Y-77178000D01*
X177948000Y-77179000D01*
X177942000Y-77180000D01*
X177935000Y-77180000D01*
X177735000Y-77180000D01*
X177728000Y-77180000D01*
X177722000Y-77179000D01*
X177715000Y-77178000D01*
X177709000Y-77177000D01*
X177703000Y-77176000D01*
X177696000Y-77174000D01*
X177690000Y-77172000D01*
X177684000Y-77169000D01*
X177678000Y-77166000D01*
X177672000Y-77163000D01*
X177667000Y-77160000D01*
X177662000Y-77156000D01*
X177656000Y-77152000D01*
X177651000Y-77148000D01*
X177647000Y-77143000D01*
X177642000Y-77139000D01*
X177638000Y-77134000D01*
X177634000Y-77128000D01*
X177630000Y-77123000D01*
X177627000Y-77118000D01*
X177624000Y-77112000D01*
X177621000Y-77106000D01*
X177618000Y-77100000D01*
X177616000Y-77094000D01*
X177614000Y-77087000D01*
X177613000Y-77081000D01*
X177612000Y-77075000D01*
X177611000Y-77068000D01*
X177610000Y-77062000D01*
X177610000Y-77055000D01*
X177610000Y-76615000D01*
X177610000Y-76608000D01*
X177611000Y-76602000D01*
X177612000Y-76595000D01*
X177613000Y-76589000D01*
X177614000Y-76583000D01*
X177616000Y-76576000D01*
X177618000Y-76570000D01*
X177621000Y-76564000D01*
X177624000Y-76558000D01*
X177627000Y-76552000D01*
X177630000Y-76547000D01*
X177634000Y-76542000D01*
X177638000Y-76536000D01*
X177642000Y-76531000D01*
X177647000Y-76527000D01*
X177651000Y-76522000D01*
X177656000Y-76518000D01*
X177662000Y-76514000D01*
X177667000Y-76510000D01*
X177673000Y-76507000D01*
X177678000Y-76504000D01*
X177684000Y-76501000D01*
X177690000Y-76498000D01*
X177696000Y-76496000D01*
X177703000Y-76494000D01*
X177709000Y-76493000D01*
X177715000Y-76492000D01*
X177722000Y-76491000D01*
X177728000Y-76490000D01*
X177735000Y-76490000D01*
X177935000Y-76490000D01*
X177942000Y-76490000D01*
X177948000Y-76491000D01*
G36*
X177948000Y-76491000D02*
G01*
X177955000Y-76492000D01*
X177961000Y-76493000D01*
X177967000Y-76494000D01*
X177974000Y-76496000D01*
X177980000Y-76498000D01*
X177986000Y-76501000D01*
X177992000Y-76504000D01*
X177998000Y-76507000D01*
X178003000Y-76510000D01*
X178008000Y-76514000D01*
X178014000Y-76518000D01*
X178019000Y-76522000D01*
X178023000Y-76527000D01*
X178028000Y-76531000D01*
X178032000Y-76536000D01*
X178036000Y-76542000D01*
X178040000Y-76547000D01*
X178043000Y-76552000D01*
X178046000Y-76558000D01*
X178049000Y-76564000D01*
X178052000Y-76570000D01*
X178054000Y-76576000D01*
X178056000Y-76583000D01*
X178057000Y-76589000D01*
X178058000Y-76595000D01*
X178059000Y-76602000D01*
X178060000Y-76608000D01*
X178060000Y-76615000D01*
X178060000Y-77055000D01*
X178060000Y-77062000D01*
X178059000Y-77068000D01*
X178058000Y-77075000D01*
X178057000Y-77081000D01*
X178056000Y-77087000D01*
X178054000Y-77094000D01*
X178052000Y-77100000D01*
X178049000Y-77106000D01*
X178046000Y-77112000D01*
X178043000Y-77118000D01*
X178040000Y-77123000D01*
X178036000Y-77128000D01*
X178032000Y-77134000D01*
X178028000Y-77139000D01*
X178023000Y-77143000D01*
X178019000Y-77148000D01*
X178014000Y-77152000D01*
X178008000Y-77156000D01*
X178003000Y-77160000D01*
X177998000Y-77163000D01*
X177992000Y-77166000D01*
X177986000Y-77169000D01*
X177980000Y-77172000D01*
X177974000Y-77174000D01*
X177967000Y-77176000D01*
X177961000Y-77177000D01*
X177955000Y-77178000D01*
X177948000Y-77179000D01*
X177942000Y-77180000D01*
X177935000Y-77180000D01*
X177735000Y-77180000D01*
X177728000Y-77180000D01*
X177722000Y-77179000D01*
X177715000Y-77178000D01*
X177709000Y-77177000D01*
X177703000Y-77176000D01*
X177696000Y-77174000D01*
X177690000Y-77172000D01*
X177684000Y-77169000D01*
X177678000Y-77166000D01*
X177672000Y-77163000D01*
X177667000Y-77160000D01*
X177662000Y-77156000D01*
X177656000Y-77152000D01*
X177651000Y-77148000D01*
X177647000Y-77143000D01*
X177642000Y-77139000D01*
X177638000Y-77134000D01*
X177634000Y-77128000D01*
X177630000Y-77123000D01*
X177627000Y-77118000D01*
X177624000Y-77112000D01*
X177621000Y-77106000D01*
X177618000Y-77100000D01*
X177616000Y-77094000D01*
X177614000Y-77087000D01*
X177613000Y-77081000D01*
X177612000Y-77075000D01*
X177611000Y-77068000D01*
X177610000Y-77062000D01*
X177610000Y-77055000D01*
X177610000Y-76615000D01*
X177610000Y-76608000D01*
X177611000Y-76602000D01*
X177612000Y-76595000D01*
X177613000Y-76589000D01*
X177614000Y-76583000D01*
X177616000Y-76576000D01*
X177618000Y-76570000D01*
X177621000Y-76564000D01*
X177624000Y-76558000D01*
X177627000Y-76552000D01*
X177630000Y-76547000D01*
X177634000Y-76542000D01*
X177638000Y-76536000D01*
X177642000Y-76531000D01*
X177647000Y-76527000D01*
X177651000Y-76522000D01*
X177656000Y-76518000D01*
X177662000Y-76514000D01*
X177667000Y-76510000D01*
X177673000Y-76507000D01*
X177678000Y-76504000D01*
X177684000Y-76501000D01*
X177690000Y-76498000D01*
X177696000Y-76496000D01*
X177703000Y-76494000D01*
X177709000Y-76493000D01*
X177715000Y-76492000D01*
X177722000Y-76491000D01*
X177728000Y-76490000D01*
X177735000Y-76490000D01*
X177935000Y-76490000D01*
X177942000Y-76490000D01*
X177948000Y-76491000D01*
G37*
X177948000Y-78321000D02*
X177955000Y-78322000D01*
X177961000Y-78323000D01*
X177967000Y-78324000D01*
X177974000Y-78326000D01*
X177980000Y-78328000D01*
X177986000Y-78331000D01*
X177992000Y-78334000D01*
X177998000Y-78337000D01*
X178003000Y-78340000D01*
X178008000Y-78344000D01*
X178014000Y-78348000D01*
X178019000Y-78352000D01*
X178023000Y-78357000D01*
X178028000Y-78361000D01*
X178032000Y-78366000D01*
X178036000Y-78372000D01*
X178040000Y-78377000D01*
X178043000Y-78382000D01*
X178046000Y-78388000D01*
X178049000Y-78394000D01*
X178052000Y-78400000D01*
X178054000Y-78406000D01*
X178056000Y-78413000D01*
X178057000Y-78419000D01*
X178058000Y-78425000D01*
X178059000Y-78432000D01*
X178060000Y-78438000D01*
X178060000Y-78445000D01*
X178060000Y-78885000D01*
X178060000Y-78892000D01*
X178059000Y-78898000D01*
X178058000Y-78905000D01*
X178057000Y-78911000D01*
X178056000Y-78917000D01*
X178054000Y-78924000D01*
X178052000Y-78930000D01*
X178049000Y-78936000D01*
X178046000Y-78942000D01*
X178043000Y-78948000D01*
X178040000Y-78953000D01*
X178036000Y-78958000D01*
X178032000Y-78964000D01*
X178028000Y-78969000D01*
X178023000Y-78973000D01*
X178019000Y-78978000D01*
X178014000Y-78982000D01*
X178008000Y-78986000D01*
X178003000Y-78990000D01*
X177998000Y-78993000D01*
X177992000Y-78996000D01*
X177986000Y-78999000D01*
X177980000Y-79002000D01*
X177974000Y-79004000D01*
X177967000Y-79006000D01*
X177961000Y-79007000D01*
X177955000Y-79008000D01*
X177948000Y-79009000D01*
X177942000Y-79010000D01*
X177935000Y-79010000D01*
X177735000Y-79010000D01*
X177728000Y-79010000D01*
X177722000Y-79009000D01*
X177715000Y-79008000D01*
X177709000Y-79007000D01*
X177703000Y-79006000D01*
X177696000Y-79004000D01*
X177690000Y-79002000D01*
X177684000Y-78999000D01*
X177678000Y-78996000D01*
X177672000Y-78993000D01*
X177667000Y-78990000D01*
X177662000Y-78986000D01*
X177656000Y-78982000D01*
X177651000Y-78978000D01*
X177647000Y-78973000D01*
X177642000Y-78969000D01*
X177638000Y-78964000D01*
X177634000Y-78958000D01*
X177630000Y-78953000D01*
X177627000Y-78948000D01*
X177624000Y-78942000D01*
X177621000Y-78936000D01*
X177618000Y-78930000D01*
X177616000Y-78924000D01*
X177614000Y-78917000D01*
X177613000Y-78911000D01*
X177612000Y-78905000D01*
X177611000Y-78898000D01*
X177610000Y-78892000D01*
X177610000Y-78885000D01*
X177610000Y-78445000D01*
X177610000Y-78438000D01*
X177611000Y-78432000D01*
X177612000Y-78425000D01*
X177613000Y-78419000D01*
X177614000Y-78413000D01*
X177616000Y-78406000D01*
X177618000Y-78400000D01*
X177621000Y-78394000D01*
X177624000Y-78388000D01*
X177627000Y-78382000D01*
X177630000Y-78377000D01*
X177634000Y-78372000D01*
X177638000Y-78366000D01*
X177642000Y-78361000D01*
X177647000Y-78357000D01*
X177651000Y-78352000D01*
X177656000Y-78348000D01*
X177662000Y-78344000D01*
X177667000Y-78340000D01*
X177673000Y-78337000D01*
X177678000Y-78334000D01*
X177684000Y-78331000D01*
X177690000Y-78328000D01*
X177696000Y-78326000D01*
X177703000Y-78324000D01*
X177709000Y-78323000D01*
X177715000Y-78322000D01*
X177722000Y-78321000D01*
X177728000Y-78320000D01*
X177735000Y-78320000D01*
X177935000Y-78320000D01*
X177942000Y-78320000D01*
X177948000Y-78321000D01*
G36*
X177948000Y-78321000D02*
G01*
X177955000Y-78322000D01*
X177961000Y-78323000D01*
X177967000Y-78324000D01*
X177974000Y-78326000D01*
X177980000Y-78328000D01*
X177986000Y-78331000D01*
X177992000Y-78334000D01*
X177998000Y-78337000D01*
X178003000Y-78340000D01*
X178008000Y-78344000D01*
X178014000Y-78348000D01*
X178019000Y-78352000D01*
X178023000Y-78357000D01*
X178028000Y-78361000D01*
X178032000Y-78366000D01*
X178036000Y-78372000D01*
X178040000Y-78377000D01*
X178043000Y-78382000D01*
X178046000Y-78388000D01*
X178049000Y-78394000D01*
X178052000Y-78400000D01*
X178054000Y-78406000D01*
X178056000Y-78413000D01*
X178057000Y-78419000D01*
X178058000Y-78425000D01*
X178059000Y-78432000D01*
X178060000Y-78438000D01*
X178060000Y-78445000D01*
X178060000Y-78885000D01*
X178060000Y-78892000D01*
X178059000Y-78898000D01*
X178058000Y-78905000D01*
X178057000Y-78911000D01*
X178056000Y-78917000D01*
X178054000Y-78924000D01*
X178052000Y-78930000D01*
X178049000Y-78936000D01*
X178046000Y-78942000D01*
X178043000Y-78948000D01*
X178040000Y-78953000D01*
X178036000Y-78958000D01*
X178032000Y-78964000D01*
X178028000Y-78969000D01*
X178023000Y-78973000D01*
X178019000Y-78978000D01*
X178014000Y-78982000D01*
X178008000Y-78986000D01*
X178003000Y-78990000D01*
X177998000Y-78993000D01*
X177992000Y-78996000D01*
X177986000Y-78999000D01*
X177980000Y-79002000D01*
X177974000Y-79004000D01*
X177967000Y-79006000D01*
X177961000Y-79007000D01*
X177955000Y-79008000D01*
X177948000Y-79009000D01*
X177942000Y-79010000D01*
X177935000Y-79010000D01*
X177735000Y-79010000D01*
X177728000Y-79010000D01*
X177722000Y-79009000D01*
X177715000Y-79008000D01*
X177709000Y-79007000D01*
X177703000Y-79006000D01*
X177696000Y-79004000D01*
X177690000Y-79002000D01*
X177684000Y-78999000D01*
X177678000Y-78996000D01*
X177672000Y-78993000D01*
X177667000Y-78990000D01*
X177662000Y-78986000D01*
X177656000Y-78982000D01*
X177651000Y-78978000D01*
X177647000Y-78973000D01*
X177642000Y-78969000D01*
X177638000Y-78964000D01*
X177634000Y-78958000D01*
X177630000Y-78953000D01*
X177627000Y-78948000D01*
X177624000Y-78942000D01*
X177621000Y-78936000D01*
X177618000Y-78930000D01*
X177616000Y-78924000D01*
X177614000Y-78917000D01*
X177613000Y-78911000D01*
X177612000Y-78905000D01*
X177611000Y-78898000D01*
X177610000Y-78892000D01*
X177610000Y-78885000D01*
X177610000Y-78445000D01*
X177610000Y-78438000D01*
X177611000Y-78432000D01*
X177612000Y-78425000D01*
X177613000Y-78419000D01*
X177614000Y-78413000D01*
X177616000Y-78406000D01*
X177618000Y-78400000D01*
X177621000Y-78394000D01*
X177624000Y-78388000D01*
X177627000Y-78382000D01*
X177630000Y-78377000D01*
X177634000Y-78372000D01*
X177638000Y-78366000D01*
X177642000Y-78361000D01*
X177647000Y-78357000D01*
X177651000Y-78352000D01*
X177656000Y-78348000D01*
X177662000Y-78344000D01*
X177667000Y-78340000D01*
X177673000Y-78337000D01*
X177678000Y-78334000D01*
X177684000Y-78331000D01*
X177690000Y-78328000D01*
X177696000Y-78326000D01*
X177703000Y-78324000D01*
X177709000Y-78323000D01*
X177715000Y-78322000D01*
X177722000Y-78321000D01*
X177728000Y-78320000D01*
X177735000Y-78320000D01*
X177935000Y-78320000D01*
X177942000Y-78320000D01*
X177948000Y-78321000D01*
G37*
X178448000Y-76491000D02*
X178455000Y-76492000D01*
X178461000Y-76493000D01*
X178467000Y-76494000D01*
X178474000Y-76496000D01*
X178480000Y-76498000D01*
X178486000Y-76501000D01*
X178492000Y-76504000D01*
X178497000Y-76507000D01*
X178503000Y-76510000D01*
X178508000Y-76514000D01*
X178514000Y-76518000D01*
X178519000Y-76522000D01*
X178523000Y-76527000D01*
X178528000Y-76531000D01*
X178532000Y-76536000D01*
X178536000Y-76542000D01*
X178540000Y-76547000D01*
X178543000Y-76552000D01*
X178546000Y-76558000D01*
X178549000Y-76564000D01*
X178552000Y-76570000D01*
X178554000Y-76576000D01*
X178556000Y-76583000D01*
X178557000Y-76589000D01*
X178558000Y-76595000D01*
X178559000Y-76602000D01*
X178560000Y-76608000D01*
X178560000Y-76615000D01*
X178560000Y-77055000D01*
X178560000Y-77062000D01*
X178559000Y-77068000D01*
X178558000Y-77075000D01*
X178557000Y-77081000D01*
X178556000Y-77087000D01*
X178554000Y-77094000D01*
X178552000Y-77100000D01*
X178549000Y-77106000D01*
X178546000Y-77112000D01*
X178543000Y-77118000D01*
X178540000Y-77123000D01*
X178536000Y-77128000D01*
X178532000Y-77134000D01*
X178528000Y-77139000D01*
X178523000Y-77143000D01*
X178519000Y-77148000D01*
X178514000Y-77152000D01*
X178508000Y-77156000D01*
X178503000Y-77160000D01*
X178497000Y-77163000D01*
X178492000Y-77166000D01*
X178486000Y-77169000D01*
X178480000Y-77172000D01*
X178474000Y-77174000D01*
X178467000Y-77176000D01*
X178461000Y-77177000D01*
X178455000Y-77178000D01*
X178448000Y-77179000D01*
X178442000Y-77180000D01*
X178435000Y-77180000D01*
X178235000Y-77180000D01*
X178228000Y-77180000D01*
X178222000Y-77179000D01*
X178215000Y-77178000D01*
X178209000Y-77177000D01*
X178203000Y-77176000D01*
X178196000Y-77174000D01*
X178190000Y-77172000D01*
X178184000Y-77169000D01*
X178178000Y-77166000D01*
X178172000Y-77163000D01*
X178167000Y-77160000D01*
X178162000Y-77156000D01*
X178156000Y-77152000D01*
X178151000Y-77148000D01*
X178147000Y-77143000D01*
X178142000Y-77139000D01*
X178138000Y-77134000D01*
X178134000Y-77128000D01*
X178130000Y-77123000D01*
X178127000Y-77118000D01*
X178124000Y-77112000D01*
X178121000Y-77106000D01*
X178118000Y-77100000D01*
X178116000Y-77094000D01*
X178114000Y-77087000D01*
X178113000Y-77081000D01*
X178112000Y-77075000D01*
X178111000Y-77068000D01*
X178110000Y-77062000D01*
X178110000Y-77055000D01*
X178110000Y-76615000D01*
X178110000Y-76608000D01*
X178111000Y-76602000D01*
X178112000Y-76595000D01*
X178113000Y-76589000D01*
X178114000Y-76583000D01*
X178116000Y-76576000D01*
X178118000Y-76570000D01*
X178121000Y-76564000D01*
X178124000Y-76558000D01*
X178127000Y-76552000D01*
X178130000Y-76547000D01*
X178134000Y-76542000D01*
X178138000Y-76536000D01*
X178142000Y-76531000D01*
X178147000Y-76527000D01*
X178151000Y-76522000D01*
X178156000Y-76518000D01*
X178162000Y-76514000D01*
X178167000Y-76510000D01*
X178173000Y-76507000D01*
X178178000Y-76504000D01*
X178184000Y-76501000D01*
X178190000Y-76498000D01*
X178196000Y-76496000D01*
X178203000Y-76494000D01*
X178209000Y-76493000D01*
X178215000Y-76492000D01*
X178222000Y-76491000D01*
X178228000Y-76490000D01*
X178235000Y-76490000D01*
X178435000Y-76490000D01*
X178442000Y-76490000D01*
X178448000Y-76491000D01*
G36*
X178448000Y-76491000D02*
G01*
X178455000Y-76492000D01*
X178461000Y-76493000D01*
X178467000Y-76494000D01*
X178474000Y-76496000D01*
X178480000Y-76498000D01*
X178486000Y-76501000D01*
X178492000Y-76504000D01*
X178497000Y-76507000D01*
X178503000Y-76510000D01*
X178508000Y-76514000D01*
X178514000Y-76518000D01*
X178519000Y-76522000D01*
X178523000Y-76527000D01*
X178528000Y-76531000D01*
X178532000Y-76536000D01*
X178536000Y-76542000D01*
X178540000Y-76547000D01*
X178543000Y-76552000D01*
X178546000Y-76558000D01*
X178549000Y-76564000D01*
X178552000Y-76570000D01*
X178554000Y-76576000D01*
X178556000Y-76583000D01*
X178557000Y-76589000D01*
X178558000Y-76595000D01*
X178559000Y-76602000D01*
X178560000Y-76608000D01*
X178560000Y-76615000D01*
X178560000Y-77055000D01*
X178560000Y-77062000D01*
X178559000Y-77068000D01*
X178558000Y-77075000D01*
X178557000Y-77081000D01*
X178556000Y-77087000D01*
X178554000Y-77094000D01*
X178552000Y-77100000D01*
X178549000Y-77106000D01*
X178546000Y-77112000D01*
X178543000Y-77118000D01*
X178540000Y-77123000D01*
X178536000Y-77128000D01*
X178532000Y-77134000D01*
X178528000Y-77139000D01*
X178523000Y-77143000D01*
X178519000Y-77148000D01*
X178514000Y-77152000D01*
X178508000Y-77156000D01*
X178503000Y-77160000D01*
X178497000Y-77163000D01*
X178492000Y-77166000D01*
X178486000Y-77169000D01*
X178480000Y-77172000D01*
X178474000Y-77174000D01*
X178467000Y-77176000D01*
X178461000Y-77177000D01*
X178455000Y-77178000D01*
X178448000Y-77179000D01*
X178442000Y-77180000D01*
X178435000Y-77180000D01*
X178235000Y-77180000D01*
X178228000Y-77180000D01*
X178222000Y-77179000D01*
X178215000Y-77178000D01*
X178209000Y-77177000D01*
X178203000Y-77176000D01*
X178196000Y-77174000D01*
X178190000Y-77172000D01*
X178184000Y-77169000D01*
X178178000Y-77166000D01*
X178172000Y-77163000D01*
X178167000Y-77160000D01*
X178162000Y-77156000D01*
X178156000Y-77152000D01*
X178151000Y-77148000D01*
X178147000Y-77143000D01*
X178142000Y-77139000D01*
X178138000Y-77134000D01*
X178134000Y-77128000D01*
X178130000Y-77123000D01*
X178127000Y-77118000D01*
X178124000Y-77112000D01*
X178121000Y-77106000D01*
X178118000Y-77100000D01*
X178116000Y-77094000D01*
X178114000Y-77087000D01*
X178113000Y-77081000D01*
X178112000Y-77075000D01*
X178111000Y-77068000D01*
X178110000Y-77062000D01*
X178110000Y-77055000D01*
X178110000Y-76615000D01*
X178110000Y-76608000D01*
X178111000Y-76602000D01*
X178112000Y-76595000D01*
X178113000Y-76589000D01*
X178114000Y-76583000D01*
X178116000Y-76576000D01*
X178118000Y-76570000D01*
X178121000Y-76564000D01*
X178124000Y-76558000D01*
X178127000Y-76552000D01*
X178130000Y-76547000D01*
X178134000Y-76542000D01*
X178138000Y-76536000D01*
X178142000Y-76531000D01*
X178147000Y-76527000D01*
X178151000Y-76522000D01*
X178156000Y-76518000D01*
X178162000Y-76514000D01*
X178167000Y-76510000D01*
X178173000Y-76507000D01*
X178178000Y-76504000D01*
X178184000Y-76501000D01*
X178190000Y-76498000D01*
X178196000Y-76496000D01*
X178203000Y-76494000D01*
X178209000Y-76493000D01*
X178215000Y-76492000D01*
X178222000Y-76491000D01*
X178228000Y-76490000D01*
X178235000Y-76490000D01*
X178435000Y-76490000D01*
X178442000Y-76490000D01*
X178448000Y-76491000D01*
G37*
X178448000Y-78321000D02*
X178455000Y-78322000D01*
X178461000Y-78323000D01*
X178467000Y-78324000D01*
X178474000Y-78326000D01*
X178480000Y-78328000D01*
X178486000Y-78331000D01*
X178492000Y-78334000D01*
X178497000Y-78337000D01*
X178503000Y-78340000D01*
X178508000Y-78344000D01*
X178514000Y-78348000D01*
X178519000Y-78352000D01*
X178523000Y-78357000D01*
X178528000Y-78361000D01*
X178532000Y-78366000D01*
X178536000Y-78372000D01*
X178540000Y-78377000D01*
X178543000Y-78382000D01*
X178546000Y-78388000D01*
X178549000Y-78394000D01*
X178552000Y-78400000D01*
X178554000Y-78406000D01*
X178556000Y-78413000D01*
X178557000Y-78419000D01*
X178558000Y-78425000D01*
X178559000Y-78432000D01*
X178560000Y-78438000D01*
X178560000Y-78445000D01*
X178560000Y-78885000D01*
X178560000Y-78892000D01*
X178559000Y-78898000D01*
X178558000Y-78905000D01*
X178557000Y-78911000D01*
X178556000Y-78917000D01*
X178554000Y-78924000D01*
X178552000Y-78930000D01*
X178549000Y-78936000D01*
X178546000Y-78942000D01*
X178543000Y-78948000D01*
X178540000Y-78953000D01*
X178536000Y-78958000D01*
X178532000Y-78964000D01*
X178528000Y-78969000D01*
X178523000Y-78973000D01*
X178519000Y-78978000D01*
X178514000Y-78982000D01*
X178508000Y-78986000D01*
X178503000Y-78990000D01*
X178497000Y-78993000D01*
X178492000Y-78996000D01*
X178486000Y-78999000D01*
X178480000Y-79002000D01*
X178474000Y-79004000D01*
X178467000Y-79006000D01*
X178461000Y-79007000D01*
X178455000Y-79008000D01*
X178448000Y-79009000D01*
X178442000Y-79010000D01*
X178435000Y-79010000D01*
X178235000Y-79010000D01*
X178228000Y-79010000D01*
X178222000Y-79009000D01*
X178215000Y-79008000D01*
X178209000Y-79007000D01*
X178203000Y-79006000D01*
X178196000Y-79004000D01*
X178190000Y-79002000D01*
X178184000Y-78999000D01*
X178178000Y-78996000D01*
X178172000Y-78993000D01*
X178167000Y-78990000D01*
X178162000Y-78986000D01*
X178156000Y-78982000D01*
X178151000Y-78978000D01*
X178147000Y-78973000D01*
X178142000Y-78969000D01*
X178138000Y-78964000D01*
X178134000Y-78958000D01*
X178130000Y-78953000D01*
X178127000Y-78948000D01*
X178124000Y-78942000D01*
X178121000Y-78936000D01*
X178118000Y-78930000D01*
X178116000Y-78924000D01*
X178114000Y-78917000D01*
X178113000Y-78911000D01*
X178112000Y-78905000D01*
X178111000Y-78898000D01*
X178110000Y-78892000D01*
X178110000Y-78885000D01*
X178110000Y-78445000D01*
X178110000Y-78438000D01*
X178111000Y-78432000D01*
X178112000Y-78425000D01*
X178113000Y-78419000D01*
X178114000Y-78413000D01*
X178116000Y-78406000D01*
X178118000Y-78400000D01*
X178121000Y-78394000D01*
X178124000Y-78388000D01*
X178127000Y-78382000D01*
X178130000Y-78377000D01*
X178134000Y-78372000D01*
X178138000Y-78366000D01*
X178142000Y-78361000D01*
X178147000Y-78357000D01*
X178151000Y-78352000D01*
X178156000Y-78348000D01*
X178162000Y-78344000D01*
X178167000Y-78340000D01*
X178173000Y-78337000D01*
X178178000Y-78334000D01*
X178184000Y-78331000D01*
X178190000Y-78328000D01*
X178196000Y-78326000D01*
X178203000Y-78324000D01*
X178209000Y-78323000D01*
X178215000Y-78322000D01*
X178222000Y-78321000D01*
X178228000Y-78320000D01*
X178235000Y-78320000D01*
X178435000Y-78320000D01*
X178442000Y-78320000D01*
X178448000Y-78321000D01*
G36*
X178448000Y-78321000D02*
G01*
X178455000Y-78322000D01*
X178461000Y-78323000D01*
X178467000Y-78324000D01*
X178474000Y-78326000D01*
X178480000Y-78328000D01*
X178486000Y-78331000D01*
X178492000Y-78334000D01*
X178497000Y-78337000D01*
X178503000Y-78340000D01*
X178508000Y-78344000D01*
X178514000Y-78348000D01*
X178519000Y-78352000D01*
X178523000Y-78357000D01*
X178528000Y-78361000D01*
X178532000Y-78366000D01*
X178536000Y-78372000D01*
X178540000Y-78377000D01*
X178543000Y-78382000D01*
X178546000Y-78388000D01*
X178549000Y-78394000D01*
X178552000Y-78400000D01*
X178554000Y-78406000D01*
X178556000Y-78413000D01*
X178557000Y-78419000D01*
X178558000Y-78425000D01*
X178559000Y-78432000D01*
X178560000Y-78438000D01*
X178560000Y-78445000D01*
X178560000Y-78885000D01*
X178560000Y-78892000D01*
X178559000Y-78898000D01*
X178558000Y-78905000D01*
X178557000Y-78911000D01*
X178556000Y-78917000D01*
X178554000Y-78924000D01*
X178552000Y-78930000D01*
X178549000Y-78936000D01*
X178546000Y-78942000D01*
X178543000Y-78948000D01*
X178540000Y-78953000D01*
X178536000Y-78958000D01*
X178532000Y-78964000D01*
X178528000Y-78969000D01*
X178523000Y-78973000D01*
X178519000Y-78978000D01*
X178514000Y-78982000D01*
X178508000Y-78986000D01*
X178503000Y-78990000D01*
X178497000Y-78993000D01*
X178492000Y-78996000D01*
X178486000Y-78999000D01*
X178480000Y-79002000D01*
X178474000Y-79004000D01*
X178467000Y-79006000D01*
X178461000Y-79007000D01*
X178455000Y-79008000D01*
X178448000Y-79009000D01*
X178442000Y-79010000D01*
X178435000Y-79010000D01*
X178235000Y-79010000D01*
X178228000Y-79010000D01*
X178222000Y-79009000D01*
X178215000Y-79008000D01*
X178209000Y-79007000D01*
X178203000Y-79006000D01*
X178196000Y-79004000D01*
X178190000Y-79002000D01*
X178184000Y-78999000D01*
X178178000Y-78996000D01*
X178172000Y-78993000D01*
X178167000Y-78990000D01*
X178162000Y-78986000D01*
X178156000Y-78982000D01*
X178151000Y-78978000D01*
X178147000Y-78973000D01*
X178142000Y-78969000D01*
X178138000Y-78964000D01*
X178134000Y-78958000D01*
X178130000Y-78953000D01*
X178127000Y-78948000D01*
X178124000Y-78942000D01*
X178121000Y-78936000D01*
X178118000Y-78930000D01*
X178116000Y-78924000D01*
X178114000Y-78917000D01*
X178113000Y-78911000D01*
X178112000Y-78905000D01*
X178111000Y-78898000D01*
X178110000Y-78892000D01*
X178110000Y-78885000D01*
X178110000Y-78445000D01*
X178110000Y-78438000D01*
X178111000Y-78432000D01*
X178112000Y-78425000D01*
X178113000Y-78419000D01*
X178114000Y-78413000D01*
X178116000Y-78406000D01*
X178118000Y-78400000D01*
X178121000Y-78394000D01*
X178124000Y-78388000D01*
X178127000Y-78382000D01*
X178130000Y-78377000D01*
X178134000Y-78372000D01*
X178138000Y-78366000D01*
X178142000Y-78361000D01*
X178147000Y-78357000D01*
X178151000Y-78352000D01*
X178156000Y-78348000D01*
X178162000Y-78344000D01*
X178167000Y-78340000D01*
X178173000Y-78337000D01*
X178178000Y-78334000D01*
X178184000Y-78331000D01*
X178190000Y-78328000D01*
X178196000Y-78326000D01*
X178203000Y-78324000D01*
X178209000Y-78323000D01*
X178215000Y-78322000D01*
X178222000Y-78321000D01*
X178228000Y-78320000D01*
X178235000Y-78320000D01*
X178435000Y-78320000D01*
X178442000Y-78320000D01*
X178448000Y-78321000D01*
G37*
X179233000Y-76776000D02*
X179240000Y-76777000D01*
X179246000Y-76778000D01*
X179252000Y-76779000D01*
X179259000Y-76781000D01*
X179265000Y-76783000D01*
X179271000Y-76786000D01*
X179277000Y-76789000D01*
X179283000Y-76792000D01*
X179288000Y-76795000D01*
X179293000Y-76799000D01*
X179299000Y-76803000D01*
X179304000Y-76807000D01*
X179308000Y-76812000D01*
X179313000Y-76816000D01*
X179317000Y-76821000D01*
X179321000Y-76827000D01*
X179325000Y-76832000D01*
X179328000Y-76838000D01*
X179331000Y-76843000D01*
X179334000Y-76849000D01*
X179337000Y-76855000D01*
X179339000Y-76861000D01*
X179341000Y-76868000D01*
X179342000Y-76874000D01*
X179343000Y-76880000D01*
X179344000Y-76887000D01*
X179345000Y-76893000D01*
X179345000Y-76900000D01*
X179345000Y-77100000D01*
X179345000Y-77107000D01*
X179344000Y-77113000D01*
X179343000Y-77120000D01*
X179342000Y-77126000D01*
X179341000Y-77132000D01*
X179339000Y-77139000D01*
X179337000Y-77145000D01*
X179334000Y-77151000D01*
X179331000Y-77157000D01*
X179328000Y-77162000D01*
X179325000Y-77168000D01*
X179321000Y-77173000D01*
X179317000Y-77179000D01*
X179313000Y-77184000D01*
X179308000Y-77188000D01*
X179304000Y-77193000D01*
X179299000Y-77197000D01*
X179293000Y-77201000D01*
X179288000Y-77205000D01*
X179283000Y-77208000D01*
X179277000Y-77211000D01*
X179271000Y-77214000D01*
X179265000Y-77217000D01*
X179259000Y-77219000D01*
X179252000Y-77221000D01*
X179246000Y-77222000D01*
X179240000Y-77223000D01*
X179233000Y-77224000D01*
X179227000Y-77225000D01*
X179220000Y-77225000D01*
X178780000Y-77225000D01*
X178773000Y-77225000D01*
X178767000Y-77224000D01*
X178760000Y-77223000D01*
X178754000Y-77222000D01*
X178748000Y-77221000D01*
X178741000Y-77219000D01*
X178735000Y-77217000D01*
X178729000Y-77214000D01*
X178723000Y-77211000D01*
X178717000Y-77208000D01*
X178712000Y-77205000D01*
X178707000Y-77201000D01*
X178701000Y-77197000D01*
X178696000Y-77193000D01*
X178692000Y-77188000D01*
X178687000Y-77184000D01*
X178683000Y-77179000D01*
X178679000Y-77173000D01*
X178675000Y-77168000D01*
X178672000Y-77162000D01*
X178669000Y-77157000D01*
X178666000Y-77151000D01*
X178663000Y-77145000D01*
X178661000Y-77139000D01*
X178659000Y-77132000D01*
X178658000Y-77126000D01*
X178657000Y-77120000D01*
X178656000Y-77113000D01*
X178655000Y-77107000D01*
X178655000Y-77100000D01*
X178655000Y-76900000D01*
X178655000Y-76893000D01*
X178656000Y-76887000D01*
X178657000Y-76880000D01*
X178658000Y-76874000D01*
X178659000Y-76868000D01*
X178661000Y-76861000D01*
X178663000Y-76855000D01*
X178666000Y-76849000D01*
X178669000Y-76843000D01*
X178672000Y-76838000D01*
X178675000Y-76832000D01*
X178679000Y-76827000D01*
X178683000Y-76821000D01*
X178687000Y-76816000D01*
X178692000Y-76812000D01*
X178696000Y-76807000D01*
X178701000Y-76803000D01*
X178707000Y-76799000D01*
X178712000Y-76795000D01*
X178717000Y-76792000D01*
X178723000Y-76789000D01*
X178729000Y-76786000D01*
X178735000Y-76783000D01*
X178741000Y-76781000D01*
X178748000Y-76779000D01*
X178754000Y-76778000D01*
X178760000Y-76777000D01*
X178767000Y-76776000D01*
X178773000Y-76775000D01*
X178780000Y-76775000D01*
X179220000Y-76775000D01*
X179227000Y-76775000D01*
X179233000Y-76776000D01*
G36*
X179233000Y-76776000D02*
G01*
X179240000Y-76777000D01*
X179246000Y-76778000D01*
X179252000Y-76779000D01*
X179259000Y-76781000D01*
X179265000Y-76783000D01*
X179271000Y-76786000D01*
X179277000Y-76789000D01*
X179283000Y-76792000D01*
X179288000Y-76795000D01*
X179293000Y-76799000D01*
X179299000Y-76803000D01*
X179304000Y-76807000D01*
X179308000Y-76812000D01*
X179313000Y-76816000D01*
X179317000Y-76821000D01*
X179321000Y-76827000D01*
X179325000Y-76832000D01*
X179328000Y-76838000D01*
X179331000Y-76843000D01*
X179334000Y-76849000D01*
X179337000Y-76855000D01*
X179339000Y-76861000D01*
X179341000Y-76868000D01*
X179342000Y-76874000D01*
X179343000Y-76880000D01*
X179344000Y-76887000D01*
X179345000Y-76893000D01*
X179345000Y-76900000D01*
X179345000Y-77100000D01*
X179345000Y-77107000D01*
X179344000Y-77113000D01*
X179343000Y-77120000D01*
X179342000Y-77126000D01*
X179341000Y-77132000D01*
X179339000Y-77139000D01*
X179337000Y-77145000D01*
X179334000Y-77151000D01*
X179331000Y-77157000D01*
X179328000Y-77162000D01*
X179325000Y-77168000D01*
X179321000Y-77173000D01*
X179317000Y-77179000D01*
X179313000Y-77184000D01*
X179308000Y-77188000D01*
X179304000Y-77193000D01*
X179299000Y-77197000D01*
X179293000Y-77201000D01*
X179288000Y-77205000D01*
X179283000Y-77208000D01*
X179277000Y-77211000D01*
X179271000Y-77214000D01*
X179265000Y-77217000D01*
X179259000Y-77219000D01*
X179252000Y-77221000D01*
X179246000Y-77222000D01*
X179240000Y-77223000D01*
X179233000Y-77224000D01*
X179227000Y-77225000D01*
X179220000Y-77225000D01*
X178780000Y-77225000D01*
X178773000Y-77225000D01*
X178767000Y-77224000D01*
X178760000Y-77223000D01*
X178754000Y-77222000D01*
X178748000Y-77221000D01*
X178741000Y-77219000D01*
X178735000Y-77217000D01*
X178729000Y-77214000D01*
X178723000Y-77211000D01*
X178717000Y-77208000D01*
X178712000Y-77205000D01*
X178707000Y-77201000D01*
X178701000Y-77197000D01*
X178696000Y-77193000D01*
X178692000Y-77188000D01*
X178687000Y-77184000D01*
X178683000Y-77179000D01*
X178679000Y-77173000D01*
X178675000Y-77168000D01*
X178672000Y-77162000D01*
X178669000Y-77157000D01*
X178666000Y-77151000D01*
X178663000Y-77145000D01*
X178661000Y-77139000D01*
X178659000Y-77132000D01*
X178658000Y-77126000D01*
X178657000Y-77120000D01*
X178656000Y-77113000D01*
X178655000Y-77107000D01*
X178655000Y-77100000D01*
X178655000Y-76900000D01*
X178655000Y-76893000D01*
X178656000Y-76887000D01*
X178657000Y-76880000D01*
X178658000Y-76874000D01*
X178659000Y-76868000D01*
X178661000Y-76861000D01*
X178663000Y-76855000D01*
X178666000Y-76849000D01*
X178669000Y-76843000D01*
X178672000Y-76838000D01*
X178675000Y-76832000D01*
X178679000Y-76827000D01*
X178683000Y-76821000D01*
X178687000Y-76816000D01*
X178692000Y-76812000D01*
X178696000Y-76807000D01*
X178701000Y-76803000D01*
X178707000Y-76799000D01*
X178712000Y-76795000D01*
X178717000Y-76792000D01*
X178723000Y-76789000D01*
X178729000Y-76786000D01*
X178735000Y-76783000D01*
X178741000Y-76781000D01*
X178748000Y-76779000D01*
X178754000Y-76778000D01*
X178760000Y-76777000D01*
X178767000Y-76776000D01*
X178773000Y-76775000D01*
X178780000Y-76775000D01*
X179220000Y-76775000D01*
X179227000Y-76775000D01*
X179233000Y-76776000D01*
G37*
X179233000Y-77276000D02*
X179240000Y-77277000D01*
X179246000Y-77278000D01*
X179252000Y-77279000D01*
X179259000Y-77281000D01*
X179265000Y-77283000D01*
X179271000Y-77286000D01*
X179277000Y-77289000D01*
X179283000Y-77292000D01*
X179288000Y-77295000D01*
X179293000Y-77299000D01*
X179299000Y-77303000D01*
X179304000Y-77307000D01*
X179308000Y-77312000D01*
X179313000Y-77316000D01*
X179317000Y-77321000D01*
X179321000Y-77327000D01*
X179325000Y-77332000D01*
X179328000Y-77338000D01*
X179331000Y-77343000D01*
X179334000Y-77349000D01*
X179337000Y-77355000D01*
X179339000Y-77361000D01*
X179341000Y-77368000D01*
X179342000Y-77374000D01*
X179343000Y-77380000D01*
X179344000Y-77387000D01*
X179345000Y-77393000D01*
X179345000Y-77400000D01*
X179345000Y-77600000D01*
X179345000Y-77607000D01*
X179344000Y-77613000D01*
X179343000Y-77620000D01*
X179342000Y-77626000D01*
X179341000Y-77632000D01*
X179339000Y-77639000D01*
X179337000Y-77645000D01*
X179334000Y-77651000D01*
X179331000Y-77657000D01*
X179328000Y-77662000D01*
X179325000Y-77668000D01*
X179321000Y-77673000D01*
X179317000Y-77679000D01*
X179313000Y-77684000D01*
X179308000Y-77688000D01*
X179304000Y-77693000D01*
X179299000Y-77697000D01*
X179293000Y-77701000D01*
X179288000Y-77705000D01*
X179283000Y-77708000D01*
X179277000Y-77711000D01*
X179271000Y-77714000D01*
X179265000Y-77717000D01*
X179259000Y-77719000D01*
X179252000Y-77721000D01*
X179246000Y-77722000D01*
X179240000Y-77723000D01*
X179233000Y-77724000D01*
X179227000Y-77725000D01*
X179220000Y-77725000D01*
X178780000Y-77725000D01*
X178773000Y-77725000D01*
X178767000Y-77724000D01*
X178760000Y-77723000D01*
X178754000Y-77722000D01*
X178748000Y-77721000D01*
X178741000Y-77719000D01*
X178735000Y-77717000D01*
X178729000Y-77714000D01*
X178723000Y-77711000D01*
X178717000Y-77708000D01*
X178712000Y-77705000D01*
X178707000Y-77701000D01*
X178701000Y-77697000D01*
X178696000Y-77693000D01*
X178692000Y-77688000D01*
X178687000Y-77684000D01*
X178683000Y-77679000D01*
X178679000Y-77673000D01*
X178675000Y-77668000D01*
X178672000Y-77662000D01*
X178669000Y-77657000D01*
X178666000Y-77651000D01*
X178663000Y-77645000D01*
X178661000Y-77639000D01*
X178659000Y-77632000D01*
X178658000Y-77626000D01*
X178657000Y-77620000D01*
X178656000Y-77613000D01*
X178655000Y-77607000D01*
X178655000Y-77600000D01*
X178655000Y-77400000D01*
X178655000Y-77393000D01*
X178656000Y-77387000D01*
X178657000Y-77380000D01*
X178658000Y-77374000D01*
X178659000Y-77368000D01*
X178661000Y-77361000D01*
X178663000Y-77355000D01*
X178666000Y-77349000D01*
X178669000Y-77343000D01*
X178672000Y-77338000D01*
X178675000Y-77332000D01*
X178679000Y-77327000D01*
X178683000Y-77321000D01*
X178687000Y-77316000D01*
X178692000Y-77312000D01*
X178696000Y-77307000D01*
X178701000Y-77303000D01*
X178707000Y-77299000D01*
X178712000Y-77295000D01*
X178717000Y-77292000D01*
X178723000Y-77289000D01*
X178729000Y-77286000D01*
X178735000Y-77283000D01*
X178741000Y-77281000D01*
X178748000Y-77279000D01*
X178754000Y-77278000D01*
X178760000Y-77277000D01*
X178767000Y-77276000D01*
X178773000Y-77275000D01*
X178780000Y-77275000D01*
X179220000Y-77275000D01*
X179227000Y-77275000D01*
X179233000Y-77276000D01*
G36*
X179233000Y-77276000D02*
G01*
X179240000Y-77277000D01*
X179246000Y-77278000D01*
X179252000Y-77279000D01*
X179259000Y-77281000D01*
X179265000Y-77283000D01*
X179271000Y-77286000D01*
X179277000Y-77289000D01*
X179283000Y-77292000D01*
X179288000Y-77295000D01*
X179293000Y-77299000D01*
X179299000Y-77303000D01*
X179304000Y-77307000D01*
X179308000Y-77312000D01*
X179313000Y-77316000D01*
X179317000Y-77321000D01*
X179321000Y-77327000D01*
X179325000Y-77332000D01*
X179328000Y-77338000D01*
X179331000Y-77343000D01*
X179334000Y-77349000D01*
X179337000Y-77355000D01*
X179339000Y-77361000D01*
X179341000Y-77368000D01*
X179342000Y-77374000D01*
X179343000Y-77380000D01*
X179344000Y-77387000D01*
X179345000Y-77393000D01*
X179345000Y-77400000D01*
X179345000Y-77600000D01*
X179345000Y-77607000D01*
X179344000Y-77613000D01*
X179343000Y-77620000D01*
X179342000Y-77626000D01*
X179341000Y-77632000D01*
X179339000Y-77639000D01*
X179337000Y-77645000D01*
X179334000Y-77651000D01*
X179331000Y-77657000D01*
X179328000Y-77662000D01*
X179325000Y-77668000D01*
X179321000Y-77673000D01*
X179317000Y-77679000D01*
X179313000Y-77684000D01*
X179308000Y-77688000D01*
X179304000Y-77693000D01*
X179299000Y-77697000D01*
X179293000Y-77701000D01*
X179288000Y-77705000D01*
X179283000Y-77708000D01*
X179277000Y-77711000D01*
X179271000Y-77714000D01*
X179265000Y-77717000D01*
X179259000Y-77719000D01*
X179252000Y-77721000D01*
X179246000Y-77722000D01*
X179240000Y-77723000D01*
X179233000Y-77724000D01*
X179227000Y-77725000D01*
X179220000Y-77725000D01*
X178780000Y-77725000D01*
X178773000Y-77725000D01*
X178767000Y-77724000D01*
X178760000Y-77723000D01*
X178754000Y-77722000D01*
X178748000Y-77721000D01*
X178741000Y-77719000D01*
X178735000Y-77717000D01*
X178729000Y-77714000D01*
X178723000Y-77711000D01*
X178717000Y-77708000D01*
X178712000Y-77705000D01*
X178707000Y-77701000D01*
X178701000Y-77697000D01*
X178696000Y-77693000D01*
X178692000Y-77688000D01*
X178687000Y-77684000D01*
X178683000Y-77679000D01*
X178679000Y-77673000D01*
X178675000Y-77668000D01*
X178672000Y-77662000D01*
X178669000Y-77657000D01*
X178666000Y-77651000D01*
X178663000Y-77645000D01*
X178661000Y-77639000D01*
X178659000Y-77632000D01*
X178658000Y-77626000D01*
X178657000Y-77620000D01*
X178656000Y-77613000D01*
X178655000Y-77607000D01*
X178655000Y-77600000D01*
X178655000Y-77400000D01*
X178655000Y-77393000D01*
X178656000Y-77387000D01*
X178657000Y-77380000D01*
X178658000Y-77374000D01*
X178659000Y-77368000D01*
X178661000Y-77361000D01*
X178663000Y-77355000D01*
X178666000Y-77349000D01*
X178669000Y-77343000D01*
X178672000Y-77338000D01*
X178675000Y-77332000D01*
X178679000Y-77327000D01*
X178683000Y-77321000D01*
X178687000Y-77316000D01*
X178692000Y-77312000D01*
X178696000Y-77307000D01*
X178701000Y-77303000D01*
X178707000Y-77299000D01*
X178712000Y-77295000D01*
X178717000Y-77292000D01*
X178723000Y-77289000D01*
X178729000Y-77286000D01*
X178735000Y-77283000D01*
X178741000Y-77281000D01*
X178748000Y-77279000D01*
X178754000Y-77278000D01*
X178760000Y-77277000D01*
X178767000Y-77276000D01*
X178773000Y-77275000D01*
X178780000Y-77275000D01*
X179220000Y-77275000D01*
X179227000Y-77275000D01*
X179233000Y-77276000D01*
G37*
X179233000Y-77776000D02*
X179240000Y-77777000D01*
X179246000Y-77778000D01*
X179252000Y-77779000D01*
X179259000Y-77781000D01*
X179265000Y-77783000D01*
X179271000Y-77786000D01*
X179277000Y-77789000D01*
X179283000Y-77792000D01*
X179288000Y-77795000D01*
X179293000Y-77799000D01*
X179299000Y-77803000D01*
X179304000Y-77807000D01*
X179308000Y-77812000D01*
X179313000Y-77816000D01*
X179317000Y-77821000D01*
X179321000Y-77827000D01*
X179325000Y-77832000D01*
X179328000Y-77838000D01*
X179331000Y-77843000D01*
X179334000Y-77849000D01*
X179337000Y-77855000D01*
X179339000Y-77861000D01*
X179341000Y-77868000D01*
X179342000Y-77874000D01*
X179343000Y-77880000D01*
X179344000Y-77887000D01*
X179345000Y-77893000D01*
X179345000Y-77900000D01*
X179345000Y-78100000D01*
X179345000Y-78107000D01*
X179344000Y-78113000D01*
X179343000Y-78120000D01*
X179342000Y-78126000D01*
X179341000Y-78132000D01*
X179339000Y-78139000D01*
X179337000Y-78145000D01*
X179334000Y-78151000D01*
X179331000Y-78157000D01*
X179328000Y-78162000D01*
X179325000Y-78168000D01*
X179321000Y-78173000D01*
X179317000Y-78179000D01*
X179313000Y-78184000D01*
X179308000Y-78188000D01*
X179304000Y-78193000D01*
X179299000Y-78197000D01*
X179293000Y-78201000D01*
X179288000Y-78205000D01*
X179283000Y-78208000D01*
X179277000Y-78211000D01*
X179271000Y-78214000D01*
X179265000Y-78217000D01*
X179259000Y-78219000D01*
X179252000Y-78221000D01*
X179246000Y-78222000D01*
X179240000Y-78223000D01*
X179233000Y-78224000D01*
X179227000Y-78225000D01*
X179220000Y-78225000D01*
X178780000Y-78225000D01*
X178773000Y-78225000D01*
X178767000Y-78224000D01*
X178760000Y-78223000D01*
X178754000Y-78222000D01*
X178748000Y-78221000D01*
X178741000Y-78219000D01*
X178735000Y-78217000D01*
X178729000Y-78214000D01*
X178723000Y-78211000D01*
X178717000Y-78208000D01*
X178712000Y-78205000D01*
X178707000Y-78201000D01*
X178701000Y-78197000D01*
X178696000Y-78193000D01*
X178692000Y-78188000D01*
X178687000Y-78184000D01*
X178683000Y-78179000D01*
X178679000Y-78173000D01*
X178675000Y-78168000D01*
X178672000Y-78162000D01*
X178669000Y-78157000D01*
X178666000Y-78151000D01*
X178663000Y-78145000D01*
X178661000Y-78139000D01*
X178659000Y-78132000D01*
X178658000Y-78126000D01*
X178657000Y-78120000D01*
X178656000Y-78113000D01*
X178655000Y-78107000D01*
X178655000Y-78100000D01*
X178655000Y-77900000D01*
X178655000Y-77893000D01*
X178656000Y-77887000D01*
X178657000Y-77880000D01*
X178658000Y-77874000D01*
X178659000Y-77868000D01*
X178661000Y-77861000D01*
X178663000Y-77855000D01*
X178666000Y-77849000D01*
X178669000Y-77843000D01*
X178672000Y-77838000D01*
X178675000Y-77832000D01*
X178679000Y-77827000D01*
X178683000Y-77821000D01*
X178687000Y-77816000D01*
X178692000Y-77812000D01*
X178696000Y-77807000D01*
X178701000Y-77803000D01*
X178707000Y-77799000D01*
X178712000Y-77795000D01*
X178717000Y-77792000D01*
X178723000Y-77789000D01*
X178729000Y-77786000D01*
X178735000Y-77783000D01*
X178741000Y-77781000D01*
X178748000Y-77779000D01*
X178754000Y-77778000D01*
X178760000Y-77777000D01*
X178767000Y-77776000D01*
X178773000Y-77775000D01*
X178780000Y-77775000D01*
X179220000Y-77775000D01*
X179227000Y-77775000D01*
X179233000Y-77776000D01*
G36*
X179233000Y-77776000D02*
G01*
X179240000Y-77777000D01*
X179246000Y-77778000D01*
X179252000Y-77779000D01*
X179259000Y-77781000D01*
X179265000Y-77783000D01*
X179271000Y-77786000D01*
X179277000Y-77789000D01*
X179283000Y-77792000D01*
X179288000Y-77795000D01*
X179293000Y-77799000D01*
X179299000Y-77803000D01*
X179304000Y-77807000D01*
X179308000Y-77812000D01*
X179313000Y-77816000D01*
X179317000Y-77821000D01*
X179321000Y-77827000D01*
X179325000Y-77832000D01*
X179328000Y-77838000D01*
X179331000Y-77843000D01*
X179334000Y-77849000D01*
X179337000Y-77855000D01*
X179339000Y-77861000D01*
X179341000Y-77868000D01*
X179342000Y-77874000D01*
X179343000Y-77880000D01*
X179344000Y-77887000D01*
X179345000Y-77893000D01*
X179345000Y-77900000D01*
X179345000Y-78100000D01*
X179345000Y-78107000D01*
X179344000Y-78113000D01*
X179343000Y-78120000D01*
X179342000Y-78126000D01*
X179341000Y-78132000D01*
X179339000Y-78139000D01*
X179337000Y-78145000D01*
X179334000Y-78151000D01*
X179331000Y-78157000D01*
X179328000Y-78162000D01*
X179325000Y-78168000D01*
X179321000Y-78173000D01*
X179317000Y-78179000D01*
X179313000Y-78184000D01*
X179308000Y-78188000D01*
X179304000Y-78193000D01*
X179299000Y-78197000D01*
X179293000Y-78201000D01*
X179288000Y-78205000D01*
X179283000Y-78208000D01*
X179277000Y-78211000D01*
X179271000Y-78214000D01*
X179265000Y-78217000D01*
X179259000Y-78219000D01*
X179252000Y-78221000D01*
X179246000Y-78222000D01*
X179240000Y-78223000D01*
X179233000Y-78224000D01*
X179227000Y-78225000D01*
X179220000Y-78225000D01*
X178780000Y-78225000D01*
X178773000Y-78225000D01*
X178767000Y-78224000D01*
X178760000Y-78223000D01*
X178754000Y-78222000D01*
X178748000Y-78221000D01*
X178741000Y-78219000D01*
X178735000Y-78217000D01*
X178729000Y-78214000D01*
X178723000Y-78211000D01*
X178717000Y-78208000D01*
X178712000Y-78205000D01*
X178707000Y-78201000D01*
X178701000Y-78197000D01*
X178696000Y-78193000D01*
X178692000Y-78188000D01*
X178687000Y-78184000D01*
X178683000Y-78179000D01*
X178679000Y-78173000D01*
X178675000Y-78168000D01*
X178672000Y-78162000D01*
X178669000Y-78157000D01*
X178666000Y-78151000D01*
X178663000Y-78145000D01*
X178661000Y-78139000D01*
X178659000Y-78132000D01*
X178658000Y-78126000D01*
X178657000Y-78120000D01*
X178656000Y-78113000D01*
X178655000Y-78107000D01*
X178655000Y-78100000D01*
X178655000Y-77900000D01*
X178655000Y-77893000D01*
X178656000Y-77887000D01*
X178657000Y-77880000D01*
X178658000Y-77874000D01*
X178659000Y-77868000D01*
X178661000Y-77861000D01*
X178663000Y-77855000D01*
X178666000Y-77849000D01*
X178669000Y-77843000D01*
X178672000Y-77838000D01*
X178675000Y-77832000D01*
X178679000Y-77827000D01*
X178683000Y-77821000D01*
X178687000Y-77816000D01*
X178692000Y-77812000D01*
X178696000Y-77807000D01*
X178701000Y-77803000D01*
X178707000Y-77799000D01*
X178712000Y-77795000D01*
X178717000Y-77792000D01*
X178723000Y-77789000D01*
X178729000Y-77786000D01*
X178735000Y-77783000D01*
X178741000Y-77781000D01*
X178748000Y-77779000D01*
X178754000Y-77778000D01*
X178760000Y-77777000D01*
X178767000Y-77776000D01*
X178773000Y-77775000D01*
X178780000Y-77775000D01*
X179220000Y-77775000D01*
X179227000Y-77775000D01*
X179233000Y-77776000D01*
G37*
X179233000Y-78276000D02*
X179240000Y-78277000D01*
X179246000Y-78278000D01*
X179252000Y-78279000D01*
X179259000Y-78281000D01*
X179265000Y-78283000D01*
X179271000Y-78286000D01*
X179277000Y-78289000D01*
X179283000Y-78292000D01*
X179288000Y-78295000D01*
X179293000Y-78299000D01*
X179299000Y-78303000D01*
X179304000Y-78307000D01*
X179308000Y-78312000D01*
X179313000Y-78316000D01*
X179317000Y-78321000D01*
X179321000Y-78327000D01*
X179325000Y-78332000D01*
X179328000Y-78338000D01*
X179331000Y-78343000D01*
X179334000Y-78349000D01*
X179337000Y-78355000D01*
X179339000Y-78361000D01*
X179341000Y-78368000D01*
X179342000Y-78374000D01*
X179343000Y-78380000D01*
X179344000Y-78387000D01*
X179345000Y-78393000D01*
X179345000Y-78400000D01*
X179345000Y-78600000D01*
X179345000Y-78607000D01*
X179344000Y-78613000D01*
X179343000Y-78620000D01*
X179342000Y-78626000D01*
X179341000Y-78632000D01*
X179339000Y-78639000D01*
X179337000Y-78645000D01*
X179334000Y-78651000D01*
X179331000Y-78657000D01*
X179328000Y-78662000D01*
X179325000Y-78668000D01*
X179321000Y-78673000D01*
X179317000Y-78679000D01*
X179313000Y-78684000D01*
X179308000Y-78688000D01*
X179304000Y-78693000D01*
X179299000Y-78697000D01*
X179293000Y-78701000D01*
X179288000Y-78705000D01*
X179283000Y-78708000D01*
X179277000Y-78711000D01*
X179271000Y-78714000D01*
X179265000Y-78717000D01*
X179259000Y-78719000D01*
X179252000Y-78721000D01*
X179246000Y-78722000D01*
X179240000Y-78723000D01*
X179233000Y-78724000D01*
X179227000Y-78725000D01*
X179220000Y-78725000D01*
X178780000Y-78725000D01*
X178773000Y-78725000D01*
X178767000Y-78724000D01*
X178760000Y-78723000D01*
X178754000Y-78722000D01*
X178748000Y-78721000D01*
X178741000Y-78719000D01*
X178735000Y-78717000D01*
X178729000Y-78714000D01*
X178723000Y-78711000D01*
X178717000Y-78708000D01*
X178712000Y-78705000D01*
X178707000Y-78701000D01*
X178701000Y-78697000D01*
X178696000Y-78693000D01*
X178692000Y-78688000D01*
X178687000Y-78684000D01*
X178683000Y-78679000D01*
X178679000Y-78673000D01*
X178675000Y-78668000D01*
X178672000Y-78662000D01*
X178669000Y-78657000D01*
X178666000Y-78651000D01*
X178663000Y-78645000D01*
X178661000Y-78639000D01*
X178659000Y-78632000D01*
X178658000Y-78626000D01*
X178657000Y-78620000D01*
X178656000Y-78613000D01*
X178655000Y-78607000D01*
X178655000Y-78600000D01*
X178655000Y-78400000D01*
X178655000Y-78393000D01*
X178656000Y-78387000D01*
X178657000Y-78380000D01*
X178658000Y-78374000D01*
X178659000Y-78368000D01*
X178661000Y-78361000D01*
X178663000Y-78355000D01*
X178666000Y-78349000D01*
X178669000Y-78343000D01*
X178672000Y-78338000D01*
X178675000Y-78332000D01*
X178679000Y-78327000D01*
X178683000Y-78321000D01*
X178687000Y-78316000D01*
X178692000Y-78312000D01*
X178696000Y-78307000D01*
X178701000Y-78303000D01*
X178707000Y-78299000D01*
X178712000Y-78295000D01*
X178717000Y-78292000D01*
X178723000Y-78289000D01*
X178729000Y-78286000D01*
X178735000Y-78283000D01*
X178741000Y-78281000D01*
X178748000Y-78279000D01*
X178754000Y-78278000D01*
X178760000Y-78277000D01*
X178767000Y-78276000D01*
X178773000Y-78275000D01*
X178780000Y-78275000D01*
X179220000Y-78275000D01*
X179227000Y-78275000D01*
X179233000Y-78276000D01*
G36*
X179233000Y-78276000D02*
G01*
X179240000Y-78277000D01*
X179246000Y-78278000D01*
X179252000Y-78279000D01*
X179259000Y-78281000D01*
X179265000Y-78283000D01*
X179271000Y-78286000D01*
X179277000Y-78289000D01*
X179283000Y-78292000D01*
X179288000Y-78295000D01*
X179293000Y-78299000D01*
X179299000Y-78303000D01*
X179304000Y-78307000D01*
X179308000Y-78312000D01*
X179313000Y-78316000D01*
X179317000Y-78321000D01*
X179321000Y-78327000D01*
X179325000Y-78332000D01*
X179328000Y-78338000D01*
X179331000Y-78343000D01*
X179334000Y-78349000D01*
X179337000Y-78355000D01*
X179339000Y-78361000D01*
X179341000Y-78368000D01*
X179342000Y-78374000D01*
X179343000Y-78380000D01*
X179344000Y-78387000D01*
X179345000Y-78393000D01*
X179345000Y-78400000D01*
X179345000Y-78600000D01*
X179345000Y-78607000D01*
X179344000Y-78613000D01*
X179343000Y-78620000D01*
X179342000Y-78626000D01*
X179341000Y-78632000D01*
X179339000Y-78639000D01*
X179337000Y-78645000D01*
X179334000Y-78651000D01*
X179331000Y-78657000D01*
X179328000Y-78662000D01*
X179325000Y-78668000D01*
X179321000Y-78673000D01*
X179317000Y-78679000D01*
X179313000Y-78684000D01*
X179308000Y-78688000D01*
X179304000Y-78693000D01*
X179299000Y-78697000D01*
X179293000Y-78701000D01*
X179288000Y-78705000D01*
X179283000Y-78708000D01*
X179277000Y-78711000D01*
X179271000Y-78714000D01*
X179265000Y-78717000D01*
X179259000Y-78719000D01*
X179252000Y-78721000D01*
X179246000Y-78722000D01*
X179240000Y-78723000D01*
X179233000Y-78724000D01*
X179227000Y-78725000D01*
X179220000Y-78725000D01*
X178780000Y-78725000D01*
X178773000Y-78725000D01*
X178767000Y-78724000D01*
X178760000Y-78723000D01*
X178754000Y-78722000D01*
X178748000Y-78721000D01*
X178741000Y-78719000D01*
X178735000Y-78717000D01*
X178729000Y-78714000D01*
X178723000Y-78711000D01*
X178717000Y-78708000D01*
X178712000Y-78705000D01*
X178707000Y-78701000D01*
X178701000Y-78697000D01*
X178696000Y-78693000D01*
X178692000Y-78688000D01*
X178687000Y-78684000D01*
X178683000Y-78679000D01*
X178679000Y-78673000D01*
X178675000Y-78668000D01*
X178672000Y-78662000D01*
X178669000Y-78657000D01*
X178666000Y-78651000D01*
X178663000Y-78645000D01*
X178661000Y-78639000D01*
X178659000Y-78632000D01*
X178658000Y-78626000D01*
X178657000Y-78620000D01*
X178656000Y-78613000D01*
X178655000Y-78607000D01*
X178655000Y-78600000D01*
X178655000Y-78400000D01*
X178655000Y-78393000D01*
X178656000Y-78387000D01*
X178657000Y-78380000D01*
X178658000Y-78374000D01*
X178659000Y-78368000D01*
X178661000Y-78361000D01*
X178663000Y-78355000D01*
X178666000Y-78349000D01*
X178669000Y-78343000D01*
X178672000Y-78338000D01*
X178675000Y-78332000D01*
X178679000Y-78327000D01*
X178683000Y-78321000D01*
X178687000Y-78316000D01*
X178692000Y-78312000D01*
X178696000Y-78307000D01*
X178701000Y-78303000D01*
X178707000Y-78299000D01*
X178712000Y-78295000D01*
X178717000Y-78292000D01*
X178723000Y-78289000D01*
X178729000Y-78286000D01*
X178735000Y-78283000D01*
X178741000Y-78281000D01*
X178748000Y-78279000D01*
X178754000Y-78278000D01*
X178760000Y-78277000D01*
X178767000Y-78276000D01*
X178773000Y-78275000D01*
X178780000Y-78275000D01*
X179220000Y-78275000D01*
X179227000Y-78275000D01*
X179233000Y-78276000D01*
G37*
%TD*%
D11*
%TO.C,C9*%
X187500000Y-74637500D03*
X187500000Y-76362500D03*
%TD*%
D12*
%TO.C,J15*%
X152000000Y-74250000D03*
X152000000Y-73000000D03*
X152000000Y-71750000D03*
X152000000Y-70500000D03*
X152000000Y-69250000D03*
X152000000Y-68000000D03*
D13*
X155200000Y-76100000D03*
X155200000Y-66150000D03*
%TD*%
D14*
%TO.C,J17*%
X164650000Y-70350000D03*
X165900000Y-70350000D03*
X167150000Y-70350000D03*
D15*
X162800000Y-67000000D03*
X169000000Y-67000000D03*
%TD*%
D16*
%TO.C,C38*%
X159000000Y-65500000D03*
X159000000Y-63775000D03*
%TD*%
D17*
%TO.C,R29*%
X160500000Y-73000000D03*
X158675000Y-73000000D03*
%TD*%
D16*
%TO.C,C37*%
X160500000Y-65362500D03*
X160500000Y-63637500D03*
%TD*%
D14*
%TO.C,J12*%
X177400000Y-98000000D03*
X178650000Y-98000000D03*
X179900000Y-98000000D03*
X181150000Y-98000000D03*
X182400000Y-98000000D03*
X183650000Y-98000000D03*
D15*
X175550000Y-94650000D03*
X185500000Y-94650000D03*
%TD*%
D14*
%TO.C,J16*%
X164000000Y-91500000D03*
X165250000Y-91500000D03*
X166500000Y-91500000D03*
D15*
X162150000Y-88150000D03*
X168350000Y-88150000D03*
%TD*%
D18*
%TO.C,C1*%
X178500000Y-80000000D03*
X176775000Y-80000000D03*
%TD*%
D19*
%TO.C,C40*%
X184775000Y-81000000D03*
X186500000Y-81000000D03*
%TD*%
D16*
%TO.C,C4*%
X179000000Y-83725000D03*
X179000000Y-82000000D03*
%TD*%
%TO.C,C42*%
X186000000Y-89225000D03*
X186000000Y-87500000D03*
%TD*%
D20*
%TO.C,U5*%
X172368000Y-76500000D03*
X172934000Y-76500000D03*
X173500000Y-76500000D03*
X172651000Y-76783000D03*
X173217000Y-76783000D03*
X172368000Y-77066000D03*
X173500000Y-77066000D03*
X172651000Y-77349000D03*
X173217000Y-77349000D03*
X172368000Y-77632000D03*
X172934000Y-77632000D03*
X173500000Y-77632000D03*
%TD*%
D12*
%TO.C,J6*%
X152000000Y-62150000D03*
X152000000Y-60900000D03*
X152000000Y-59650000D03*
X152000000Y-58400000D03*
X152000000Y-57150000D03*
X152000000Y-55900000D03*
D13*
X155200000Y-64000000D03*
X155200000Y-54050000D03*
%TD*%
D16*
%TO.C,C6*%
X171000000Y-76725000D03*
X171000000Y-75000000D03*
%TD*%
D21*
%TO.C,SW4*%
X162700000Y-60000000D03*
X169000000Y-60000000D03*
X162700000Y-63800000D03*
X169000000Y-63800000D03*
%TD*%
%TO.C,SW3*%
X162500000Y-53700000D03*
X168800000Y-53700000D03*
X162500000Y-57500000D03*
X168800000Y-57500000D03*
%TD*%
D18*
%TO.C,C20*%
X160500000Y-56000000D03*
X158775000Y-56000000D03*
%TD*%
D22*
%TO.C,Y2*%
X172800000Y-54300000D03*
X172800000Y-56500000D03*
X174500000Y-56500000D03*
X174500000Y-54300000D03*
%TD*%
D23*
%TO.C,R15*%
X176500000Y-55912500D03*
X176500000Y-54087500D03*
%TD*%
D24*
%TO.C,J8*%
X170625000Y-47550000D03*
X169375000Y-47550000D03*
X168125000Y-47550000D03*
X166875000Y-47550000D03*
X165625000Y-47550000D03*
X164375000Y-47550000D03*
X163125000Y-47550000D03*
X161875000Y-47550000D03*
X160625000Y-47550000D03*
X159375000Y-47550000D03*
D25*
X172475000Y-50900000D03*
X157525000Y-50900000D03*
%TD*%
D14*
%TO.C,J11*%
X189850000Y-98000000D03*
X191100000Y-98000000D03*
X192350000Y-98000000D03*
X193600000Y-98000000D03*
D15*
X188000000Y-94650000D03*
X195450000Y-94650000D03*
%TD*%
D16*
%TO.C,C21*%
X179500000Y-56000000D03*
X179500000Y-54275000D03*
%TD*%
D26*
%TO.C,D2*%
X159500000Y-88500000D03*
X159500000Y-91475000D03*
%TD*%
D12*
%TO.C,J5*%
X199850000Y-67150000D03*
X199850000Y-65900000D03*
X199850000Y-64650000D03*
X199850000Y-63400000D03*
X199850000Y-62150000D03*
X199850000Y-60900000D03*
X199850000Y-59650000D03*
X199850000Y-58400000D03*
X199850000Y-57150000D03*
X199850000Y-55900000D03*
D27*
X196500000Y-69000000D03*
X196500000Y-54050000D03*
%TD*%
D28*
%TO.C,U9*%
X188525000Y-88095000D03*
X188525000Y-89365000D03*
X188525000Y-90635000D03*
X188525000Y-91905000D03*
X193475000Y-91905000D03*
X193475000Y-90635000D03*
X193475000Y-89365000D03*
X193475000Y-88095000D03*
%TD*%
D29*
%TO.C,J13*%
X152050000Y-80375000D03*
X152050000Y-81625000D03*
X152050000Y-82875000D03*
X152050000Y-84125000D03*
X152050000Y-85375000D03*
X152050000Y-86625000D03*
X152050000Y-87875000D03*
X152050000Y-89125000D03*
X152050000Y-90375000D03*
X152050000Y-91625000D03*
D30*
X155400000Y-78525000D03*
X155400000Y-93475000D03*
%TD*%
D12*
%TO.C,J1*%
X200000000Y-79500000D03*
X200000000Y-78250000D03*
X200000000Y-77000000D03*
X200000000Y-75750000D03*
X200000000Y-74500000D03*
X200000000Y-73250000D03*
D27*
X196650000Y-81350000D03*
X196650000Y-71400000D03*
%TD*%
D31*
%TO.C,C28*%
X181287500Y-56000000D03*
X183362500Y-56000000D03*
%TD*%
D14*
%TO.C,J14*%
X172650000Y-91350000D03*
X173900000Y-91350000D03*
X175150000Y-91350000D03*
D15*
X170800000Y-88000000D03*
X177000000Y-88000000D03*
%TD*%
D32*
%TO.C,D5*%
X159500000Y-85487500D03*
X159500000Y-82512500D03*
%TD*%
D33*
%TO.C,U3*%
X180220000Y-81530000D03*
X180220000Y-82030000D03*
D34*
X180500000Y-82560000D03*
X181000000Y-82560000D03*
X181500000Y-82560000D03*
D33*
X181780000Y-82030000D03*
X181780000Y-81530000D03*
D34*
X181500000Y-81000000D03*
X181000000Y-81000000D03*
X180500000Y-81000000D03*
%TD*%
D35*
%TO.C,Y1*%
X160500000Y-71000000D03*
X160500000Y-68231400D03*
X158315600Y-68231400D03*
X158315600Y-71000000D03*
%TD*%
D16*
%TO.C,C14*%
X158360000Y-77260000D03*
X158360000Y-75535000D03*
%TD*%
D36*
%TO.C,D9*%
X179512500Y-86000000D03*
X182487500Y-86000000D03*
%TD*%
D12*
%TO.C,J7*%
X200000000Y-89500000D03*
X200000000Y-88250000D03*
X200000000Y-87000000D03*
X200000000Y-85750000D03*
D27*
X196650000Y-91350000D03*
X196650000Y-83900000D03*
%TD*%
D37*
%TO.C,U11*%
X185300000Y-53925000D03*
D38*
X185225000Y-54462500D03*
D37*
X185300000Y-55000000D03*
X187000000Y-55000000D03*
D38*
X187075000Y-54462500D03*
D37*
X187000000Y-53925000D03*
%TD*%
D24*
%TO.C,J9*%
X183150000Y-47650000D03*
X181900000Y-47650000D03*
X180650000Y-47650000D03*
X179400000Y-47650000D03*
X178150000Y-47650000D03*
X176900000Y-47650000D03*
D25*
X185000000Y-51000000D03*
X175050000Y-51000000D03*
%TD*%
D39*
%TO.C,U2*%
X171150000Y-60825000D03*
X171150000Y-61325000D03*
X171150000Y-61825000D03*
X171150000Y-62325000D03*
X171150000Y-62825000D03*
X171150000Y-63325000D03*
X171150000Y-63825000D03*
X171150000Y-64325000D03*
X171150000Y-64825000D03*
X171150000Y-65325000D03*
X171150000Y-65825000D03*
X171150000Y-66325000D03*
X171150000Y-66825000D03*
X171150000Y-67325000D03*
X171150000Y-67825000D03*
X171150000Y-68325000D03*
X171150000Y-68825000D03*
X171150000Y-69325000D03*
X171150000Y-69825000D03*
X171150000Y-70325000D03*
X171150000Y-70825000D03*
X171150000Y-71325000D03*
X171150000Y-71825000D03*
X171150000Y-72325000D03*
X171150000Y-72825000D03*
D40*
X172825000Y-74500000D03*
X173325000Y-74500000D03*
X173825000Y-74500000D03*
X174325000Y-74500000D03*
X174825000Y-74500000D03*
X175325000Y-74500000D03*
X175825000Y-74500000D03*
X176325000Y-74500000D03*
X176825000Y-74500000D03*
X177325000Y-74500000D03*
X177825000Y-74500000D03*
X178325000Y-74500000D03*
X178825000Y-74500000D03*
X179325000Y-74500000D03*
X179825000Y-74500000D03*
X180325000Y-74500000D03*
X180825000Y-74500000D03*
X181325000Y-74500000D03*
X181825000Y-74500000D03*
X182325000Y-74500000D03*
X182825000Y-74500000D03*
X183325000Y-74500000D03*
X183825000Y-74500000D03*
X184325000Y-74500000D03*
X184825000Y-74500000D03*
D39*
X186500000Y-72825000D03*
X186500000Y-72325000D03*
X186500000Y-71825000D03*
X186500000Y-71325000D03*
X186500000Y-70825000D03*
X186500000Y-70325000D03*
X186500000Y-69825000D03*
X186500000Y-69325000D03*
X186500000Y-68825000D03*
X186500000Y-68325000D03*
X186500000Y-67825000D03*
X186500000Y-67325000D03*
X186500000Y-66825000D03*
X186500000Y-66325000D03*
X186500000Y-65825000D03*
X186500000Y-65325000D03*
X186500000Y-64825000D03*
X186500000Y-64325000D03*
X186500000Y-63825000D03*
X186500000Y-63325000D03*
X186500000Y-62825000D03*
X186500000Y-62325000D03*
X186500000Y-61825000D03*
X186500000Y-61325000D03*
X186500000Y-60825000D03*
D40*
X184825000Y-59150000D03*
X184325000Y-59150000D03*
X183825000Y-59150000D03*
X183325000Y-59150000D03*
X182825000Y-59150000D03*
X182325000Y-59150000D03*
X181825000Y-59150000D03*
X181325000Y-59150000D03*
X180825000Y-59150000D03*
X180325000Y-59150000D03*
X179825000Y-59150000D03*
X179325000Y-59150000D03*
X178825000Y-59150000D03*
X178325000Y-59150000D03*
X177825000Y-59150000D03*
X177325000Y-59150000D03*
X176825000Y-59150000D03*
X176325000Y-59150000D03*
X175825000Y-59150000D03*
X175325000Y-59150000D03*
X174825000Y-59150000D03*
X174325000Y-59150000D03*
X173825000Y-59150000D03*
X173325000Y-59150000D03*
X172825000Y-59150000D03*
%TD*%
D12*
%TO.C,J10*%
X193000000Y-84000000D03*
X193000000Y-82750000D03*
X193000000Y-81500000D03*
X193000000Y-80250000D03*
D27*
X189650000Y-85850000D03*
X189650000Y-78400000D03*
%TD*%
D18*
%TO.C,C19*%
X160362500Y-54500000D03*
X158637500Y-54500000D03*
%TD*%
D36*
%TO.C,D8*%
X179525000Y-88500000D03*
X182500000Y-88500000D03*
%TD*%
D41*
%TO.C,U4*%
X160950000Y-74587500D03*
X160950000Y-75087500D03*
X160950000Y-75587501D03*
X160950000Y-76087500D03*
X160950000Y-76587500D03*
X160950000Y-77087500D03*
X160950000Y-77587500D03*
X160950000Y-78087500D03*
X160950000Y-78587500D03*
X160950000Y-79087500D03*
X160950000Y-79587500D03*
X160950000Y-80087500D03*
D42*
X162362500Y-81500000D03*
X162862500Y-81500000D03*
X163362501Y-81500000D03*
X163862500Y-81500000D03*
X164362500Y-81500000D03*
X164862500Y-81500000D03*
X165362500Y-81500000D03*
X165862500Y-81500000D03*
X166362500Y-81500000D03*
X166862500Y-81500000D03*
X167362500Y-81500000D03*
X167862500Y-81500000D03*
D41*
X169275000Y-80087500D03*
X169275000Y-79587500D03*
X169275000Y-79087499D03*
X169275000Y-78587500D03*
X169275000Y-78087500D03*
X169275000Y-77587500D03*
X169275000Y-77087500D03*
X169275000Y-76587500D03*
X169275000Y-76087500D03*
X169275000Y-75587500D03*
X169275000Y-75087500D03*
X169275000Y-74587500D03*
D42*
X167862500Y-73175000D03*
X167362500Y-73175000D03*
X166862499Y-73175000D03*
X166362500Y-73175000D03*
X165862500Y-73175000D03*
X165362500Y-73175000D03*
X164862500Y-73175000D03*
X164362500Y-73175000D03*
X163862500Y-73175000D03*
X163362500Y-73175000D03*
X162862500Y-73175000D03*
X162362500Y-73175000D03*
%TD*%
D43*
%TO.C,C2*%
X181000000Y-79075000D03*
X181000000Y-77000000D03*
%TD*%
D36*
%TO.C,D7*%
X179512500Y-91000000D03*
X182487500Y-91000000D03*
%TD*%
D19*
%TO.C,C44*%
X185275000Y-56500000D03*
X187000000Y-56500000D03*
%TD*%
D14*
%TO.C,J3*%
X164000000Y-98000000D03*
X165250000Y-98000000D03*
X166500000Y-98000000D03*
X167750000Y-98000000D03*
X169000000Y-98000000D03*
X170250000Y-98000000D03*
X171500000Y-98000000D03*
D15*
X162150000Y-94650000D03*
X173350000Y-94650000D03*
%TD*%
D16*
%TO.C,C5*%
X183000000Y-83000000D03*
X183000000Y-81275000D03*
%TD*%
D36*
%TO.C,D4*%
X189965000Y-54360000D03*
X192940000Y-54360000D03*
%TD*%
D44*
%TO.C,U7*%
X183000000Y-78000000D03*
X183000000Y-78500000D03*
X183000000Y-79000000D03*
X183000000Y-79500000D03*
D45*
X183662500Y-79662500D03*
X184162500Y-79662500D03*
X184662500Y-79662500D03*
D44*
X185325000Y-79500000D03*
X185325000Y-79000000D03*
X185325000Y-78500000D03*
X185325000Y-78000000D03*
D45*
X184662500Y-77837500D03*
X184162500Y-77837500D03*
X183662500Y-77837500D03*
%TD*%
D12*
%TO.C,J2*%
X193500000Y-64750000D03*
X193500000Y-63500000D03*
X193500000Y-62250000D03*
X193500000Y-61000000D03*
X193500000Y-59750000D03*
X193500000Y-58500000D03*
D27*
X190150000Y-66600000D03*
X190150000Y-56650000D03*
%TD*%
D16*
%TO.C,C26*%
X178000000Y-56000000D03*
X178000000Y-54275000D03*
%TD*%
D24*
%TO.C,J4*%
X193000000Y-47550000D03*
X191750000Y-47550000D03*
X190500000Y-47550000D03*
X189250000Y-47550000D03*
D25*
X194850000Y-50900000D03*
X187400000Y-50900000D03*
%TD*%
D46*
%TO.C,U10*%
X189595000Y-76087500D03*
X190865000Y-76087500D03*
X192135000Y-76087500D03*
X193405000Y-76087500D03*
X193405000Y-68912500D03*
X192135000Y-68912500D03*
X190865000Y-68912500D03*
X189595000Y-68912500D03*
%TD*%
D16*
%TO.C,C3*%
X174860000Y-78840000D03*
X174860000Y-77115000D03*
%TD*%
D19*
%TO.C,C39*%
X183320000Y-76370000D03*
X185045000Y-76370000D03*
%TD*%
D47*
%TO.C,FB2*%
X171000000Y-57030000D03*
X171000000Y-58500000D03*
%TD*%
D18*
%TO.C,C7*%
X173300000Y-79000000D03*
X171575000Y-79000000D03*
%TD*%
D48*
%TO.C,Q1*%
X172000000Y-85000000D03*
D49*
X170730000Y-85000000D03*
X169460000Y-85000000D03*
%TD*%
D48*
%TO.C,Q2*%
X166500000Y-84860000D03*
D49*
X165230000Y-84860000D03*
X163960000Y-84860000D03*
%TD*%
M02*
