M48
; DRILL file {KiCad 9.0.7} date 2026-08-05T18:32:06+0530
; FORMAT={-:-/ absolute / metric / decimal}
; #@! TF.CreationDate,2026-08-05T18:32:06+05:30
; #@! TF.GenerationSoftware,Kicad,Pcbnew,9.0.7
; #@! TF.FileFunction,Plated,1,5,Blind
FMAT,2
METRIC
; #@! TA.AperFunction,Plated,Buried,ViaDrill
T1C0.200
; #@! TA.AperFunction,Plated,Buried,ViaDrill
T2C0.300
%
G90
G05
T1
X173.22Y-77.36
T2
X166.3Y-79.9
X166.57Y-71.746
X169.312Y-65.139
X169.85Y-62.8
X172.615Y-62.675
X174.156Y-57.754
X178.161Y-76.046
X179.458Y-57.256
X179.806Y-76.449
X181.71Y-57.13
X182.04Y-77.84
X182.137Y-80.68
X182.159Y-78.577
X182.225Y-79.32
X184.341Y-65.623
X185.091Y-65.925
X185.209Y-63.08
X185.252Y-61.447
X187.45Y-73.6
X187.72Y-62.9
X187.75Y-53.925
X188.015Y-67.645
X188.752Y-54.248
M30
